<?xml version="1.0" encoding="UTF-8"?>
<svg id="Camada_1" data-name="Camada 1" xmlns="http://www.w3.org/2000/svg" viewBox="0 0 934.88 186.98">
  <defs>
    <style>
      .cls-1 {
        fill: #28367b;
      }
    </style>
  </defs>
  <g>
    <g>
      <path class="cls-1" d="M204.17,76.87l-.42-2.27c1.04-.67,2.16-1.27,3.37-1.82,1.21-.54,2.43-1.05,3.66-1.53l.07,5.61h-6.68ZM212.34,34.75l-8.03-.99.07-3.62h7.96v4.62ZM218.17,60.04l.21-6.82c.9.24,1.82.44,2.77.6.95.17,1.84.29,2.66.36.83.07,1.51.11,2.03.11,2.08,0,3.75-.45,5-1.35,1.26-.9,2.2-2.07,2.81-3.52.62-1.44.93-2.97.93-4.58,0-1.28-.17-2.57-.5-3.87-.33-1.3-.82-2.48-1.46-3.52-.63-1.04-1.43-1.82-2.38-2.34l-10.87,1.14-14.99-6.11,22.95-.57c4.07-.05,7.46.67,10.15,2.17,2.7,1.49,4.73,3.42,6.11,5.79,1.37,2.37,2.06,4.86,2.06,7.46s-.71,5.18-2.13,7.46c-1.42,2.27-3.46,4.09-6.11,5.47-2.65,1.38-5.8,2.06-9.45,2.06l-9.8.07ZM209.5,76.87V30.13h10.8v46.74h-10.8ZM218.8,76.87l.21-5.04,9.81,1.42-.07,3.62h-9.95Z"/>
      <path class="cls-1" d="M248,47.68l-.5-3.41c1.85-.71,3.87-1.28,6.07-1.7,2.2-.43,4.37-.69,6.5-.78l.29,3.98-4.62,2.84-7.74-.92ZM248.28,76.87l-.21-2.41c1.18-.71,2.54-1.34,4.08-1.88,1.54-.54,2.9-.96,4.08-1.24l-.78,5.54h-7.17ZM253.33,76.87v-31.68l6.75-3.41,3.55,3.34v31.75h-10.3ZM260.36,61.32l-1.56-5.61,12-12.86c1.66-.66,3.29-.89,4.9-.67,1.61.21,2.99.77,4.12,1.67.05.9.02,1.94-.07,3.13-.1,1.19-.22,2.43-.39,3.73s-.4,2.57-.71,3.8c-.31,1.23-.63,2.34-.96,3.34h-5.68l-1.28-8.1c-1.18.76-2.35,1.66-3.52,2.7-1.16,1.04-2.31,2.28-3.48,3.73-1.16,1.44-2.28,3.16-3.37,5.15ZM261,76.87l1.21-6.18c.94.14,1.97.34,3.05.6,1.09.26,2.16.57,3.23.92,1.06.36,1.97.75,2.73,1.17l-.29,3.48h-9.95Z"/>
      <path class="cls-1" d="M298.01,78.29c-3.08,0-5.95-.75-8.6-2.24-2.65-1.49-4.8-3.62-6.43-6.39-1.63-2.77-2.45-6.07-2.45-9.91s.82-7.17,2.45-9.87c1.63-2.7,3.76-4.75,6.36-6.15,2.61-1.4,5.42-2.09,8.46-2.09s5.83.71,8.42,2.13c2.58,1.42,4.65,3.51,6.21,6.25,1.56,2.75,2.34,6.11,2.34,10.08s-.77,7.25-2.31,9.95c-1.54,2.7-3.57,4.74-6.11,6.14-2.53,1.4-5.31,2.09-8.34,2.09ZM298.5,72.47c.81,0,1.63-.12,2.49-.36.9-.66,1.59-1.59,2.06-2.77.47-1.18.79-2.52.96-4.01.17-1.49.25-2.95.25-4.37,0-2.42-.22-4.63-.67-6.64-.45-2.01-1.2-3.62-2.24-4.83-1.05-1.21-2.39-1.81-4.05-1.81-.71,0-1.4.1-2.06.29-.67.19-1.2.42-1.63.71-.86,1.14-1.48,2.69-1.88,4.65-.4,1.97-.61,4.06-.61,6.29s.25,4.39.75,6.36c.5,1.97,1.29,3.54,2.39,4.72,1.09,1.19,2.5,1.78,4.26,1.78Z"/>
      <path class="cls-1" d="M316.05,92.22l-1.07-3.06c2.42-.85,4.21-1.99,5.37-3.41,1.16-1.42,1.74-3.43,1.74-6.04v-34.52l6.82-3.41,3.48,3.12v35.52c0,1.37-.51,2.88-1.53,4.51-1.01,1.63-2.71,3.12-5.07,4.44-2.37,1.33-5.61,2.27-9.73,2.84ZM316.76,47.68l-.5-3.41c1.85-.71,3.87-1.28,6.07-1.7,2.2-.43,4.39-.69,6.57-.78l.29,3.98-4.69,2.84-7.74-.92ZM327.76,37.24c-1.37-.62-2.73-1.45-4.08-2.49-1.35-1.04-2.47-2.13-3.37-3.27.75-1.51,1.66-2.92,2.73-4.22,1.06-1.3,2.19-2.38,3.37-3.23,1.42.71,2.76,1.63,4.01,2.77,1.26,1.14,2.31,2.3,3.16,3.48-.61,1.33-1.44,2.62-2.48,3.87-1.05,1.26-2.16,2.29-3.35,3.09Z"/>
      <path class="cls-1" d="M358.53,77.8c-2.89.29-5.56.05-8.03-.71-2.47-.76-4.61-1.92-6.43-3.48-1.82-1.57-3.23-3.47-4.22-5.72-1-2.25-1.49-4.72-1.49-7.42s.46-5.12,1.38-7.42c.93-2.29,2.18-4.3,3.77-6,1.59-1.7,3.45-3.03,5.58-3.98,2.13-.95,4.4-1.42,6.82-1.42,1.8,0,3.56.28,5.3.85,1.73.57,3.3,1.44,4.72,2.63,1.42,1.19,2.53,2.66,3.34,4.44.8,1.78,1.2,3.87,1.2,6.29l-9.45,1.49c.24-1.75.06-3.42-.53-5.01-.59-1.59-1.51-2.87-2.73-3.84-1.23-.97-2.68-1.45-4.34-1.45-1.23.71-2.22,1.73-2.98,3.05-.76,1.33-1.32,2.77-1.67,4.34-.35,1.56-.53,3.08-.53,4.55,0,2.56.48,4.71,1.42,6.46.95,1.75,2.25,3.09,3.91,4.01,1.66.92,3.5,1.39,5.54,1.39,1.47,0,2.94-.23,4.41-.68,1.47-.45,3.03-1.07,4.68-1.88l1.49,3.77-11.14,5.75ZM366.33,59.97l-20.45-.21-.57-4.69,20.88-1.14,4.26,1.92-4.12,4.12Z"/>
      <path class="cls-1" d="M372.59,50.52l-.29-3.69c1.61-1.18,3.34-2.24,5.18-3.16,1.85-.92,3.81-1.81,5.9-2.67l1.78,4.97-1.7,4.4-10.87.14ZM386.22,78.01c-1.37.05-2.72-.26-4.04-.92-1.33-.66-2.43-1.55-3.31-2.66-.88-1.11-1.32-2.29-1.32-3.52v-26.21l4.05-10.51h4.83l1.42,11.08v21.45c0,1.23.21,2.08.61,2.56.4.48,1.05.71,1.95.71.86,0,1.83-.11,2.95-.32,1.11-.21,2.12-.42,3.02-.6l.78,3.48-10.94,5.47ZM383.81,50.59v-7.17h13.63l.14,3.05-3.48,4.12h-10.3Z"/>
      <path class="cls-1" d="M417.33,78.29c-3.08,0-5.95-.75-8.59-2.24-2.66-1.49-4.8-3.62-6.43-6.39-1.63-2.77-2.45-6.07-2.45-9.91s.82-7.17,2.45-9.87c1.63-2.7,3.75-4.75,6.36-6.15,2.6-1.4,5.42-2.09,8.45-2.09s5.83.71,8.42,2.13c2.58,1.42,4.65,3.51,6.21,6.25,1.56,2.75,2.35,6.11,2.35,10.08s-.77,7.25-2.31,9.95c-1.55,2.7-3.57,4.74-6.11,6.14-2.54,1.4-5.32,2.09-8.35,2.09ZM417.83,72.47c.8,0,1.63-.12,2.48-.36.9-.66,1.59-1.59,2.06-2.77.48-1.18.79-2.52.96-4.01.17-1.49.25-2.95.25-4.37,0-2.42-.23-4.63-.67-6.64-.45-2.01-1.2-3.62-2.24-4.83-1.04-1.21-2.39-1.81-4.05-1.81-.71,0-1.4.1-2.05.29-.67.19-1.21.42-1.63.71-.86,1.14-1.48,2.69-1.89,4.65-.4,1.97-.6,4.06-.6,6.29s.25,4.39.75,6.36c.5,1.97,1.29,3.54,2.38,4.72,1.09,1.19,2.51,1.78,4.26,1.78Z"/>
    </g>
    <g>
      <path class="cls-1" d="M233.64,162c-4.57.22-8.53-.19-11.91-1.22-3.37-1.03-6.22-2.47-8.56-4.32-2.34-1.85-4.21-3.98-5.63-6.4-1.41-2.42-2.44-4.97-3.1-7.67-.65-2.69-.97-5.34-.97-7.95,0-3.7.59-7.29,1.75-10.77,1.17-3.48,2.92-6.61,5.26-9.42,2.34-2.8,5.29-5.03,8.85-6.69,3.56-1.66,7.78-2.49,12.68-2.49,4.19,0,7.67.57,10.44,1.71,2.77,1.14,5.03,2.34,6.76,3.59l-2.52,11.25c-3-2.5-6.17-4.53-9.54-6.08-3.37-1.55-7.28-2.43-11.75-2.65-1.62,1.47-2.97,3.28-4.03,5.43s-1.83,4.42-2.32,6.81c-.49,2.39-.74,4.78-.74,7.18,0,3.8.6,7.25,1.8,10.31,1.19,3.08,3.01,5.51,5.46,7.3,2.45,1.8,5.46,2.66,9.05,2.61l13.86-4.4,2.28,6.69-17.13,7.17ZM238.54,126.04l-3.35-14.92,14.02-.73c.11,1.14.1,2.65-.04,4.53-.13,1.87-.36,3.82-.69,5.83-.32,2.01-.71,3.78-1.14,5.3h-8.81Z"/>
      <path class="cls-1" d="M266.59,161.68c-3.21.49-5.95.25-8.24-.73-2.28-.98-4-2.35-5.14-4.12-1.14-1.77-1.71-3.57-1.71-5.43,0-1.68.52-3.41,1.55-5.18s2.72-3.25,5.06-4.45l18.03-.41-.09,5.14-2.28-.08c-.97,0-1.97.06-2.97.16-1.01.11-1.92.3-2.73.57-.82.27-1.47.68-1.96,1.22-.48.54-.73,1.25-.73,2.12,0,.6.12,1.22.36,1.87.25.65.61,1.2,1.1,1.63,1.03-.06,2.08-.22,3.14-.49,1.06-.27,2.08-.57,3.06-.9.97-.32,1.82-.6,2.53-.82l1.05,3.42-10.03,6.44ZM283.55,162c-1.09,0-2.19-.29-3.31-.86-1.11-.57-2.15-1.39-3.1-2.45-.95-1.06-1.75-2.29-2.4-3.71l-1.14-.41v-19.82c0-2.56-.38-4.43-1.14-5.63-.76-1.19-1.63-2.06-2.62-2.61-.81.05-1.64.17-2.48.36-.85.19-1.54.4-2.08.61l-1.96,8.97-8.07.16c-.6-1.85-1.03-3.86-1.31-6.04-.27-2.17-.29-4.26-.08-6.28,1.69-.65,3.54-1.26,5.55-1.84,2.01-.57,4-1.06,5.99-1.47,1.98-.41,3.83-.72,5.54-.94s3.12-.32,4.2-.32c1.52,0,2.99.22,4.41.65,1.41.44,2.73,1.1,3.96,2,1.22.9,2.29,2,3.22,3.3.44.65.71,1.61.82,2.85.11,1.25.17,3.07.17,5.47v16.72c0,.54.17,1.01.52,1.39.36.38.83.57,1.43.57.66,0,1.31-.03,1.96-.08.66-.06,1.42-.11,2.28-.16l.49,3.59-10.84,5.95Z"/>
      <path class="cls-1" d="M305.33,134.2l-14.19-8.07.08-4.49h17.7l-3.59,12.56ZM308.1,160.95l-13.78-37.35,14.68-1.96,6.44,20.63,1.14,6.2h1.14c.54-2.83,1.07-5.76,1.59-8.81.52-3.04,1.01-6.1,1.47-9.17.47-3.07.86-6.02,1.19-8.85h15.24c-2.61,6.31-5.19,12.79-7.74,19.45-2.55,6.66-5.22,13.12-7.99,19.37-1.2.33-2.64.57-4.32.73-1.69.17-3.35.22-4.98.17-1.63-.06-2.99-.19-4.07-.41ZM332.98,128.65l-7.1-7.02h12.48l.24,4c-.86.6-1.77,1.14-2.69,1.63-.93.49-1.9.95-2.93,1.39Z"/>
      <path class="cls-1" d="M354.5,161.68c-3.21.49-5.95.25-8.24-.73s-4-2.35-5.14-4.12c-1.14-1.77-1.71-3.57-1.71-5.43,0-1.68.52-3.41,1.55-5.18s2.72-3.25,5.06-4.45l18.03-.41-.09,5.14-2.28-.08c-.97,0-1.97.06-2.97.16-1.01.11-1.92.3-2.73.57-.82.27-1.47.68-1.96,1.22-.48.54-.73,1.25-.73,2.12,0,.6.12,1.22.36,1.87.25.65.61,1.2,1.1,1.63,1.03-.06,2.08-.22,3.14-.49,1.06-.27,2.08-.57,3.06-.9.97-.32,1.82-.6,2.53-.82l1.05,3.42-10.03,6.44ZM371.46,162c-1.09,0-2.19-.29-3.31-.86-1.11-.57-2.15-1.39-3.1-2.45-.95-1.06-1.75-2.29-2.4-3.71l-1.14-.41v-19.82c0-2.56-.38-4.43-1.14-5.63-.76-1.19-1.63-2.06-2.62-2.61-.81.05-1.64.17-2.48.36-.85.19-1.54.4-2.08.61l-1.96,8.97-8.07.16c-.6-1.85-1.03-3.86-1.31-6.04-.27-2.17-.29-4.26-.08-6.28,1.69-.65,3.54-1.26,5.55-1.84,2.01-.57,4-1.06,5.99-1.47,1.98-.41,3.83-.72,5.54-.94,1.71-.22,3.12-.32,4.2-.32,1.52,0,2.99.22,4.41.65,1.41.44,2.73,1.1,3.96,2,1.22.9,2.29,2,3.22,3.3.44.65.71,1.61.82,2.85.11,1.25.17,3.07.17,5.47v16.72c0,.54.17,1.01.52,1.39.36.38.83.57,1.43.57.66,0,1.31-.03,1.96-.08.66-.06,1.42-.11,2.28-.16l.49,3.59-10.84,5.95Z"/>
      <path class="cls-1" d="M383.86,107.69l-.4-4.08c2.39-.87,4.97-1.55,7.74-2.04,2.77-.49,5.6-.81,8.48-.98l-.08,5.79-6.2,3.02-9.54-1.71ZM383.94,160.7l-.16-2.85c1.52-.92,3.19-1.71,5.01-2.37,1.82-.65,3.5-1.17,5.02-1.55l-.73,6.77h-9.14ZM389.98,160.7v-55.78l9.7-4.32,4.4,4.08v56.03h-14.1ZM396.91,160.7l2.04-8.4c1.69.44,3.56,1.02,5.63,1.75,2.07.73,3.86,1.62,5.38,2.65l-.16,4h-12.89Z"/>
      <path class="cls-1" d="M432.05,162.33c-3.59,0-6.96-.84-10.11-2.53-3.15-1.68-5.72-4.13-7.7-7.34-1.99-3.21-2.98-7.07-2.98-11.58s.97-8.32,2.9-11.42c1.93-3.1,4.45-5.46,7.58-7.09,3.13-1.63,6.46-2.45,10-2.45s6.85.82,9.95,2.45c3.1,1.63,5.6,4.04,7.5,7.22,1.9,3.18,2.85,7.08,2.85,11.7s-.92,8.33-2.77,11.46c-1.85,3.13-4.28,5.51-7.3,7.13-3.02,1.63-6.32,2.45-9.91,2.45ZM432.46,154.99c.71,0,1.47-.13,2.28-.41.76-.6,1.36-1.52,1.8-2.77.44-1.25.75-2.72.94-4.4.19-1.68.29-3.42.29-5.22,0-2.66-.21-5.07-.65-7.22-.44-2.14-1.13-3.88-2.08-5.22-.95-1.33-2.24-2-3.87-2-.6,0-1.18.08-1.75.25-.58.16-1.05.38-1.43.65-.81,1.14-1.43,2.81-1.83,5.01-.4,2.2-.61,4.66-.61,7.38,0,2.56.25,4.89.73,7.02.49,2.12,1.24,3.8,2.24,5.05,1.01,1.25,2.33,1.88,3.96,1.88Z"/>
      <path class="cls-1" d="M471.77,162.33c-2.55,0-5.29-.36-8.2-1.06-2.91-.71-5.83-1.82-8.77-3.35l4.57-10.68c2.23,1.74,4.59,3.3,7.09,4.69,2.5,1.39,5.03,2.54,7.58,3.47.49-.38.86-.86,1.1-1.43.25-.57.37-1.1.37-1.59,0-1.14-.47-2.13-1.39-2.98-.93-.84-2.12-1.64-3.59-2.41-1.47-.76-3.04-1.55-4.73-2.36-1.68-.82-3.26-1.76-4.72-2.81-1.47-1.06-2.67-2.33-3.59-3.79-.93-1.47-1.39-3.23-1.39-5.3,0-2.55.78-4.8,2.32-6.73,1.55-1.93,3.69-3.42,6.4-4.49,2.72-1.06,5.82-1.59,9.3-1.59,2.06,0,4.22.22,6.48.65,2.25.44,4.3,1.11,6.15,2.04l-2.93,7.18c-1.69-1.14-3.61-2.03-5.79-2.65-2.18-.63-4.19-.94-6.04-.94-1.36.38-2.24.9-2.65,1.55-.41.65-.61,1.28-.61,1.88,0,1.14.48,2.15,1.43,3.02.95.87,2.17,1.68,3.67,2.45,1.49.76,3.08,1.57,4.77,2.41,1.68.84,3.27,1.81,4.76,2.9,1.5,1.09,2.72,2.39,3.67,3.91.95,1.52,1.43,3.32,1.43,5.38,0,3.59-1.48,6.6-4.44,9.01-2.96,2.42-7.05,3.63-12.28,3.63ZM478.29,134.03l-4.07-11.91,12.56.49c.17,1.9.13,3.82-.08,5.75-.21,1.93-.63,3.82-1.22,5.67h-7.18Z"/>
      <path class="cls-1" d="M498.03,142.6l-4.57-7.34,1.71-3.42h24.79l4.57,7.34-1.71,3.42h-24.79Z"/>
      <path class="cls-1" d="M530.97,160.7l-.48-2.61c1.19-.87,2.47-1.66,3.83-2.37,1.36-.71,2.77-1.36,4.24-1.96l.08,6.93h-7.67ZM543.04,114.3l-11.26-2.77.09-3.83h11.41l-.25,6.6ZM537.5,160.7l1.31-53.01h17.21l-9.46,8.97,1.63,19.33-.32,24.71h-10.36ZM561.23,161.27l-18.02-49.91,12.72-3.67,15.41,43.22.32,8.48-10.44,1.87ZM543.37,160.7l.25-6.61,11.26,2.77-.09,3.83h-11.41ZM571.67,159.4l-6.44-1.63,18.68-50.07,6.2,3.02-18.43,48.69ZM578.52,160.7l-.48-2.61c1.19-.87,2.47-1.66,3.83-2.37,1.36-.71,2.77-1.36,4.24-1.96l.08,6.93h-7.67ZM585.04,160.7l-.25-24.71,1.55-19.73-2.45-8.56h14.43l.82,53.01h-14.11ZM595.08,160.7l.25-6.61,11.25,2.77-.08,3.83h-11.41ZM597.36,114.63l-.08-6.93h7.67l.48,2.61c-1.14.76-2.39,1.49-3.75,2.2-1.36.71-2.8,1.41-4.32,2.12Z"/>
      <path class="cls-1" d="M622.88,161.68c-3.21.49-5.95.25-8.24-.73-2.28-.98-4-2.35-5.14-4.12-1.14-1.77-1.71-3.57-1.71-5.43,0-1.68.52-3.41,1.55-5.18s2.72-3.25,5.06-4.45l18.03-.41-.09,5.14-2.28-.08c-.97,0-1.97.06-2.97.16-1.01.11-1.92.3-2.73.57-.82.27-1.47.68-1.96,1.22-.48.54-.73,1.25-.73,2.12,0,.6.12,1.22.36,1.87.25.65.61,1.2,1.1,1.63,1.03-.06,2.08-.22,3.14-.49,1.06-.27,2.08-.57,3.06-.9.97-.32,1.82-.6,2.53-.82l1.05,3.42-10.03,6.44ZM639.85,162c-1.09,0-2.19-.29-3.31-.86-1.11-.57-2.15-1.39-3.1-2.45-.95-1.06-1.75-2.29-2.4-3.71l-1.14-.41v-19.82c0-2.56-.38-4.43-1.14-5.63-.76-1.19-1.63-2.06-2.62-2.61-.81.05-1.64.17-2.48.36-.85.19-1.54.4-2.08.61l-1.96,8.97-8.07.16c-.6-1.85-1.03-3.86-1.31-6.04-.27-2.17-.29-4.26-.08-6.28,1.69-.65,3.54-1.26,5.55-1.84,2.01-.57,4-1.06,5.99-1.47,1.98-.41,3.83-.72,5.54-.94,1.71-.22,3.12-.32,4.2-.32,1.52,0,2.99.22,4.41.65,1.41.44,2.73,1.1,3.96,2,1.22.9,2.29,2,3.22,3.3.44.65.71,1.61.82,2.85.11,1.25.17,3.07.17,5.47v16.72c0,.54.17,1.01.52,1.39.36.38.83.57,1.43.57.66,0,1.31-.03,1.96-.08.66-.06,1.42-.11,2.28-.16l.49,3.59-10.84,5.95Z"/>
      <path class="cls-1" d="M650.6,127.02l-.4-3.92c2.39-.92,4.98-1.64,7.74-2.16,2.77-.52,5.6-.8,8.48-.86l-.08,5.71-6.2,3.02-9.54-1.8ZM650.77,160.7l-.17-2.85c1.58-.92,3.28-1.71,5.1-2.37,1.82-.65,3.5-1.17,5.02-1.55l-.82,6.77h-9.13ZM656.72,160.7v-36.37l9.7-4.24,4.41,7.99v32.62h-14.11ZM662.52,140.64l2.77-5.22,11.99-14.84c1.74-.54,3.53-.64,5.38-.29,1.85.35,3.49,1.11,4.93,2.28,1.44,1.17,2.41,2.68,2.89,4.53l-8.39,10.52c-1.31-1.2-2.75-2.39-4.33-3.59-1.58-1.2-3.23-1.93-4.97-2.2l-10.27,8.81ZM666.99,160.7l2.05-7.91c1.14.22,2.33.53,3.58.94s2.49.84,3.71,1.3c1.23.46,2.35,1.02,3.38,1.67l-.16,4h-12.56Z"/>
      <path class="cls-1" d="M690.97,127.02l-.4-3.92c2.39-.92,4.97-1.64,7.74-2.16,2.77-.52,5.6-.8,8.48-.86l-.08,5.71-6.2,3.02-9.54-1.8ZM691.05,160.7l-.16-2.85c1.52-.92,3.19-1.71,5.01-2.37,1.82-.65,3.5-1.17,5.02-1.55l-.73,6.77h-9.14ZM704.84,115.77c-1.85-.82-3.61-1.89-5.3-3.22-1.68-1.33-3.15-2.73-4.4-4.2,1.03-2.01,2.23-3.84,3.58-5.51,1.36-1.66,2.85-3.08,4.49-4.28,1.85.92,3.56,2.14,5.14,3.63,1.58,1.49,2.94,3.06,4.08,4.69-.87,1.74-1.96,3.38-3.27,4.93-1.3,1.55-2.74,2.87-4.32,3.96ZM697.09,160.7v-36.37l9.7-4.24,4.4,3.92v36.7h-14.1ZM704.02,160.7l2.04-8.4c1.69.44,3.56,1.02,5.63,1.75s3.86,1.62,5.38,2.65l-.16,4h-12.89Z"/>
      <path class="cls-1" d="M719.18,127.02l-.4-3.92c2.39-.92,4.98-1.64,7.74-2.16,2.77-.52,5.6-.8,8.48-.86l-.08,5.71-6.2,3.02-9.54-1.8ZM719.43,160.7l-.16-2.85c1.52-.92,3.19-1.71,5.01-2.37,1.82-.65,3.5-1.17,5.02-1.55l-.73,6.77h-9.14ZM725.3,160.7v-36.37l9.7-4.24,4.41,4.4v36.21h-14.11ZM749.85,160.7v-23.24c0-2.5-.48-4.4-1.43-5.71-.95-1.31-2.32-1.93-4.12-1.88-1.2.06-2.5.4-3.92,1.02-1.41.63-2.82,1.39-4.24,2.29-1.41.9-2.77,1.84-4.07,2.81l-.49-2.12c2.28-2.28,4.6-4.33,6.94-6.16,2.34-1.82,4.63-3.35,6.89-4.57,2.26-1.22,4.37-2.16,6.32-2.81,1.04,0,2.24.18,3.63.53,1.39.35,2.77.95,4.16,1.79,1.39.84,2.54,2.03,3.46,3.55.27.44.48,1.03.61,1.8s.23,1.81.29,3.14c.06,1.33.09,3.14.09,5.42v24.14h-14.11ZM732.07,160.7l2.04-8.4c1.69.44,3.4,1.02,5.14,1.75,1.74.73,3.35,1.62,4.81,2.65l-.16,4h-11.83ZM756.62,160.7l2.04-8.4c1.74.44,3.65,1.02,5.75,1.75,2.09.73,3.9,1.62,5.42,2.65l-.25,4h-12.96Z"/>
      <path class="cls-1" d="M771.95,107.69l-.4-4.08c2.39-.87,4.97-1.55,7.74-2.04,2.77-.49,5.6-.81,8.48-.98l-.08,5.79-6.2,3.02-9.54-1.71ZM772.12,160.7l-.17-2.85c1.58-.92,3.27-1.71,5.1-2.37,1.82-.65,3.5-1.17,5.02-1.55l-.82,6.77h-9.13ZM778.07,160.7v-55.78l9.7-4.32,4.4,4.08v56.03h-14.1ZM802.53,160.7v-23.24c0-2.5-.49-4.4-1.47-5.71-.98-1.31-2.37-1.93-4.16-1.88-1.2.06-2.5.4-3.92,1.02-1.41.63-2.82,1.39-4.24,2.29-1.41.9-2.77,1.84-4.07,2.81l-.41-2.12c2.24-2.28,4.52-4.33,6.86-6.16,2.33-1.82,4.63-3.35,6.89-4.57,2.26-1.22,4.36-2.16,6.32-2.81,1.09,0,2.33.18,3.71.53,1.39.35,2.76.95,4.12,1.79,1.36.84,2.5,2.03,3.42,3.55.27.44.48,1.03.61,1.8.13.76.25,1.81.32,3.14.09,1.33.13,3.14.13,5.42v24.14h-14.11ZM784.67,160.7l2.04-8.4c1.69.44,3.4,1.02,5.14,1.75,1.74.73,3.37,1.62,4.9,2.65l-.17,4h-11.91ZM809.95,160.7l2.04-8.4c1.69.44,3.4,1.02,5.14,1.75,1.74.73,3.37,1.62,4.89,2.65l-.25,4h-11.83Z"/>
      <path class="cls-1" d="M843.55,162.33c-3.59,0-6.96-.84-10.11-2.53-3.15-1.68-5.72-4.13-7.7-7.34-1.99-3.21-2.98-7.07-2.98-11.58s.97-8.32,2.9-11.42c1.93-3.1,4.45-5.46,7.58-7.09,3.13-1.63,6.46-2.45,10-2.45s6.85.82,9.95,2.45c3.1,1.63,5.6,4.04,7.5,7.22,1.9,3.18,2.85,7.08,2.85,11.7s-.92,8.33-2.77,11.46c-1.85,3.13-4.28,5.51-7.3,7.13-3.02,1.63-6.32,2.45-9.91,2.45ZM843.96,154.99c.71,0,1.47-.13,2.28-.41.76-.6,1.36-1.52,1.8-2.77.44-1.25.75-2.72.94-4.4.19-1.68.29-3.42.29-5.22,0-2.66-.21-5.07-.65-7.22-.44-2.14-1.13-3.88-2.08-5.22-.95-1.33-2.24-2-3.87-2-.6,0-1.18.08-1.75.25-.58.16-1.05.38-1.43.65-.81,1.14-1.43,2.81-1.83,5.01-.4,2.2-.61,4.66-.61,7.38,0,2.56.25,4.89.73,7.02.49,2.12,1.24,3.8,2.24,5.05,1.01,1.25,2.33,1.88,3.96,1.88Z"/>
      <path class="cls-1" d="M883.27,162.33c-2.56,0-5.29-.36-8.2-1.06-2.91-.71-5.83-1.82-8.77-3.35l4.57-10.68c2.23,1.74,4.6,3.3,7.09,4.69,2.5,1.39,5.03,2.54,7.59,3.47.49-.38.86-.86,1.1-1.43.25-.57.36-1.1.36-1.59,0-1.14-.46-2.13-1.39-2.98-.93-.84-2.12-1.64-3.58-2.41-1.47-.76-3.05-1.55-4.73-2.36-1.69-.82-3.27-1.76-4.73-2.81-1.47-1.06-2.66-2.33-3.59-3.79-.92-1.47-1.38-3.23-1.38-5.3,0-2.55.77-4.8,2.32-6.73,1.55-1.93,3.68-3.42,6.4-4.49,2.72-1.06,5.82-1.59,9.3-1.59,2.07,0,4.22.22,6.48.65,2.26.44,4.31,1.11,6.16,2.04l-2.94,7.18c-1.68-1.14-3.61-2.03-5.79-2.65-2.17-.63-4.19-.94-6.03-.94-1.36.38-2.24.9-2.66,1.55-.4.65-.61,1.28-.61,1.88,0,1.14.48,2.15,1.43,3.02.95.87,2.17,1.68,3.67,2.45,1.5.76,3.08,1.57,4.77,2.41,1.69.84,3.27,1.81,4.77,2.9,1.49,1.09,2.72,2.39,3.67,3.91.95,1.52,1.43,3.32,1.43,5.38,0,3.59-1.48,6.6-4.45,9.01-2.96,2.42-7.05,3.63-12.27,3.63ZM889.79,134.03l-4.08-11.91,12.56.49c.16,1.9.13,3.82-.08,5.75-.22,1.93-.63,3.82-1.23,5.67h-7.17Z"/>
    </g>
  </g>
  <g>
    <path class="cls-1" d="M80.04,38.69c-.56.03-.5.5-.59.79,0,.46.44,1.03.65.89.34-.24.65-.58.83-.95.13-.29-.47-.74-.89-.72Z"/>
    <path class="cls-1" d="M98.36,50.48c-1.05-.33-2.1-.67-3.1-1.11-2.02-.9-3.78-2.21-5.51-3.56-1.32-1.03-2.38-2.19-2.6-3.99-.2-1.66-1.07-3.02-2.31-4.15-.36-.32-.71-.69-.95-1.1-.44-.76-.27-1.57,0-2.34.25-.71.32-1.37-.31-1.96-.38.09-.78.21-1.19.29-.57.11-1.14.25-1.65-.2-.86-.77-1.79-1.48-2.55-2.33-.52-.58-1.01-1.33-1.16-2.07-.34-1.72-.47-3.48-.69-5.22-.14-1.16-.42-2.26-2.05-2.09-1.02.11-2.09.18-3.08-.29-.52-.25-1.06-.46-1.59-.67-.52-.21-1.03-.1-1.33.34-.59.87-1.2,1.74-1.62,2.7-.8,1.82-1.96,3.3-3.61,4.4-.25.16-.48.37-.75.47-1.13.4-2.27.79-3.43,1.14-1.3.39-2.42.94-3.04,2.28-.51,1.11-1.49,1.61-2.71,1.7-.82.06-1.66.11-2.45.34-.94.28-2.11.43-2.19,1.77-.03.55-.02,1.16.18,1.66.49,1.25.16,2.01-.89,2.76-.45.32-.86.71-1.22,1.12-.29.33-.34.75-.15,1.18.15.34.29.68.39,1.03.36,1.28.24,1.96-.88,2.68-.6.39-1.14.87-1.71,1.31-.77.59-.68,1.77-.24,2.4.25.36.47.75.64,1.14.31.69.41,1.38-.16,2.02-.17.2-.3.43-.44.65-.62.99-.39,1.8.66,2.32.5.25,1.04.41,1.54.67.88.46,1.01,1.03.46,1.85-.09.13-.2.25-.27.39-.56,1.06-.81,2.24.75,2.83.26.1.52.23.74.39.28.2.64.39.78.67.44.93.82,1.88,1.18,2.85.16.43-.04.68-.52.65-.36-.02-.75-.09-1.05-.26-1.9-1.08-3.79-2.19-5.68-3.3-.71-.42-1.28-.97-1.65-1.73-.57-1.18-1.14-2.36-1.72-3.54-.27-.56-.52-1.14-.85-1.67-.33-.53-.69-1.1-1.43-1.12-.6-.01-1.95,1.12-1.97,1.72-.04,1.43-.15,2.88.02,4.3.2,1.65.21,3.32.7,4.94.58,1.91.69,3.95,1.52,5.8.54,1.21,1.18,2.35,2.07,3.35.55.62,1.15,1.21,1.58,1.91.75,1.22,1.42,2.5,2.07,3.78,1.02,2,1.98,4.02,2.38,6.25.29,1.6.53,3.21.8,4.82.14.85.28,1.69.44,2.54.06.31.23.5.6.45.8-.12,1.4-.55,1.81-1.21,1.18-1.9,2.32-3.83,3.51-5.72.5-.79,1.07-.95,1.97-.67.1.03.24.19.24.29,0,.64-.05,1.28-.07,1.91-.07,1.5-.14,2.96.98,4.25.9,1.04,1.67,2.22,2.36,3.41.71,1.24.78,2.57.02,3.87-.15.26-.27.53-.39.8-.42.92-.5,1.76.26,2.62.75.86.93,1.84.12,3.04-.35.52-.68,1.06-.96,1.62-.09.18-.07.47.02.67.33.79.72,1.55,1.03,2.35.06.15-.05.46-.19.59-.26.25-.6.42-.9.63-1.07.74-1.49,2.21-.63,3.39.15.21.29.44.42.67.18.31.17.59-.12.85-.49.43-1,.86-1.44,1.34-.47.51-.8,1.1-.58,1.86.16.57.3,1.15.46,1.72.15.56.41,1.18-.05,1.65-.33.34-.84.52-1.29.75-.76.38-1.55.76-1.59,1.76-.03.73-.04,1.48.08,2.2.14.92.07,1.22-.67,1.76-.57.41-1.12.85-1.64,1.33-.23.22-.42.53-.52.84-.07.23.08.51.07.77-.03,1.48-.04,2.95-.11,4.43-.04.77-.14,1.54-.29,2.3-.27,1.37-.62,2.73-.87,4.1-.14.76-.08,1.56-.25,2.31-.25,1.1-.14,2.17.1,3.23.52,2.26,1.15,4.5,1.63,6.77.45,2.13,1.28,4.01,3.02,5.4.39.31.74.66,1.15.92.73.48,1.46.98,2.25,1.34.95.44,1.95.75,2.94,1.1,1.63.58,3.28,1.12,5.01,1.29.49.05.97.13,1.45.2.51.07,1.03.2,1.54.21.65.02,1.31-.05,1.96-.1,1.57-.1,3.14-.2,4.71-.32,1.84-.15,3.53-.86,5.04-1.82,2.66-1.69,4.88-3.89,6.67-6.51,1.08-1.58,2.02-3.23,2.71-5,.49-1.27.81-2.6,1.22-3.9.44-1.4.47-2.86.29-4.27-.17-1.35-.62-2.68-1.08-3.98-.48-1.37-1.29-2.58-2.37-3.57-.76-.7-1.56-1.39-2.41-1.97-.73-.5-1.53-1.02-2.38-1.22-2.06-.49-4.15-1.01-6.3-.68-.76.12-1.57.17-2.23.5-1.28.63-2.5,1.39-3.7,2.19-.58.39-1.23.86-1.52,1.46-.73,1.49-1.73,2.91-1.74,4.68,0,.96-.13,1.94,0,2.88.27,1.8,1.29,3.2,2.68,4.35.54.45,1.09.91,1.7,1.24.57.32,1.23.47,1.85.71.63.25,1.24.19,1.89.02,1.21-.32,2.19-1.03,3.1-1.82.52-.45,1-1.03,1.27-1.65.69-1.55.54-3.15,0-4.73-.54-1.6-2.56-1.93-3.64-.99-.97.85-1.95,1.69-2.94,2.51-.44.36-.94.65-1.54.34-.47-.25-.76-.86-.64-1.51.06-.36.17-.73.36-1.03.61-.98,1.21-1.97,1.92-2.88.59-.75,1.37-1.29,2.33-1.57,1.27-.37,2.56-.31,3.85-.29.28,0,.63.15.83.35.56.56,1.09,1.16,1.58,1.78.9,1.12,1.74,2.3,2.04,3.75.23,1.09.28,2.18.19,3.3-.12,1.41-.47,2.74-1.14,3.96-1.15,2.11-3.03,3.44-5.12,4.49-1.73.87-3.64,1.17-5.54,1.32-1.58.13-3.17.09-4.75.12-.14,0-.29,0-.42-.05-1.38-.45-2.78-.84-4.12-1.38-1.35-.55-2.43-1.46-2.73-2.99-.18-.91-.31-1.85-.32-2.77-.02-1.04.11-2.08.2-3.12.15-1.87,1-3.49,1.84-5.1.59-1.13,1.26-2.22,1.9-3.33.91-1.59,1.76-3.22,2.78-4.74.47-.7,1.29-1.16,1.95-1.73.81-.7,1.45-1.47,1.4-2.64-.04-.8,0-1.61,0-2.41,0-.47.19-.79.58-1.1.54-.43,1.01-.97,1.46-1.51.66-.79.23-1.72.16-2.56-.09-.95-.02-1.79.49-2.61.62-.99,1.57-1.33,2.63-1.55.48-.1.98-.25,1.41-.49.38-.22.67-.6,1.01-.89,1.16-.98,2.39-1.88,3.47-2.94,1.27-1.23,2.4-2.61,3.62-3.9,1.33-1.41,2.05-3.17,2.85-4.88.24-.52.46-1.06.61-1.61.8-2.97,1.46-5.96,1.23-9.07-.04-.53.02-1.07-.02-1.61-.12-1.51-.26-3.02-.42-4.53-.1-.96-.17-1.93-.38-2.87-.2-.88-.55-1.72-.84-2.58-.38-1.13-.34-2.17.43-3.17.57-.74,1.03-1.58,1.53-2.38.21-.35.2-.72-.07-1.03-.7-.82-1.41-1.62-2.11-2.45-.63-.74-1.29-1.5-1.24-2.54.04-.73.22-1.47.45-2.17.3-.89-.03-2.41-.77-2.94-.7-.5-1.42-.97-2.15-1.4-1.08-.63-1.28-1.1-.91-2.28.28-.92.51-1.86.22-2.82-.47-1.56-1.83-2.01-3.17-2.33-1.47-.34-2.87-.77-4.07-1.71-.82-.64-1.63-1.29-2.4-1.99-1.08-.98-2.11-2.01-3.23-3.08.3-.09.51-.17.72-.22,1.63-.37,3.28-.5,4.95-.43.38.02.83-.03,1.13.15.2.12.14.62.29.9.13.25.34.54.59.65.34.15.58-.12.76-.41.29-.49.68-.66,1.25-.44.53.21,1.11.3,1.64.51,1.25.51,2.52.99,3.72,1.61,1.34.68,2.74,1.34,3.87,2.3,1.23,1.04,2.21,2.38,3.22,3.66.59.74,1.16,1.44,2.06,1.81.73.3,1.49.5,2.25.2,2.25-.89,4.3-2.08,5.93-3.92.58-.66.81-1.37.49-2.18-.63-1.62-1.86-2.6-3.5-3.12ZM75.74,143.03c.5-.33.96-.1,1.35.17.71.5,1.03,1.28,1.19,2.1.09.49-.29.95-.93,1.2-.45.17-.87.16-1.18-.28-.48-.69-.92-1.41-1-2.27-.08-.49.24-.71.57-.93ZM72.84,145.64c.03-.31.34-.73.62-.83.27-.1.74.06.99.27.84.7,1.04,1.7,1.18,2.75-.14,1.05-.68,1.89-1.56,2.49-.14.09-.54.03-.63-.1-.29-.4-.67-.85-.7-1.3-.07-1.09,0-2.2.1-3.29ZM67.82,141.22c.5,0,1.11.69,1.12,1.27.01.47-.64,1.17-1.11,1.19-.49.02-1.14-.7-1.14-1.26,0-.68.48-1.21,1.13-1.2ZM68.12,146.8c-.67,0-1.2-.51-1.21-1.17,0-.56.65-1.2,1.2-1.19.63.01,1.27.65,1.26,1.25,0,.63-.56,1.11-1.26,1.11ZM70.25,146.53c.36-.39.75-.38,1.08.05.27.36.43.81.64,1.22-.06,1.18-.79,1.5-1.58,1.52-.86.02-1.36-.79-.93-1.68.2-.4.48-.78.79-1.11ZM69.12,140.05c-.52-.02-1.05-.68-1.03-1.28.02-.55.57-1.14,1.08-1.08.75.08,1.23.57,1.28,1.29,0,.47-.78,1.08-1.33,1.06ZM72.7,136.74c-.06.54-.62.91-1.29.84-.84-.09-1.05-.43-.96-1.56.03-.4.55-.84.96-.81.64.05,1.35.89,1.29,1.52ZM74.66,136.5c-.51.01-.99-.58-.99-1.2,0-.68.52-1.27,1.09-1.25.52.02,1.17.68,1.16,1.19,0,.62-.64,1.26-1.26,1.27ZM86.25,153.88c-.43.29-.92.08-1.25-.23-.55-.52-1.03-1.13-1.53-1.71-.36-.41-.4-.88-.12-1.34.19-.31.99-.48,1.42-.35.8.25,2.05,1.9,2.05,2.92-.12.16-.29.52-.58.71ZM88.36,148.79c-.3.65-1.02.94-1.67.66-.58-.25-1.15-.53-1.71-.81-.53-.27-.9-1.37-.53-1.79.24-.27.72-.34,1.09-.5,1.38.11,2.22.85,2.83,1.92.08.13.06.38,0,.53ZM88,143.09c.13.21.13.5.2.75-.05.76-.43,1.15-1.18,1.13-.85-.03-1.67-.16-2.31-.81-.45-.46-.44-.92,0-1.39.85-.87,2.66-.71,3.29.32ZM86.24,138.76c.56.49.31,1.52-.46,1.8-.54.19-1.11.28-1.67.41-.75-.07-1.33-1.06-.93-1.69.55-.87,2.2-1.27,3.06-.52ZM79.35,135.36c0,.66-.55,1.15-1.3,1.15-.57,0-1.03-.55-1.04-1.23,0-.54.57-1.06,1.2-1.02.59.04,1.21.31,1.13,1.1ZM81.45,138.16c-.55-.02-1-.41-1.14-1.02-.03-.14-.03-.3,0-.43.18-.63,1-1.29,1.67-1.41.31.25.72.44.9.76.24.41.22.9-.09,1.36-.34.51-.85.75-1.36.74ZM81.29,153.07c.34-.27,1.13-.26,1.43.06.76.78,1.67,1.51,1.4,2.82-.05.44-.11.87-.15,1.31-.04.46-.18.84-.69.91-.59.08-1.11-.23-1.31-.77-.11-.31-.12-.65-.22-.96-.25-.72-.51-1.44-.8-2.15-.22-.52-.05-.9.34-1.21ZM78.53,156.59c.12-.41.43-.47.83-.48.57-.02.94.21,1.05.73.23,1.02.4,2.05.59,3.08-.03.01-.07.02-.1.03-.05.58-.09,1.16-.16,1.74-.06.49-.46.58-.84.65-.41.07-.82.03-.94-.45-.18-.67-.36-1.35-.45-2.03-.1-.79-.1-1.59-.11-2.38,0-.29.06-.59.14-.88ZM75.06,158.92c0-.6.45-1.05,1-1.19.43-.11,1.11.76,1.14,1.21.05.9.1,1.8.16,2.71-.02,0-.03,0-.05,0,0,.63-.02,1.25,0,1.87.02.55-.36.76-.73,1-.4.26-.84.21-1.09-.12-.24-.33-.41-.79-.42-1.2-.05-1.43-.03-2.86-.02-4.3ZM71.62,159.32c.15-.89.4-1.01,1.27-.93.53.05.9.47.88,1.17-.03,1.24-.13,2.47-.2,3.71-.02.31-.06.63-.11.94-.1.58-.7,1.07-1.22,1.03-.52-.05-.9-.51-.92-1.16-.01-.39,0-.79,0-1.18-.03,0-.06,0-.08,0,.12-1.19.2-2.39.39-3.57ZM81.92,39.7c0,.98-.76,1.77-1.7,1.77-1.03,0-1.91-.82-1.9-1.78.01-1.08.87-2.07,1.82-2.08.92-.01,1.79,1,1.79,2.09ZM63.62,30.65c.05-.28.31-.57.56-.74.21-.14.54-.12.81-.17.99.04,1.61.5,1.8,1.39.09.41-.14.73-.55.68-.43-.05-.84-.2-1.26-.31-.25-.06-.51-.13-.76-.17-.39-.07-.66-.34-.59-.68ZM57.9,33.66c.06-.1.09-.23.11-.35.07-.43.34-.67.77-.62.69.08,1.45.07,2.05.36.99.47,2.03.6,3.07.81.31.06.76-.04.77.5,0,.35-.54.77-.87.78-.62-.08-1.13-.11-1.63-.22-1.17-.24-2.35-.12-3.52-.09-.77.02-1.28-.21-.74-1.18ZM56.9,44.48c.38-.97.91-1.89,1.39-2.82.14-.27.24-.35.68-.26.66.13.8.53,1.04.96.6,1.06,1.22,2.12,1.8,3.19.53,1,1.4,1.73,2.08,2.6.86,1.09,1.73,2.17,2.61,3.24.44.53.5,1.12.27,1.73-.89,2.34-2.01,4.55-3.59,6.5-.47.58-1.01,1.12-1.54,1.65-.38.37-.89.45-1.31-.04-1.04-1.21-1.77-2.6-2.42-4.05-.56-1.23-.63-2.57-.87-3.88-.21-1.1-.55-2.17-.79-3.26-.15-.67-.22-1.35-.28-1.72,0-1.58.49-2.72.94-3.85ZM52.24,37.2c.09-.19.49-.27.76-.33.24-.05.5-.01.75-.01,0-.04.02-.08.03-.12.74.17,1.51.29,2.22.54.55.19.57.66.05.92-.79.39-1.62.73-2.47,1-.45.14-.94.03-1.25-.44-.34-.51-.33-1.06-.09-1.55ZM54.17,59.15c-.19.58-.38,1.22-.61,1.85-.13.34-.42.39-.73.2-1.08-.66-1.93-1.5-1.99-2.84-.04-1.07,1.27-2.28,2.29-2.17.18.02.46.22.5.39.21.81.35,1.64.54,2.58ZM50.28,44.15c.15-.36.61-.65,1-.85.61-.31,1.29-.38,2.09-.18-.42.81-.81,1.57-1.22,2.33-.14.26-.32.5-.47.76-.43.75-.97.96-1.8.67-.15-.95.06-1.87.4-2.73ZM48.97,53.53c-.45-.27-.7-.76-.45-1.2.39-.68.81-1.35,1.33-1.94.23-.26.71-.3,1.08-.44,1.06.11,1.2.27.84,1.21-.24.63-.52,1.26-.87,1.84-.36.61-1.21.97-1.93.53ZM43.67,71.97c-.81-.32-1.62-.76-2.29-1.31-1.6-1.31-2.65-3.03-3.34-4.98-.19-.55-.02-1,.41-1.22.3-.15.83-.11,1.11.06.64.39,1.2.92,1.77,1.41.72.62,1.37,1.35,2.15,1.89.47.33,1.11.46,1.69.55,1.52.26,3.05.44,4.58.66.61.09,1.22.15,1.81.28.33.07.63.27.65.67.02.42.09.91-.39,1.1-.62.26-1.26.52-1.92.61-1.52.2-3.06.29-4.59.42,0-.04,0-.07,0-.11-.55,0-1.16.15-1.64-.03ZM46.89,79.12c-.86.3-1.1.23-1.55-.59-.36-.66-.68-1.34-.96-2.04-.25-.63-.12-.94.49-1.24.4-.19.84-.32,1.27-.44,1.16-.31,2.33-.6,3.49-.9.19-.05.38-.05.57-.08.73.1,1.49.07,1.93.85.32.57.24,1.16-.32,1.52-.39.26-.82.47-1.22.72-1.02.62-2.03,1.25-3.05,1.87-.21.13-.43.24-.66.32ZM54.37,80.44c-.72.68-1.54,1.27-2.18,2.01-.7.8-1.26,1.72-1.87,2.59-.45.65-.82,1.38-1.59,1.7-.43.18-.9.27-1.42.43-.05-1.03-.1-1.88.39-2.67.7-1.15,1.31-2.36,2.07-3.47.61-.9,1.37-1.71,2.38-2.21.65-.32,1.69-.16,2.22.34.44.42.46.85.01,1.27ZM57.79,77.54c-.07-.28-.21-.54-.28-.82-.23-.86-.45-1.72-.68-2.58-.48-1.82-.68-3.72-1.51-5.43-.2-.42-.52-.79-.74-1.2-.14-.25-.19-.55-.25-.73.15-1.32.65-2.28,1.72-2.9.71-.41,1.42-.23,1.81.38.9,1.42,1.83,2.82,2.57,4.32.61,1.22,1.02,2.56,1.4,3.88.15.53-.02,1.15-.07,1.73-.05.63-.12,1.26-.21,1.89-.17,1.32-.3,2.65-.56,3.95-.15.73-.7,1.26-1.47,1.44-.44.1-.84-.13-.95-.51-.31-1.12-.52-2.28-.78-3.41ZM53.62,157.78c-1.13.03-1.25-.24-1.44-.9-.04-.15-.02-.35.04-.49.26-.62.67-1.09,1.29-1.4.5-.25.95-.58,1.43-.88.15-.09.3-.18.46-.25,1.3-.56,1.66.01,1.74,1.08.12,1.58-.84,2.28-2.32,2.69-.39.11-.8.11-1.2.16ZM68.3,160c.22-.76,1.09-1.16,1.55-.76.27.24.47.62.59.97.09.27.02.6.02.94.05,1.24-.2,2.44-.94,3.51-.26.38-.58.56-1.02.47-.4-.08-.83-.64-.83-1.04-.02-1.4.25-2.75.63-4.08ZM63.72,162.95c.32-.97.68-1.94,1.07-2.88.12-.29.38-.57.63-.77.57-.45,1.22-.18,1.57.66.15.36.2.77.28,1.09-.18,1.43-.68,2.55-1.93,3.21-.41.21-.81.2-1.18-.1-.4-.32-.6-.73-.44-1.21ZM62.13,158.06c1.3-.13,1.75.88,1.35,1.86-.48,1.15-1.08,2.25-1.65,3.37-.26.5-.81.5-1.25.53-.45.03-.94-.1-1.38-.25-.51-.17-.56-.61-.36-1.04.34-.72.72-1.43,1.11-2.12.34-.61.75-1.18,1.08-1.79.26-.47.64-.63,1.1-.56ZM59.02,156.38c1.22.28,1.68,1.49.92,2.48-.79,1.05-1.76,1.93-2.91,2.58-.19.11-.43.14-.49.16-1.03,0-1.68-.95-1.18-1.63.88-1.2,1.89-2.33,2.88-3.44.14-.16.54-.2.79-.15ZM62.12,129.35c-.83,2.26-1.63,4.53-2.51,6.77-1.02,2.58-2.13,5.13-3.16,7.71-.42,1.03-.76,2.09-1.12,3.15-.44,1.33-.86,2.68-1.29,4.02-.13.41-.47.56-.82.5-.22-.04-.51-.3-.56-.52-.17-.69-.29-1.41-.33-2.12-.05-.91-.01-1.82-.01-2.73,0-.73,0-1.47,0-2.2,0-1.24.17-2.45.62-3.62.52-1.37.95-2.78,1.49-4.14.65-1.64,1.43-3.23,2.05-4.88,1.32-3.51,2.61-7.04,3.83-10.59.66-1.93,1.2-3.9,1.71-5.88.32-1.25.46-2.54.7-3.81.3-1.6.65-3.19.92-4.79.2-1.18.31-2.37.47-3.55.16-1.18.4-1.38,1.28-1.35.43.02.73.22.84.6.28,1.01.63,2.01.75,3.04.15,1.23.09,2.48.14,3.73.08,2.27-.28,4.5-.75,6.71-.72,3.38-1.65,6.71-2.79,9.98-.46,1.33-.98,2.65-1.47,3.98ZM66.94,129.06c-.48.54-1.29.8-1.84.34-.49-.4-1.1-.71-.91-1.52.07-.38.08-.77.2-1.13.37-1.11,1.41-1.12,2.16-.49.66.55.98,2.14.39,2.81ZM67.76,122.88c-.77,0-1.39-.69-1.39-1.53,0-.73.87-1.8,1.45-1.79.72,0,1.78,1.02,1.77,1.69-.01.79-.97,1.63-1.83,1.63ZM71.5,115.27c-.1.45-.31.9-.58,1.26-.51.66-1.8.41-2.29-.41-.11-.18-.21-.37-.28-.56-.39-.96.11-1.69,1.14-1.7.14,0,.28,0,.43,0,0,0,0,.01,0,.02.27,0,.55-.05.8.01.65.16.95.63.79,1.37ZM72.79,111.01c-.5.73-1.22,1.16-2.11,1.25-.7.07-1.26-.33-1.52-1.27-.16-.57-.13-1.24-.02-1.84.15-.79.82-.81,1.35-.75.82,0,1.51-.02,2.05.53.55.55.69,1.44.25,2.08ZM72.54,106.45c-.57.35-2.25.08-2.8-1.07-.39-.82-.18-1.44.68-1.78.4-.16.84-.2,1.27-.3.8.06,1.35.43,1.54,1.09.19.69-.15,1.73-.68,2.05ZM71.53,100.23c-.23.05-.53-.03-.76-.15-1.87-.96-3.54-2.17-4.83-3.86-1.56-2.03-3.15-4.04-4.68-6.1-.45-.61-.75-1.34-1.11-2.01-.28-.52-.01-1.23.46-1.78.3-.35.94-.42,1.45-.09,1.41.9,2.8,1.85,4.2,2.78.64.43,1.27.88,1.93,1.28,1.27.79,2.58,1.52,3.84,2.32,1.07.67,1.87,1.6,2.33,2.79.12.32.15.68.22,1.02.07,1.45-1.42,3.45-3.05,3.78ZM78.6,76.3c0,.36,0,.71,0,1.07,0,1.28-.51,1.47-1.49,1.51-1.2.05-2.4-.11-3.6-.18-.07,0-.14,0-.21,0-2.46-.04-4.91-.1-7.37-.09-.53,0-.82-.24-1.11-.58-.1-.12-.19-.25-.28-.38-.6-.78-.52-1.27.3-1.84.89-.63,1.95-.79,2.96-1.11,1.58-.5,3.11-1.12,4.67-1.68,1.02-.36,2.02-.83,3.07-1.02,1.74-.3,2.6.19,2.95,2.23.12.68.11,1.37.16,2.06h-.05ZM78.85,85.16c.65-.89,1.62-1.55,2.47-2.29.58-.5,1.81-.17,2.5.82.18.25.22.6.33.9-.09,1.02-.53,1.88-1.1,2.63-.93,1.24-1.89,2.48-3.02,3.54-.86.81-1.97,1.38-3.03,1.95-.72.39-1.17,0-.99-.86.22-1.05.48-2.12.9-3.1.54-1.25,1.13-2.5,1.93-3.59ZM65.06,80.43c1.13-.12,2.27-.12,3.4-.18,0,.05,0,.11,0,.16,1.62,0,3.24-.06,4.86.02,1.09.06,2.19.28,3.26.53,1.17.27,1.37,1.12,1.04,2.06-.62,1.83-1.57,3.48-2.87,4.92-1.21,1.34-1.86,1.12-3.09.34-1.82-1.15-3.53-2.48-5.28-3.73-.76-.54-1.54-1.04-2.25-1.63-.49-.41-.97-.98-.73-1.65.25-.67,1.02-.78,1.65-.85ZM85.03,93.88c.05.74.08,1.49.11,2.23.07,1.8-.35,3.53-.83,5.23-.25.91-.53,1.82-.92,2.67-.28.61-.73,1.16-1.18,1.67-1.7,1.88-3.41,3.76-5.17,5.59-.54.56-1.23.99-1.9,1.41-.3.19-.71.2-1.11.29-.13-1.17-.05-2.2.42-3.19.19-.4.22-.87.27-1.32.09-.79.14-1.58.23-2.36.02-.18.12-.36.22-.52.52-.82.83-1.68,1.04-2.65.72-3.3,2.07-6.33,4.16-9.03,1.03-1.33,2-2.71,3-4.06.05-.07.11-.15.19-.19.28-.15.57-.29.86-.43.09.27.25.54.27.82.13,1.28.23,2.56.33,3.85ZM84.93,76.03c0,.25,0,.5,0,.86.11,1.33-.44,2.39-1.69,3.15-1.12.67-2.02.43-2.33-.86-.25-1.04-.35-2.14-.35-3.21,0-1.09.61-1.68,1.68-1.77.48-.04.99.03,1.47.13.67.15,1.21.93,1.23,1.7ZM81.86,66.99c1.04.03,1.67.63,1.68,1.67,0,.18,0,.36,0,.53.02.95-.05,1.9-.85,2.55-1.14.93-1.78,1.08-2.69-.1-.42-.55-.82-1.14-1.19-1.73-.29-.46-.35-.99.06-1.4.83-.83,1.7-1.58,2.99-1.53ZM73.98,59.15c1.07-.61,2.22-1.01,3.51-.73,1.33.28,2.18,1.38,2.18,2.88,0,.66-.03,1.33.02,1.99.02.3.19.59.33.87.33.69.27,1.32-.18,1.63-.7.49-1.44.48-1.99-.11-1.33-1.44-2.72-2.82-4.09-4.22-.04-.04-.08-.07-.11-.11-.8-.99-.75-1.58.33-2.2ZM73.66,64.43c.42.7,1.11,1.24,1.69,1.84.73.76.95,1.8.4,2.43-.32.37-.8.63-1.25.86-2.37,1.2-4.63,2.62-7.17,3.47-.23.08-.46.16-.7.2-.17.03-.36,0-.61,0-.58.14-.95-.21-1.14-.77-.24-.69-.48-1.38-.63-2.09-.1-.47.2-.85.59-1.1.71-.45,1.46-.82,2.14-1.31.75-.53,1.46-1.13,2.15-1.75.75-.66,1.43-1.39,2.18-2.05.64-.56,1.69-.85,2.35.26ZM70,54.47c.67-.14,1.56.57,1.73,1.34.08.38.11.76.14,1.04-.05,1.7-.59,3.09-1.62,4.29-1.54,1.8-3.35,3.3-5.24,4.69-.48.35-1.05.53-1.69.35-.47-.13-.54-.37-.42-.83.33-1.27,1.14-2.27,1.85-3.33.91-1.35,1.82-2.7,2.66-4.09.47-.77.79-1.63,1.19-2.44.29-.58.8-.9,1.4-1.03ZM74.12,34.16c-.16.14-.53.11-.78.05-.24-.06-.44-.27-.65-.42-.3-.21-.43-.54-.26-.82.12-.22.44-.33.67-.49.72.09,1.29.42,1.3.9,0,.27-.09.63-.28.79ZM72.27,36.76c-.44,0-.95-.42-.96-.79,0-.41.31-.6.99-.6.72,0,1.05.19,1.05.6,0,.39-.56.8-1.08.8ZM72.63,39.9c-.2.67-.54.94-1.37.93-.29-.05-.75-.1-1.18-.22-.51-.15-.77-.62-.57-1.06.39-.87,1.59-1.6,2.56-.92.48.33.7.8.56,1.27ZM99.16,55.17c-1.11.85-2.37,1.41-3.66,1.94-.43.18-.78.06-1.1-.21-1.14-.98-2.23-2.03-3.41-2.95-1.27-.99-2.56-1.97-3.94-2.79-1.45-.87-3.03-1.53-4.54-2.3-.86-.44-1.77-.82-2.54-1.37-.76-.55-1.44-1.25-2.07-1.95-.74-.83-1.4-1.72-2.06-2.61-.77-1.03-1.03-2.26-1.08-3.51-.03-.8-.14-1.62.21-2.41.38-.86,1.04-1.46,1.68-2.1.58-.59.71-1.19.16-1.81-.92-1.04-1.93-2.01-2.93-2.99-.32-.32-.71-.58-1.09-.82-.12-.08-.39-.05-.52.03-.66.47-.88,1.22-1.19,1.93-.82,1.86-1.68,3.7-2.62,5.5-1,1.91-2.11,3.75-3.16,5.64-.42.76-.02,1.42.85,1.43.43,0,.87-.09,1.31-.15.92-.12,1.84-.3,2.77-.36.89-.06,1.79,0,2.69-.02.43,0,.83.03.97.53.17.63-.03,1.34-.49,1.53-.61.25-1.24.5-1.88.6-1.25.2-2.52.29-3.78.43,0-.04,0-.07,0-.11-.5,0-1.01.06-1.5-.01-.92-.15-1.51-.8-1.96-1.55-.48-.81-.83-1.7-1.33-2.5-.4-.64-.93-1.19-1.4-1.78-.44-.55-.92-1.07-1.31-1.65-.51-.75-.11-1.57.79-1.69,1.06-.15,2.12-.3,3.18-.43.83-.1,1.35-.65,1.86-1.23.53-.61,1.11-1.17,1.66-1.76.65-.7,1.23-1.43,1.26-2.47.02-.6.14-1.22.35-1.79.35-.94,1.22-1.26,2.09-1.48,1.04-.26,2.11-.43,3.04.26.4.29.77.77.9,1.23.43,1.52,1.31,2.75,2.33,3.87.51.56,1.29.89,1.95,1.33.12.08.26.13.35.23.13.13.34.35.3.42-.12.24-.3.57-.52.62-1.02.26-1.93.68-2.72,1.4-.86.77-.9,1.74-.76,2.73.15,1.08.67,2.04,1.41,2.83.68.72,1.51,1,2.58.85,1.06-.16,1.98-.47,2.69-1.26.37-.42.66-.91,1.03-1.33.39-.44.78-.48,1.16-.19.43.32.39.71.15,1.12-.12.2-.24.39-.35.59-.37.67-.35,1.64.44,2.39,1.18,1.11,2.38,2.19,3.53,3.33,1.2,1.19,2.67,1.96,4.14,2.72,1.13.58,2.3,1.07,3.47,1.58.69.3,1.39.56,2.08.85.18.07.34.18.5.29.7.47.71.9.05,1.41Z"/>
    <path class="cls-1" d="M169.52,56.11c-.56-.59-1.09-1.19-1.91-1.46-.47-.15-.81-.08-1.06.3-.44.69-.88,1.39-1.25,2.13-.48.97-.86,1.99-1.34,2.97-.5,1.02-1.12,1.97-2.11,2.59-1.53.95-3.06,1.89-4.62,2.79-.56.32-1.16.57-1.77.78-.25.08-.62.03-.85-.11-.11-.07-.04-.49.02-.74.12-.47.28-.94.46-1.39.44-1.1,1.07-1.94,2.3-2.4,1.21-.46,1.38-1.01.86-2.26-.13-.3-.33-.57-.51-.85-.49-.76-.46-1.46.5-1.88.78-.34,1.52-.77,2.27-1.19.25-.14.44-.34.27-.69-.23-.48-.35-1.03-.65-1.46-.58-.83-.74-1.65-.25-2.56.2-.37.44-.71.65-1.08.36-.65.46-1.36-.05-1.92-.56-.61-1.23-1.13-1.91-1.61-.84-.6-1.35-1.22-1.02-2.3.11-.35.19-.71.31-1.05.38-1.12.24-1.61-.7-2.35-.19-.15-.4-.28-.6-.41-.81-.54-1.2-1.2-.93-2.23.21-.81.23-1.66.33-2.5,0-.07-.04-.18-.1-.23-.55-.48-1.06-1.04-1.85-1.14-.89-.11-1.78-.2-2.67-.32-.86-.12-1.71-.28-2.27-1.05-.22-.3-.43-.6-.62-.91-.53-.9-1.28-1.52-2.27-1.85-1.22-.41-2.45-.8-3.68-1.2-.66-.22-1.26-.5-1.66-1.12-.11-.17-.33-.25-.5-.38-.35-.28-.77-.5-1.02-.85-.48-.65-.9-1.34-1.26-2.06-.47-.93-.83-1.9-1.51-2.73-.87-1.06-1.18-1.33-2.46-.61-.86.48-1.77.77-2.78.66-.48-.05-.96,0-1.45,0-1.04,0-1.52.41-1.69,1.47-.06.36-.07.74-.12,1.1-.14,1.17-.26,2.34-.43,3.51-.14,1.01-.28,2.03-1.01,2.82-.76.82-1.51,1.64-2.31,2.4-.7.66-1.53,1.04-2.48.49-.4-.23-.77-.19-1.11.03-.43.28-.41.75-.34,1.2.02.14.09.26.14.39.35,1.06.48,2.1-.3,3.04-.3.36-.65.66-.97,1-1.03,1.09-1.79,2.32-2.02,3.84-.18,1.19-.56,2.31-1.57,3.07-1.44,1.08-2.88,2.17-4.37,3.2-1.45,1-3.05,1.75-4.74,2.21-1.28.35-2.39.94-3.24,1.93-.94,1.1-1.34,2.42,0,3.78,1.49,1.52,3.28,2.52,5.16,3.4.78.36,1.67.46,2.43.16.74-.29,1.48-.68,1.98-1.44.6-.92,1.39-1.72,2.1-2.58.97-1.19,2.07-2.24,3.44-2.94,1.03-.52,2.14-.88,3.15-1.44,1.17-.66,2.42-1.08,3.68-1.51.76-.26,1.41-.34,1.9.44.05.07.12.13.19.19.3.27.6.25.81-.09.14-.23.23-.52.26-.78.06-.59.24-.81.81-.79,1.38.06,2.76.11,4.14.22.58.05,1.14.23,1.86.37-.33.44-.52.78-.78,1.04-.97.94-1.99,1.82-2.96,2.77-1.64,1.6-3.54,2.67-5.8,3.12-1.05.21-2.07.59-2.72,1.54-.2.3-.5.62-.51.94-.02.68.1,1.36.2,2.03.07.46.27.91.29,1.38.01.29-.12.64-.31.86-.26.3-.62.52-.97.72-.96.54-1.83,1.18-2.51,2.05-.15.19-.28.48-.26.71.04.63.16,1.25.26,1.87.15.93.53,1.87.04,2.79-.33.61-.73,1.19-1.17,1.73-.58.72-1.23,1.37-1.83,2.07-.46.54-.48.85-.11,1.44.46.73.92,1.45,1.44,2.13.67.87.77,1.83.5,2.82-.27,1.01-.65,1.99-.99,2.97-.5,1.43-.11,2.56,1.12,3.46.94.68,2.01,1.27,2.74,2.13,1.5,1.76,2.88,3.63,4.18,5.54.74,1.09,1.3,2.32,1.83,3.53.62,1.42,1.21,2.87,1.4,4.43.05.36.06.77.25,1.05.72,1.03,1.32,2.07,1.14,3.41-.11.85.04,1.66.47,2.45.46.86.31,1.83.22,2.76-.09.89-.19,1.79-.25,2.68-.01.17.13.42.28.51.8.46,1.48,1.03,2.12,1.7.93.99,1.38,2.06,1.03,3.41-.18.69-.22,1.4.11,2.07.31.63.5,1.31,1.23,1.7.59.31.97.89.91,1.68-.06.84-.02,1.68,0,2.52,0,.2.02.46.13.6.52.64.99,1.4,1.66,1.84.92.61,1.6,1.35,2.12,2.3.8,1.45,1.67,2.86,2.46,4.32.94,1.74,1.86,3.49,2.73,5.26.62,1.27.99,2.62.88,4.08-.07.85,0,1.72-.01,2.57-.05,2.42-.92,4.26-3.37,5.15-1.81.66-3.61,1.26-5.58,1.15-1.1-.06-2.2-.04-3.3-.12-.96-.07-1.93-.17-2.87-.38-2.08-.46-3.93-1.41-5.59-2.77-1.5-1.23-2.46-2.76-2.99-4.6-.41-1.42-.31-2.88-.32-4.33,0-.87.24-1.67.7-2.38.7-1.07,1.46-2.1,2.18-3.16.64-.94,1.48-1.41,2.65-1.26.49.06,1,.01,1.5,0,.91,0,1.77.23,2.46.78.74.59,1.43,1.28,2.02,2.02.78.97,1.45,2.02,1.62,3.31.11.83-.6,1.47-1.39,1.2-.29-.1-.6-.23-.83-.42-.82-.67-1.65-1.35-2.4-2.09-.74-.72-1.6-.99-2.58-.81-.51.09-1.05.27-1.26.84-.26.71-.56,1.43-.7,2.17-.33,1.72.05,3.29,1.31,4.56.98.98,2.2,1.62,3.5,2.06.66.22,1.32.15,2.03-.15.9-.38,1.83-.69,2.58-1.34.73-.64,1.53-1.22,2.13-1.96,1.66-2.04,1.52-4.48,1.09-6.82-.24-1.31-1.02-2.55-1.68-3.75-.3-.54-.91-.9-1.4-1.33-2.06-1.81-4.43-2.83-7.2-2.75-1.12.03-2.26.11-3.36.34-2.68.56-4.99,1.81-6.79,3.93-1.48,1.76-2.5,3.74-2.96,6.01-.3,1.5-.37,3.02-.06,4.49.57,2.7,1.36,5.35,2.81,7.75,1.13,1.87,2.3,3.71,3.81,5.29,1.69,1.77,3.6,3.25,5.86,4.23.64.28,1.28.62,1.95.74,1.26.22,2.54.32,3.82.45.97.09,1.94.17,2.91.21.7.03,1.4.04,2.1,0,.35-.02.72-.32,1.04-.28.49.07.9,0,1.37-.13,1.26-.33,2.61-.44,3.8-.94,1.27-.53,2.66-.72,3.84-1.47.62-.39,1.38-.58,1.94-1.03,1.05-.85,2.04-1.79,2.99-2.76.39-.4.71-.94.87-1.47.62-2.09,1.15-4.21,1.73-6.31.48-1.77.86-3.57.83-5.39-.02-1.34-.25-2.69-.47-4.03-.29-1.72-.76-3.42-.97-5.15-.18-1.5-.1-3.02-.14-4.54-.02-.96-.16-1.87-1.05-2.45-.37-.24-.73-.49-1.12-.68-.44-.22-.7-.48-.62-1.02.1-.64.16-1.29.21-1.94.08-.97-.12-1.84-1.04-2.37-.5-.28-1.03-.5-1.56-.73-.49-.21-.61-.64-.54-1.06.12-.74.35-1.45.54-2.18.07-.27.26-.56.2-.79-.22-.77-.47-1.51-1.2-2.03-1.27-.9-1.48-1.31-.58-2.62.08-.11.15-.24.19-.37.2-.73.34-1.49-.25-2.09-.45-.46-1-.83-1.52-1.22-.24-.18-.43-.33-.26-.68.31-.66.55-1.36.87-2.02.29-.6.28-1.13-.13-1.66-.21-.28-.38-.59-.57-.88-.85-1.26-.77-1.79.05-3.1.72-1.15.8-2.01.03-3.14-.71-1.05-.86-2.14-.47-3.37.5-1.57,1.5-2.79,2.48-4.05.44-.57.92-1.22,1.06-1.89.19-.9.08-1.86.06-2.79-.01-.61-.09-1.22-.13-1.83,1.65-.42,1.82-.19,2.55.95,1.17,1.82,2.29,3.69,3.45,5.52.42.65.97,1.16,1.84.96.15-.04.35-.21.39-.35.13-.56.21-1.14.3-1.71.16-1.02.29-2.05.47-3.07.22-1.27.39-2.57.74-3.81.8-2.83,2.25-5.39,3.56-8.01.24-.48.6-.91.95-1.32.87-1.02,1.91-1.89,2.49-3.14.4-.86.95-1.66,1.23-2.56.38-1.21.55-2.49.86-3.73.71-2.81,1.04-5.67,1.1-8.57.01-.53.07-1.06.08-1.59,0-.13-.04-.3-.12-.39ZM126.86,147.33c-.52-.28-.92-1.05-.71-1.52.33-.73.68-1.47,1.41-1.92.18-.11.39-.18.45-.21.96.01,1.55.85,1.19,1.54-.32.62-.7,1.2-1.1,1.77-.3.43-.73.61-1.25.34ZM131.69,149.54c0,.29-.05.6-.14.88-.24.7-1.18.84-1.79.3-.83-.75-1.15-2.38-.66-3.53.17-.4.36-.8.62-1.14.28-.37.67-.6,1.18-.43.53.17.67.61.78,1.08.03.12,0,.25,0,.37,0,.82.01,1.65,0,2.47ZM134.16,150.11c-.54.13-1.23-.18-1.48-.67-.3-.58-.09-1.62.4-2.05.5-.43,1.08-.33,1.5.35.24.39.35.86.52,1.29-.09.58-.39.95-.94,1.08ZM136.35,147.73c-.7.01-1.35-.64-1.34-1.34.01-.61.63-1.21,1.24-1.2.58,0,1.24.69,1.23,1.27-.01.59-.61,1.26-1.13,1.27ZM137.77,143.3c0,.52-.65,1.13-1.19,1.14-.55.04-1.08-.5-1.13-1.2-.05-.62.53-1.27,1.08-1.27.61,0,1.24.69,1.24,1.33ZM135.23,138.54c.56-.11,1.08.59,1.08,1.05,0,.6-.6,1.3-1.16,1.31-.52.01-1.21-.67-1.21-1.19,0-.55.69-1.17,1.28-1.17ZM132.97,136.07c.6,0,1.1.54,1.08,1.15-.03.67-.59,1.28-1.16,1.27-.78-.02-1.09-.36-1.09-1.15,0-.76.46-1.26,1.17-1.26ZM129.56,134.89c.63.01,1.29.66,1.27,1.25-.02.56-.66,1.22-1.2,1.21-.55,0-1.17-.7-1.16-1.3,0-.57.57-1.18,1.09-1.17ZM126.14,135.11c.7,0,1.26.47,1.26,1.06,0,.6-.55,1.09-1.24,1.08-.68,0-1.2-.49-1.19-1.12,0-.54.56-1.03,1.17-1.03ZM122.48,136.29c.76,0,1.6.78,1.59,1.47,0,.68-.53,1.22-1.18,1.22-.74,0-1.5-.82-1.5-1.61,0-.63.45-1.07,1.09-1.07ZM118.58,139.33c.75-.48,2.27.04,2.67.83.32.62-.11,1.4-.82,1.49-.12.01-.25,0-.37,0-.01.05-.03.09-.04.14-.5-.15-1.05-.22-1.47-.48-.31-.19-.65-.65-.64-.98,0-.34.35-.79.67-.99ZM116.78,143.44c.7-.51,2.15-.71,2.94.22.36.42.4.78.02,1.2-.47.53-1.36.86-2.37.86-.43.05-.92-.01-1.08-.57-.22-.77-.13-1.26.49-1.72ZM115.98,149.53c-.09-.1.11-.51.24-.73.58-.96,1.4-1.56,2.56-1.57,1.01-.01,1.11.1,1.11,1.23.14.5-.1.86-.66,1.12-.72.32-1.37.78-2.21.77-.56,0-.76-.49-1.05-.81ZM119.35,154.46c-.48.41-1.04.41-1.37.13-.37-.32-.51-.96-.27-1.48.43-.92,1.11-1.62,2.04-2.04.68-.31,1.44.21,1.42,1.13-.07.16-.14.51-.34.75-.46.54-.95,1.06-1.49,1.52ZM123.41,155.2c-.04.15-.1.3-.18.43-.38.62-.54,1.3-.67,2.01-.18,1-.88,1.49-1.68,1.27-.57-.15-.73-.47-.63-1.05.13-.76.13-1.55.3-2.29.17-.71.52-1.37,1.2-1.77.17-.1.39-.13.44-.14,1.04,0,1.46.61,1.22,1.54ZM125.57,162.44c-.09.6-.42.75-1.27.66-.51-.06-.65-.38-.66-.85-.01-.76-.11-1.52-.09-2.28.01-.63.1-1.26.21-1.88.11-.63.86-1.25,1.48-1.18.23.03.55.29.62.51.13.39.1.83.14,1.26.02,0,.04,0,.05,0-.16,1.25-.3,2.51-.49,3.76ZM129.21,164.63c-.06.53-.5.83-1.05.83-.45,0-.89-.33-.96-.82-.08-.47-.12-.95-.11-1.42.01-1.15-.02-2.32.13-3.45.16-1.21,1.09-1.51,1.75-.86.2.2.34.53.36.82.05.71.02,1.43.02,2.14.02,0,.03,0,.05,0-.05.92-.07,1.84-.17,2.76ZM132.46,165.9c-.73.23-1.55-.29-1.62-1.1-.08-.9-.11-1.81-.16-2.71.02,0,.03,0,.05,0,0-.61.03-1.22,0-1.82-.04-.57.31-.9.74-1.03.29-.09.79,0,.98.22.25.28.39.75.41,1.14.08,1.42.11,2.84.11,4.27,0,.39.05.86-.51,1.03ZM135.78,165.98c-.55.07-.85-.36-1.09-.78-.6-1.04-.75-1.74-.82-3.35.08-.48.08-.99.26-1.43.31-.73,1.33-.81,1.66-.1.34.72.52,1.53.71,2.32.16.66.26,1.34.32,2.01.05.6-.47,1.26-1.05,1.33ZM155.91,53.48c.12.59-.49,1.04-1.2,1-.96-.06-1.31-.79-1.68-1.48-.34-.62-.53-1.29-.39-2.08.67-.01,1.36-.2,1.91.31.66.62,1.19,1.34,1.36,2.25ZM152.77,60.98c-.28.33-.64.6-.98.89-.53.45-1.01.15-1.16-.34-.17-.56-.25-1.16-.37-1.74.13-.7.21-1.38.38-2.03.23-.86.92-1.11,1.64-.56,1.59,1.21,1.68,2.38.48,3.79ZM154.41,45.88c.09.41.07.84.13,1.26.11.79-.38.93-1.1.69-.53-.18-.88-.57-1.08-1.13-.29-.8-.7-1.56-1.05-2.34-.07-.16-.11-.33-.2-.57.62.06,1.19.06,1.73.19.99.22,1.36,1.03,1.56,1.91ZM148.38,38.17c.64-.36,1.34-.51,2.08-.45.09,0,.18,0,.27,0,.14,0,.29-.01.43,0,.4.04.89-.17,1.1.37.2.52.03,1.46-.41,1.69-.35.18-.86.26-1.23.15-.78-.23-1.53-.57-2.26-.94-.5-.25-.48-.54.02-.83ZM148.27,47.43c.11.4.02.85.05,1.28.08,1.56-.28,3.02-.8,4.48-.26.73-.31,1.55-.37,2.33-.14,1.6-.82,2.99-1.62,4.33-.47.78-.98,1.54-1.52,2.27-.28.38-.72.43-1.06.09-.77-.77-1.57-1.53-2.23-2.39-1.25-1.65-2.19-3.49-2.93-5.43-.07-.19-.15-.39-.19-.59-.03-.15,0-.32,0-.38-.07-1.09.6-1.73,1.14-2.4,1.25-1.55,2.59-3.02,3.8-4.6.66-.87,1.13-1.89,1.68-2.84.19-.33.35-.7.6-.98.23-.25.56-.4.87-.57.04-.02.22.14.28.25.5.98,1.02,1.95,1.47,2.95.33.71.61,1.45.83,2.2ZM141.74,34.35c.8-.21,1.59-.46,2.39-.65.51-.12,1.03-.2,1.55-.26.32-.04.58.02.62.45.02.24.18.48.3.71.27.53.11.89-.48.97-.44.06-.88.06-1.32.09,0-.03,0-.05,0-.08-1.27.1-2.54.23-3.81.3-.3.02-.63-.08-.9-.21-.16-.08-.34-.34-.32-.51.01-.16.24-.38.41-.43.51-.16,1.05-.24,1.57-.37ZM137.59,32.18c-.01-1.18,1.27-1.76,2.19-1.61.17.03.37.05.49.15.21.19.45.42.5.67.03.16-.2.51-.38.57-.78.28-1.58.52-2.38.72-.42.1-.45-.22-.42-.49ZM124.26,38.36c.83,0,1.87,1.16,1.85,2.12-.02.84-.65,1.82-1.95,1.75-1.06-.05-1.58-.53-1.58-1.59,0-1.3.73-2.28,1.68-2.28ZM130.16,34.94c-.05-.3-.17-.63-.08-.89.16-.5.62-.76,1.12-.7.29.03.54.32.81.5.03.02.01.1.01.16.04.04.07.07.11.11-.26.26-.48.56-.78.76-.29.2-.63.44-1.02.17-.06-.04-.17-.06-.17-.11ZM133,37.12c-.05.45-.33.36-.59.41-.49.1-.89-.07-1.18-.45-.12-.16-.18-.45-.11-.61.05-.13.34-.18.52-.24.1-.03.21,0,.32,0,.95,0,1.11.17,1.03.9ZM133.62,39.28c.58.17,1,.56,1.28,1.09.2.38.1.66-.28.8-.52.19-1.05.34-1.57.51-.57-.09-1.03-.17-1.27-.77-.19-.49-.02-.87.25-1.21.41-.51.99-.59,1.59-.42ZM131.46,46.41c-.84-.26-1.14-.85-.96-1.7.15-.68.72-.58,1.17-.65.45-.07.93-.02,1.54-.02,1.4-.1,2.89.28,4.39.59.34.07.76.06,1.08-.08.61-.26.74-.73.41-1.32-1.11-1.98-2.31-3.93-3.36-5.94-.93-1.79-1.7-3.65-2.54-5.48-.22-.47-.44-.95-.73-1.39-.25-.38-.61-.46-1-.15-.88.7-1.79,1.37-2.63,2.12-.73.66-1.39,1.4-2.04,2.14-.16.18-.27.5-.23.71.04.16.36.27.57.36,1.02.43,1.71,1.21,2.32,2.1.25.37.39.72.21,1.18-.07.19-.04.42-.03.64.1,1.8-.45,3.41-1.54,4.81-.95,1.21-1.97,2.36-2.96,3.53-.11.13-.26.23-.42.32-1.43.78-2.86,1.57-4.31,2.31-.79.41-1.64.71-2.44,1.09-.61.3-1.25.59-1.79.99-1.17.87-2.29,1.8-3.41,2.73-.99.82-1.95,1.69-2.96,2.49-.21.16-.64.24-.87.14-1.19-.52-2.36-1.08-3.5-1.68-.37-.2-.75-.54-.69-1.06.07-.56.53-.76.98-.93,1.14-.44,2.31-.8,3.41-1.31,1.4-.65,2.78-1.38,4.12-2.16.78-.46,1.51-1.03,2.19-1.63,1.26-1.12,2.47-2.3,3.69-3.46.57-.54.67-1.27.33-1.98-.16-.33-.28-.68-.46-1-.23-.43-.12-.82.27-.98.29-.12.8-.12.99.06.51.47.95,1.04,1.34,1.63.52.77,1.31.92,2.12,1.06.26.05.54-.03.8.01,1.25.2,1.93-.61,2.64-1.43,1.05-1.22.93-2.68.79-4.09-.05-.45-.68-.91-1.14-1.23-.74-.53-1.56-.93-2.34-1.41-.47-.29-.45-.48-.01-.81.76-.56,1.54-1.12,2.26-1.73,1.26-1.05,1.92-2.48,2.46-4,.3-.84.85-1.17,1.73-1.19,1.09-.03,2.13.11,3.13.59.86.41,1.13,1.14,1.27,1.98.08.5.08,1.02.23,1.5.13.43.36.86.64,1.22.63.8,1.29,1.59,2,2.32.72.74,1.6,1.25,2.66,1.38.77.09,1.54.18,2.31.21.96.05,1.55,1.02,1.04,1.84-.22.36-.61.62-.87.97-.48.62-.96,1.25-1.39,1.9-.68,1.04-1.3,2.12-1.98,3.16-.63.98-1.48,1.57-2.73,1.48-1.95-.14-3.9-.18-5.79-.76ZM133.35,55.62c.37-.33.78-.41,1.18-.26.63.22,1.17.58,1.46,1.26.73,1.73,1.66,3.35,2.67,4.93.87,1.35,1.74,2.7,2.62,4.06.04.06.06.13.09.19.38.85.14,1.22-.74,1.22-.93.04-1.54-.5-2.14-1-1.21-.98-2.43-1.94-3.54-3.02-1.36-1.33-2.23-2.95-2.4-4.9-.09-.96.06-1.79.81-2.47ZM132.99,64.92c.63.57,1.25,1.16,1.91,1.69,1.22.97,2.47,1.91,3.72,2.85.29.22.62.4.91.62.64.48.8.91.53,1.72-.2.61-.48,1.2-.77,1.76-.18.35-.47.64-.95.51,0,.04-.02.08-.03.13-.82-.28-1.68-.48-2.46-.85-1.57-.74-3.09-1.56-4.63-2.35-.7-.36-1.41-.7-2.08-1.1-.82-.49-1.03-1.22-.54-2.03.39-.64.91-1.21,1.4-1.79.34-.39.73-.74,1.09-1.1.59-.59,1.29-.61,1.9-.06ZM140.16,77.87c-.06.47-.65,1.15-1.11,1.24-.46.1-.93.19-1.4.22-1.01.06-2.02.08-3.03.11-1.31.04-2.63.05-3.94.12-.9.04-1.79.16-2.73.24-.33-.05-.7-.08-1.06-.15-.61-.12-1.07-.53-1.08-1.12-.02-1.41-.2-2.85.32-4.21.26-.68.5-1.52,1.45-1.52.75,0,1.54.02,2.24.26,1.33.45,2.6,1.09,3.92,1.59.9.33,1.85.52,2.75.83,1.02.34,2.02.73,3.02,1.13.57.22.71.7.63,1.26ZM124.3,65.21c.3-.77.6-1.48.45-2.37-.11-.65-.02-1.39.2-2.02.46-1.34,1.66-1.57,2.72-1.66,1.32,0,2.28.51,3.2,1.09.6.38.55,1.11-.06,1.79-.48.54-.98,1.07-1.49,1.6-.91.95-1.84,1.88-2.73,2.85-.87.94-1.79.53-2.27-.18-.17-.26-.15-.77-.02-1.08ZM122.63,67.77c.28-.04.61.02.88.13.82.35,1.54.84,2.08,1.58.3.42.31.83,0,1.25-.5.69-.95,1.44-1.5,2.09-.57.67-1.95.54-2.45-.18-.58-.82-.9-1.74-.88-2.76-.01-1.57.77-1.94,1.88-2.11ZM119.47,77.67c.01-.42.04-.85.11-1.26.12-.67.46-1.17,1.2-1.27.94-.13,1.89-.35,2.66.49.43.47.45,1.01.41,1.58.05,0,.11.02.16.03-.24,1.07-.4,2.16-.73,3.21-.24.75-.94.9-1.68.61-1.55-.61-2.19-1.78-2.14-3.39ZM128.1,93.64c-.13.12-.57,0-.82-.12-1.76-.81-3.21-2-4.35-3.58-.65-.89-1.42-1.7-2.03-2.62-.34-.52-.47-1.18-.69-1.78.06-.99.69-1.53,1.4-1.89.79-.4,1.52-.09,2.18.46,1.83,1.54,3.04,3.48,3.82,5.71.33.95.56,1.94.76,2.93.06.28-.06.69-.25.88ZM128.21,86.8c-.51-.85-.91-1.77-1.3-2.69-.15-.34-.18-.74-.19-1.12-.02-.72.54-1.03,1.09-1.17,1.01-.25,2.05-.48,3.09-.54,1.45-.09,2.91-.02,4.37-.02,0-.04,0-.07,0-.11,1.09,0,2.18-.04,3.27.01.59.03,1.18.15,1.74.32.72.21.94.82.59,1.49-.5.92-1.35,1.44-2.19,1.99-.9.6-1.8,1.22-2.64,1.89-1.29,1.03-2.63,1.98-4.16,2.62-.74.31-1.44.21-1.97-.42-.61-.72-1.22-1.46-1.7-2.27ZM129.96,98.05c-.07-.27-.09-.55-.14-.83-.03-1.11.62-1.89,1.27-2.65.95-1.1,2.18-1.83,3.46-2.46,1.32-.65,2.46-1.56,3.69-2.34,1.43-.91,2.85-1.84,4.27-2.77.42-.27.8-.21,1.13.16.83.89.92,1.39.37,2.25-1.13,1.75-2.27,3.5-3.52,5.16-1.02,1.36-2.2,2.62-3.34,3.9-1.05,1.19-2.49,1.82-3.88,2.48-.53.25-1.07-.01-1.48-.34-.85-.67-1.54-1.48-1.84-2.56ZM131.67,104.53c.25-.21.61-.28.81-.37.56.08.97.11,1.35.21,1.01.27,1.32,1.21.72,2.08-.47.69-1.86,1.16-2.64.85-.22-.09-.38-.35-.52-.57-.47-.72-.36-1.67.29-2.21ZM131.69,111.92c-.71-1.18-.33-2.6,1.58-2.77.16-.01.32,0,.48,0,1.4-.11,1.7.74,1.58,1.94-.03.31-.1.62-.2.91-.28.84-.75,1.13-1.62,1.01-.76-.1-1.42-.42-1.83-1.09ZM133.54,117.38c-.38-.49-.72-1-.67-1.67,0-.69.12-.79.83-1,.63-.18,1.22-.08,1.77.2.94.48.95,1.68.04,2.35-.2.14-.41.27-.64.36-.49.19-.96.23-1.34-.25ZM135.54,123.33c-.81-.56-.95-1.44-.43-2.21.52-.77,1.6-.88,2.25-.24.38.38.69.8.67,1.38-.04.64-.37,1.07-.93,1.36-.6.31-1.11.02-1.56-.29ZM140.24,128.95c-.18.73-.71,1.23-1.38,1.48-.27.1-.7-.02-.97-.18-.7-.41-.94-1.26-.67-2.11.28-.92.84-1.4,1.61-1.4.92-.11,1.67,1.18,1.42,2.21ZM140.25,164.89c-.34.32-.78.36-1.14.19-1.52-.69-2.6-3.05-1.53-4.61.17-.25.49-.41.82-.67.3.24.59.36.68.56.53,1.11,1,2.25,1.51,3.37.23.51-.01.83-.35,1.15ZM145.03,164.5c-.28.12-.62.1-.93.14-1.07.15-1.68-.41-2.05-1.31-.43-1.03-.9-2.04-1.22-3.1-.24-.79.09-1.18.89-1.39.77-.2,1.37.04,1.76.69.63,1.05,1.28,2.09,1.87,3.15.51.92.4,1.52-.32,1.83ZM149.07,161.68c-.23.42-.57.73-1.13.66-.64.1-1.09-.33-1.52-.68-.72-.6-1.41-1.25-2.06-1.93-.58-.62-.39-1.55.41-2.26.5-.45,1.27-.4,1.78.2.81.93,1.56,1.91,2.34,2.85.3.37.39.76.16,1.17ZM152.27,157.46c.15.49-.42,1.09-.98,1.13-.16.01-.32,0-.48,0-1.07-.06-2.04-.32-2.92-.99-.69-.53-.81-2.07-.37-2.75.32-.49,1.09-.43,1.52-.19.29.16.54.4.82.57.36.21.72.41,1.1.58.75.32,1.11.95,1.32,1.66ZM148.02,132.47c1.01,2.57,2.06,5.11,3.09,7.67.92,2.29,1.12,4.68.96,7.12,0,.97.04,1.93-.01,2.89-.03.55-.15,1.11-.33,1.64-.08.24-.41.53-.63.54-.24,0-.64-.25-.72-.47-.48-1.42-.87-2.87-1.32-4.3-.21-.66-.46-1.32-.72-1.96-1.41-3.48-2.87-6.94-4.22-10.45-1.33-3.47-2.62-6.96-3.8-10.49-1.14-3.39-2.05-6.86-2.71-10.38-.2-1.05-.25-2.13-.33-3.2-.07-.92-.16-1.85-.1-2.77.12-1.78.29-3.57.84-5.29.23-.72.79-1.04,1.5-.83.64.18.66.78.75,1.28.38,2.28.71,4.57,1.08,6.85.2,1.24.39,2.49.67,3.72.32,1.43.7,2.84,1.13,4.24.8,2.62,1.62,5.23,2.51,7.83.73,2.14,1.55,4.25,2.38,6.36ZM147.88,73.49c-.26,1.09-.59,2.16-.84,3.24-.28,1.22-.49,2.46-.77,3.69-.1.45-.27.9-.51,1.3-.42.71-1.37.68-1.87.02-.51-.67-.71-1.45-.81-2.24-.19-1.54-.29-3.1-.42-4.64-.04-3.08,1.15-5.72,2.83-8.19.36-.54.7-1.09,1.08-1.61.41-.56,1.37-.79,2.08-.2,1.04.86,1.67,1.77,1.27,3.26-.05.18-.11.38-.23.53-1.15,1.42-1.41,3.16-1.81,4.85ZM156,87.84c-.68-.24-1.09-.76-1.46-1.32-.4-.59-.7-1.25-1.14-1.81-.53-.68-1.14-1.31-1.74-1.92-.46-.46-.99-.86-1.46-1.31-.41-.39-.49-.88-.3-1.4.17-.44.4-.52,1.35-.52,1.32-.15,2.17.77,2.88,1.72.98,1.32,1.83,2.74,2.64,4.17.28.49.31,1.16.34,1.75.02.66-.45.88-1.09.66ZM159.88,77.76c-.28.56-.61,1.11-.94,1.64-.45.71-.91.88-1.64.49-.69-.37-1.3-.88-1.98-1.29-.93-.56-1.89-1.07-2.82-1.63-.49-.29-.6-.9-.3-1.37.41-.64.88-.88,1.79-.88.01-.04.02-.09.03-.13,1.1.28,2.2.55,3.29.83.6.15,1.22.28,1.8.48,1.02.36,1.24.9.76,1.86ZM166.3,66.74c-.5,1.37-1.2,2.64-2.13,3.78-1.07,1.31-2.48,2.03-4.1,2.35-.46.09-.95.1-1.41.14-.91-.11-1.82-.22-2.73-.33-.82-.1-1.64-.17-2.45-.32-.92-.17-1.34-.68-1.29-1.43.03-.43.27-.72.65-.79.77-.15,1.56-.27,2.34-.33,2.07-.17,4.12-.45,6.02-1.32.43-.2.73-.69,1.11-1.03.69-.63,1.39-1.26,2.09-1.88.65-.58.97-.63,1.54-.27.44.27.61.77.36,1.44Z"/>
    <path class="cls-1" d="M124.52,41.07c.41-.25.47-.76.22-1.39-.45.01-1.04-.21-1.22.4-.08.26.2.67.41.94.08.11.45.14.59.05Z"/>
  </g>
</svg>