<?xml version="1.0" encoding="UTF-8"?>
<svg id="Camada_1" data-name="Camada 1" xmlns="http://www.w3.org/2000/svg" xmlns:xlink="http://www.w3.org/1999/xlink" viewBox="0 0 934.88 186.98">
  <defs>
    <style>
      .cls-1 {
        fill: url(#Gradiente_sem_nome_2);
      }

      .cls-2 {
        fill: none;
      }

      .cls-3 {
        fill: url(#Gradiente_sem_nome);
      }

      .cls-4 {
        clip-path: url(#clippath-1);
      }

      .cls-5 {
        fill: #212422;
      }

      .cls-6 {
        fill: #18478a;
      }

      .cls-7 {
        clip-path: url(#clippath-2);
      }

      .cls-8 {
        fill: url(#Gradiente_sem_nome_3);
      }

      .cls-9 {
        clip-path: url(#clippath);
      }
    </style>
    <clipPath id="clippath">
      <path class="cls-2" d="M132.04,71.94c0,24.19,7.38,43.68,16.65,43.68,9.28,0,16.67-19.62,16.68-43.67s-7.38-43.69-16.66-43.69c-9.13,0-16.67,19.62-16.67,43.68"/>
    </clipPath>
    <linearGradient id="Gradiente_sem_nome" data-name="Gradiente sem nome" x1=".19" y1="187.3" x2="1.19" y2="187.3" gradientTransform="translate(95.44 -14445.42) scale(77.51)" gradientUnits="userSpaceOnUse">
      <stop offset="0" stop-color="#2f4988"/>
      <stop offset=".05" stop-color="#2f4988"/>
      <stop offset=".95" stop-color="#363636"/>
      <stop offset="1" stop-color="#363636"/>
    </linearGradient>
    <clipPath id="clippath-1">
      <path class="cls-2" d="M66.58,72.06c0,24.19,28.35,43.69,63.43,43.69,3.09,0,6.19-.26,9.14-.53-2.28-.54-4.43-1.21-6.58-2.02-2.69-1.07-5.24-2.42-7.53-4.03-2.28-1.62-4.57-3.37-6.59-5.38-2.02-2.01-3.9-4.17-5.51-6.58-1.61-2.42-2.95-4.84-4.16-7.53-1.07-2.69-2.02-5.38-2.55-8.07-.54-2.82-.94-5.64-.94-8.47s.28-5.64.81-8.47c.54-2.83,1.34-5.51,2.42-8.2,1.07-2.69,2.42-5.24,3.9-7.53,1.61-2.42,3.37-4.57,5.38-6.72,2.02-2.02,4.17-3.9,6.59-5.51,2.42-1.61,4.84-2.95,7.53-4.17,2.69-1.21,5.38-2.01,8.2-2.55,1.21-.27,2.42-.41,3.63-.54-4.44-.67-9.01-1.07-13.71-1.07-35.08,0-63.45,19.61-63.45,43.67"/>
    </clipPath>
    <linearGradient id="Gradiente_sem_nome_2" data-name="Gradiente sem nome 2" x1=".38" y1="186.98" x2="1.38" y2="186.98" gradientTransform="translate(40.83 -14354.18) rotate(.01) scale(77.16)" gradientUnits="userSpaceOnUse">
      <stop offset="0" stop-color="#678bc7"/>
      <stop offset=".05" stop-color="#678bc7"/>
      <stop offset=".95" stop-color="#363636"/>
      <stop offset="1" stop-color="#363636"/>
    </linearGradient>
    <clipPath id="clippath-2">
      <path class="cls-2" d="M162.42,28.26c-4.01.02-7.78.28-11.55.8,2.68.14,5.37.4,7.93.94,2.82.54,5.51,1.48,8.19,2.55,2.69,1.22,5.11,2.56,7.53,4.17,2.42,1.61,4.57,3.5,6.58,5.51,2.02,2.02,3.77,4.3,5.38,6.72,1.62,2.42,2.82,4.97,3.9,7.53,1.07,2.69,1.87,5.37,2.42,8.2.54,2.82.8,5.65.8,8.47s-.27,5.64-.94,8.47c-.67,2.83-1.48,5.51-2.56,8.06-1.07,2.69-2.55,5.11-4.17,7.53-1.62,2.42-3.5,4.57-5.51,6.58-2.02,2.02-4.3,3.76-6.58,5.38-2.29,1.61-4.98,2.95-7.53,4.03-2.56,1.07-5.11,1.88-7.8,2.42,1.48,0,2.96.14,4.57.14,38.31,0,69.36-19.61,69.37-43.66-.27-24.1-31.07-43.67-69.17-43.83h-.86Z"/>
    </clipPath>
    <linearGradient id="Gradiente_sem_nome_3" data-name="Gradiente sem nome 3" x1="-.36" y1="186.98" x2=".64" y2="186.98" gradientTransform="translate(200.02 15326.35) rotate(-179.99) scale(81.58)" gradientUnits="userSpaceOnUse">
      <stop offset="0" stop-color="#999"/>
      <stop offset=".05" stop-color="#999"/>
      <stop offset=".95" stop-color="#363636"/>
      <stop offset="1" stop-color="#363636"/>
    </linearGradient>
  </defs>
  <g>
    <path class="cls-6" d="M857.59,148.12c.73-.78,1.68-1.16,2.87-1.16s2.12.38,2.86,1.18c.74.78,1.13,1.84,1.13,3.18s-.38,2.37-1.13,3.16c-.75.8-1.7,1.18-2.87,1.18s-2.15-.38-2.87-1.15c-.71-.78-1.08-1.84-1.08-3.19s.37-2.41,1.08-3.19M862.53,144.51c-.9-.59-1.99-.9-3.26-.9s-2.39.31-3.42.94c-1,.61-1.79,1.49-2.36,2.65-.57,1.18-.85,2.55-.85,4.11s.28,2.95.85,4.11c.57,1.16,1.36,2.04,2.36,2.67,1.03.61,2.15.92,3.42.92s2.36-.31,3.26-.9c.9-.61,1.55-1.42,1.93-2.43v3.14s3.8,0,3.8,0v-15.02s-3.79,0-3.79,0v3.12c-.38-1-1.02-1.82-1.93-2.41M848.26,145.19c-1.28-1.04-2.9-1.58-4.84-1.58-1.46,0-2.76.31-3.9.94-1.13.61-2.01,1.49-2.65,2.65-.63,1.18-.96,2.55-.96,4.11s.33,2.93.96,4.09c.64,1.16,1.52,2.05,2.65,2.67,1.14.63,2.44.94,3.9.94,1.94,0,3.56-.52,4.84-1.58,1.3-1.04,2.1-2.46,2.43-4.28h-4.04c-.16.8-.54,1.42-1.11,1.89s-1.3.69-2.19.69c-1.02,0-1.85-.38-2.55-1.13-.67-.75-1-1.84-1-3.29s.33-2.53,1-3.3c.7-.74,1.53-1.13,2.55-1.13.89,0,1.61.24,2.19.69.57.47.96,1.09,1.11,1.89h4.04c-.33-1.8-1.13-3.25-2.43-4.29M833.21,143.8h-3.82s0,15.02,0,15.02h3.82s0-15.02,0-15.02ZM829.6,137.99c-.43.4-.64.88-.64,1.51,0,.59.21,1.09.64,1.47.43.38,1.01.59,1.71.59s1.27-.21,1.7-.59c.44-.38.66-.89.66-1.47,0-.63-.22-1.11-.66-1.51-.43-.39-1-.58-1.7-.58s-1.28.19-1.72.57M825.93,138.76h-3.82s0,20.05,0,20.05h3.82s0-20.05,0-20.05ZM808.7,148.13c.74-.8,1.7-1.18,2.86-1.18s2.15.38,2.86,1.16c.73.78,1.09,1.84,1.09,3.19s-.36,2.41-1.09,3.19c-.71.76-1.68,1.14-2.86,1.14s-2.12-.38-2.86-1.18c-.75-.78-1.13-1.84-1.13-3.16s.38-2.4,1.13-3.17M816.16,144.54c-1.01-.63-2.15-.94-3.42-.94s-2.34.31-3.23.9c-.9.59-1.54,1.41-1.9,2.41v-8.15s-3.83,0-3.83,0v20.05s3.83,0,3.83,0v-3.14c.36,1.01,1,1.82,1.9,2.43.89.59,1.98.9,3.23.9s2.41-.31,3.42-.92c1.02-.63,1.8-1.51,2.38-2.67.57-1.16.85-2.53.85-4.11s-.28-2.94-.85-4.11c-.57-1.16-1.36-2.05-2.37-2.65M797.08,139.73v-2.93s-6.22,3.26-6.22,3.26v2.6s6.22-2.93,6.22-2.93ZM800.31,143.79h-3.82s0,7.98,0,7.98c0,1.32-.33,2.32-.97,3.03-.66.69-1.53,1.06-2.63,1.06-1.05,0-1.87-.33-2.5-.99-.61-.66-.91-1.6-.91-2.79v-8.29s-3.8,0-3.8,0v8.72c0,2.05.52,3.64,1.54,4.77,1.04,1.15,2.43,1.72,4.16,1.72,1.18,0,2.24-.28,3.16-.85.9-.57,1.56-1.37,1.96-2.37v3.03s3.82,0,3.82,0v-15.02ZM779.58,145.71c0,1.96-1.13,2.93-3.36,2.93h-2.74s0-5.88,0-5.88h2.74c1.2,0,2.05.26,2.58.76.52.5.78,1.24.78,2.19M773.48,151.71h3.15c2.19,0,3.87-.55,5.05-1.63,1.18-1.09,1.77-2.55,1.77-4.37s-.57-3.33-1.72-4.41c-1.14-1.09-2.84-1.63-5.1-1.63h-6.97s0,19.13,0,19.13h3.82s0-7.09,0-7.09ZM750.63,148.02c.75-.74,1.65-1.13,2.71-1.13s1.98.38,2.72,1.13c.73.75,1.11,1.84,1.11,3.27s-.38,2.51-1.11,3.26c-.75.76-1.65,1.13-2.72,1.13s-1.96-.36-2.71-1.13c-.74-.75-1.11-1.84-1.11-3.26s.36-2.52,1.11-3.26M757.3,144.52c-1.18-.63-2.48-.94-3.95-.94s-2.78.31-3.94.94c-1.16.61-2.08,1.49-2.76,2.65-.66,1.18-.99,2.55-.99,4.11s.33,2.93.99,4.09c.67,1.16,1.6,2.05,2.76,2.67,1.16.63,2.48.94,3.94.94s2.78-.31,3.95-.94c1.16-.63,2.08-1.51,2.74-2.67.67-1.16,1-2.51,1-4.09s-.33-2.94-1-4.11c-.66-1.16-1.58-2.05-2.74-2.65M734.46,138.9c-.28-.12-.63-.19-1.01-.19-1.8,0-2.89,1.2-3.28,3.57h1.96c.12-.85.52-1.26,1.2-1.26.23,0,.43.05.62.14.19.08.45.23.78.4.41.24.76.42,1.07.54.3.14.63.19,1.01.19.88,0,1.61-.29,2.19-.87.57-.59.93-1.49,1.13-2.67h-1.98c-.05.41-.19.73-.4.94-.21.23-.47.33-.8.33-.24,0-.45-.04-.66-.14-.21-.09-.49-.23-.8-.43-.39-.23-.74-.42-1.04-.54M732.29,148.09c.73-.78,1.68-1.16,2.88-1.16s2.1.38,2.86,1.18c.74.78,1.11,1.84,1.11,3.18s-.36,2.37-1.11,3.16c-.76.8-1.72,1.18-2.86,1.18s-2.15-.38-2.88-1.15c-.73-.78-1.07-1.84-1.07-3.19s.35-2.41,1.07-3.19M737.23,144.48c-.92-.59-1.99-.9-3.26-.9s-2.41.31-3.42.94c-1.01.61-1.81,1.49-2.38,2.65-.56,1.18-.85,2.55-.85,4.11s.3,2.95.85,4.11c.57,1.16,1.37,2.04,2.37,2.67,1.01.61,2.15.92,3.42.92s2.34-.31,3.26-.9c.91-.61,1.55-1.42,1.91-2.43v3.14s3.8,0,3.8,0v-15.02s-3.79,0-3.79,0v3.12c-.36-1-1-1.82-1.91-2.41M721.05,160.85c-.68-.47-1.49-.69-2.44-.66v-1.6s-2.31,0-2.31,0v3.42s1.79,0,1.79,0c.47,0,.83.09,1.06.25.23.16.33.38.33.66,0,.65-.45.97-1.39.97h-3.09s0,2.06,0,2.06h3.5c1,0,1.86-.24,2.55-.72.67-.47,1.02-1.2,1.02-2.19s-.33-1.72-1.02-2.19M722.96,145.16c-1.3-1.04-2.92-1.58-4.84-1.58-1.46,0-2.76.31-3.91.94-1.15.61-2.03,1.49-2.65,2.65-.64,1.18-.95,2.55-.95,4.11s.31,2.93.95,4.09c.63,1.16,1.51,2.05,2.65,2.67,1.15.63,2.44.94,3.9.94,1.92,0,3.54-.52,4.84-1.58,1.28-1.04,2.1-2.46,2.43-4.28h-4.04c-.16.8-.54,1.42-1.11,1.89-.59.47-1.32.69-2.21.69-1,0-1.86-.38-2.53-1.13-.68-.75-1.01-1.84-1.01-3.29s.33-2.53,1.01-3.3c.67-.74,1.53-1.13,2.53-1.13.89,0,1.62.24,2.2.69.57.47.95,1.09,1.11,1.89h4.04c-.33-1.8-1.14-3.25-2.43-4.29M697.25,148.08c.71-.78,1.68-1.16,2.87-1.16s2.11.38,2.86,1.18c.74.78,1.13,1.84,1.13,3.18s-.38,2.37-1.13,3.16c-.75.8-1.7,1.18-2.86,1.18s-2.15-.38-2.86-1.15c-.72-.78-1.09-1.84-1.09-3.19s.37-2.41,1.09-3.19M702.18,144.47c-.9-.59-1.98-.9-3.25-.9s-2.41.31-3.42.94c-1.02.61-1.8,1.49-2.37,2.65-.57,1.18-.85,2.55-.85,4.11s.28,2.95.85,4.11c.57,1.16,1.35,2.04,2.37,2.67,1.01.61,2.15.92,3.42.92s2.34-.31,3.25-.9c.9-.61,1.54-1.42,1.92-2.43v3.14s3.8,0,3.8,0v-15.02s-3.8,0-3.8,0v3.12c-.38-1-1.02-1.82-1.92-2.41M687.85,144.37c-.94.56-1.66,1.32-2.23,2.28v-2.88s-3.82,0-3.82,0v15.02s3.81,0,3.81,0v-7.23c0-2.6,1.4-3.9,4.22-3.9h1.11s0-4.09,0-4.09c-1.15,0-2.16.27-3.09.81M679.06,155.5h-1.49c-.68,0-1.16-.14-1.46-.43-.29-.3-.43-.8-.43-1.53v-6.56s3.37,0,3.37,0v-3.22s-3.36,0-3.36,0v-3.71s-3.82,0-3.82,0v3.71s-2.1,0-2.1,0v3.22s2.1,0,2.1,0v6.51c0,1.91.43,3.26,1.34,4.08.9.82,2.19,1.21,3.87,1.21h1.99s0-3.27,0-3.27ZM665.95,144.96c-1.11-.92-2.57-1.39-4.39-1.39s-3.12.41-4.13,1.23c-.99.81-1.49,1.87-1.49,3.17,0,1.01.26,1.81.74,2.38.5.58,1.09,1.01,1.8,1.27.7.26,1.6.52,2.72.76.8.21,1.44.38,1.87.52.45.14.81.35,1.11.63.3.26.45.63.45,1.06,0,.5-.18.92-.52,1.23-.33.31-.83.47-1.49.47-.9,0-1.63-.21-2.19-.62-.55-.43-.89-1.02-.97-1.75h-3.66c.24,1.62.96,2.88,2.13,3.75,1.18.89,2.74,1.32,4.68,1.32,1.7,0,3.05-.4,4.06-1.2,1.01-.8,1.51-1.84,1.51-3.12,0-1.02-.26-1.84-.78-2.45-.52-.6-1.13-1.04-1.84-1.31-.71-.3-1.65-.56-2.77-.82-.81-.19-1.44-.36-1.87-.5-.43-.16-.8-.35-1.09-.61-.28-.24-.43-.59-.43-.99,0-.54.19-.95.55-1.25.36-.31.87-.47,1.51-.47.81,0,1.47.23,1.97.66.5.43.83,1,.97,1.73h3.59c-.28-1.55-.95-2.77-2.06-3.69M652.91,143.76h-3.82s0,15.02,0,15.02h3.82s0-15.02,0-15.02ZM649.32,137.95c-.43.4-.66.88-.66,1.51,0,.59.23,1.09.66,1.47.43.38.99.59,1.7.59s1.26-.21,1.7-.59c.43-.38.66-.89.66-1.47,0-.63-.23-1.11-.65-1.51-.44-.39-.99-.58-1.7-.58s-1.27.19-1.7.57M644.19,145.24c-1.03-1.13-2.41-1.7-4.15-1.7-1.2,0-2.24.27-3.16.85-.91.57-1.57,1.35-1.96,2.37v-3.01s-3.82,0-3.82,0v15.02s3.81,0,3.81,0v-7.96c0-1.32.33-2.34.97-3.03.66-.71,1.53-1.06,2.6-1.06s1.91.33,2.52.99c.62.66.94,1.58.94,2.78v8.29s3.78,0,3.78,0v-8.72c0-2.06-.5-3.66-1.54-4.81M627.64,143.75h-3.83s0,15.02,0,15.02h3.83s0-15.02,0-15.02ZM624.03,137.94c-.43.4-.66.88-.66,1.51,0,.59.23,1.09.66,1.47.43.38,1.01.59,1.7.59s1.28-.21,1.72-.59c.43-.38.65-.89.65-1.47,0-.63-.21-1.11-.64-1.51-.43-.39-1-.58-1.71-.58s-1.27.19-1.7.57M618.86,145.22c-1.05-1.13-2.5-1.68-4.32-1.68-1.16,0-2.21.29-3.14.9-.92.61-1.63,1.42-2.1,2.46-.45-1.1-1.13-1.93-2.01-2.5-.9-.58-1.94-.87-3.16-.87-1.14,0-2.14.26-3,.8-.85.54-1.49,1.28-1.88,2.25v-2.84s-3.83,0-3.83,0v15.02s3.83,0,3.83,0v-7.96c0-1.28.32-2.27.94-2.93.64-.67,1.49-1,2.55-1s1.84.31,2.43.94c.59.63.89,1.51.89,2.67v8.29s3.78,0,3.78,0v-7.96c0-1.28.33-2.27.96-2.93.64-.67,1.49-1,2.55-1s1.84.31,2.43.94c.59.63.89,1.51.89,2.67v8.29s3.78,0,3.78,0v-8.72c0-2.08-.52-3.68-1.58-4.83M581.32,148.06c.73-.78,1.68-1.16,2.88-1.16s2.1.38,2.86,1.18c.74.78,1.11,1.84,1.11,3.18s-.37,2.37-1.11,3.16c-.76.8-1.72,1.18-2.86,1.18s-2.15-.38-2.88-1.15c-.73-.78-1.08-1.84-1.08-3.19s.35-2.41,1.08-3.19M586.24,144.45c-.9-.59-1.98-.9-3.24-.9s-2.41.31-3.42.94c-1.01.61-1.8,1.49-2.38,2.65-.55,1.18-.85,2.55-.85,4.11s.3,2.95.85,4.11c.57,1.16,1.37,2.04,2.38,2.67,1,.61,2.15.92,3.42.92s2.34-.31,3.24-.9c.89-.61,1.55-1.42,1.93-2.43v3.14s3.8,0,3.8,0v-20.05s-3.79,0-3.79,0v8.15c-.38-1-1.04-1.82-1.93-2.41M568.65,152.01h-5.63s2.83-8.08,2.83-8.08l2.81,8.08ZM569.7,154.9l1.31,3.85h4.04s-7.02-18.92-7.02-18.92h-4.35s-7.04,18.92-7.04,18.92h4.02s1.37-3.85,1.37-3.85h7.67ZM538.01,148.05c.73-.78,1.68-1.16,2.88-1.16s2.1.38,2.86,1.18c.74.78,1.11,1.84,1.11,3.18s-.36,2.37-1.11,3.16c-.76.8-1.72,1.18-2.86,1.18s-2.15-.38-2.88-1.15c-.73-.78-1.07-1.84-1.07-3.19s.35-2.41,1.07-3.19M542.95,144.44c-.92-.59-1.99-.9-3.26-.9s-2.41.31-3.42.94c-1.01.61-1.8,1.49-2.37,2.65-.56,1.18-.85,2.55-.85,4.11s.3,2.95.85,4.11c.57,1.16,1.37,2.04,2.37,2.67,1.01.61,2.15.92,3.42.92s2.34-.31,3.26-.9c.91-.61,1.55-1.42,1.91-2.43v3.14s3.8,0,3.8,0v-15.02s-3.79,0-3.79,0v3.12c-.36-1-1-1.82-1.91-2.41M519.69,148.04c.71-.78,1.68-1.16,2.87-1.16s2.11.38,2.86,1.18c.76.78,1.13,1.84,1.13,3.18s-.36,2.37-1.13,3.16c-.75.8-1.7,1.18-2.86,1.18s-2.15-.38-2.86-1.15c-.73-.78-1.09-1.84-1.09-3.19s.36-2.41,1.09-3.19M524.61,144.43c-.89-.59-1.96-.9-3.23-.9s-2.41.31-3.42.94c-1.02.61-1.81,1.49-2.38,2.65-.58,1.18-.85,2.55-.85,4.11s.27,2.95.85,4.11c.57,1.16,1.35,2.04,2.37,2.67,1,.61,2.15.92,3.41.92s2.34-.31,3.23-.9c.9-.61,1.54-1.42,1.94-2.43v3.14s3.8,0,3.8,0v-20.05s-3.79,0-3.79,0v8.15c-.4-1-1.04-1.82-1.94-2.41M504.49,144.92c-1.09-.92-2.57-1.39-4.39-1.39s-3.12.41-4.11,1.23c-1,.81-1.49,1.87-1.49,3.17,0,1.01.24,1.81.74,2.38.48.58,1.09,1.01,1.78,1.27.69.26,1.6.52,2.72.76.81.21,1.44.38,1.87.52.45.14.82.35,1.11.63.31.26.45.63.45,1.06,0,.5-.17.92-.5,1.23-.35.31-.85.47-1.49.47-.9,0-1.65-.21-2.2-.62-.56-.43-.88-1.02-.97-1.75h-3.66c.24,1.62.97,2.88,2.13,3.75,1.18.89,2.74,1.32,4.7,1.32,1.7,0,3.04-.4,4.04-1.2,1.01-.8,1.51-1.84,1.51-3.12,0-1.02-.26-1.84-.78-2.45-.5-.6-1.13-1.04-1.84-1.31-.71-.3-1.63-.56-2.77-.82-.82-.19-1.44-.36-1.87-.5-.43-.16-.8-.35-1.07-.61-.3-.24-.43-.59-.43-.99,0-.54.17-.95.54-1.25.36-.31.87-.47,1.51-.47.82,0,1.47.23,1.98.66.52.43.83,1,.98,1.73h3.58c-.28-1.55-.95-2.77-2.06-3.69M481.8,147.96c.75-.74,1.65-1.13,2.72-1.13s1.96.38,2.7,1.13c.74.75,1.11,1.84,1.11,3.27s-.37,2.51-1.11,3.26c-.75.76-1.65,1.13-2.71,1.13s-1.97-.36-2.72-1.13c-.73-.75-1.11-1.84-1.11-3.26s.39-2.52,1.11-3.26M488.46,144.46c-1.16-.63-2.48-.94-3.93-.94s-2.79.31-3.95.94c-1.16.61-2.08,1.49-2.74,2.65-.68,1.18-1,2.55-1,4.11s.33,2.93,1,4.09c.66,1.16,1.58,2.05,2.74,2.67,1.16.63,2.48.94,3.95.94s2.78-.31,3.93-.94c1.16-.63,2.08-1.51,2.76-2.67.66-1.16.99-2.51.99-4.09s-.33-2.94-.99-4.11c-.68-1.16-1.6-2.05-2.76-2.65M463.47,148.03c.71-.78,1.67-1.16,2.87-1.16s2.11.38,2.86,1.18c.74.78,1.13,1.84,1.13,3.18s-.38,2.37-1.13,3.16c-.75.8-1.7,1.18-2.86,1.18s-2.15-.38-2.86-1.15c-.72-.78-1.09-1.84-1.09-3.19s.37-2.41,1.09-3.19M468.38,144.42c-.89-.59-1.98-.9-3.24-.9s-2.39.31-3.42.94c-1.01.61-1.79,1.49-2.36,2.65-.57,1.18-.85,2.55-.85,4.11s.28,2.95.85,4.11c.57,1.16,1.35,2.04,2.36,2.67,1.02.61,2.15.92,3.42.92s2.36-.31,3.24-.9c.9-.61,1.54-1.42,1.94-2.43v3.14s3.8,0,3.8,0v-20.05s-3.79,0-3.79,0v8.15c-.4-1-1.04-1.82-1.94-2.41M455.78,143.71h-3.81s0,7.98,0,7.98c0,1.32-.33,2.32-.97,3.03-.66.69-1.53,1.06-2.64,1.06-1.04,0-1.87-.33-2.5-.99-.61-.66-.92-1.6-.92-2.79v-8.29s-3.78,0-3.78,0v8.72c0,2.05.5,3.64,1.54,4.77,1.02,1.15,2.41,1.72,4.15,1.72,1.18,0,2.24-.28,3.16-.85.9-.57,1.56-1.37,1.96-2.37v3.03s3.81,0,3.81,0v-15.02ZM438.68,155.45h-1.49c-.68,0-1.16-.14-1.46-.43-.29-.3-.43-.8-.43-1.53v-6.56s3.37,0,3.37,0v-3.22s-3.37,0-3.37,0v-3.71s-3.81,0-3.81,0v3.71s-2.1,0-2.1,0v3.22s2.1,0,2.1,0v6.51c0,1.91.43,3.26,1.33,4.08.9.82,2.19,1.21,3.87,1.21h1.99s0-3.27,0-3.27ZM425.57,144.9c-1.11-.92-2.57-1.39-4.39-1.39s-3.12.41-4.13,1.23c-.99.81-1.49,1.87-1.49,3.17,0,1.01.26,1.81.74,2.38.5.58,1.09,1.01,1.8,1.27.7.26,1.6.52,2.72.76.8.21,1.44.38,1.87.52.45.14.81.35,1.11.63.29.26.45.63.45,1.06,0,.5-.17.92-.52,1.23-.33.31-.83.47-1.49.47-.9,0-1.63-.21-2.19-.62-.55-.43-.88-1.02-.97-1.75h-3.66c.24,1.62.96,2.88,2.13,3.75,1.18.89,2.74,1.32,4.68,1.32,1.7,0,3.05-.4,4.06-1.2,1.01-.8,1.51-1.84,1.51-3.12,0-1.02-.26-1.84-.78-2.45-.5-.6-1.13-1.04-1.84-1.31-.71-.3-1.65-.56-2.77-.82-.81-.19-1.44-.36-1.87-.5-.43-.16-.8-.35-1.09-.61-.27-.24-.43-.59-.43-.99,0-.54.19-.95.55-1.25.37-.31.87-.47,1.51-.47.81,0,1.47.23,1.97.66.5.43.83,1,.99,1.73h3.57c-.28-1.55-.95-2.77-2.06-3.69M405.6,142.62h7.6s0-3.03,0-3.03h-11.41s0,19.13,0,19.13h11.41s0-3.07,0-3.07h-7.6s0-5.14,0-5.14h6.78s0-2.93,0-2.93h-6.78s0-4.96,0-4.96ZM388.36,147.48c.69.63,1,1.56.95,2.78h-7.28c.07-1.22.47-2.15,1.16-2.78.71-.64,1.58-.95,2.6-.95s1.87.31,2.57.95M393.02,151.93c.1-.48.14-.92.14-1.3,0-1.37-.29-2.58-.9-3.66-.61-1.08-1.47-1.92-2.58-2.53-1.11-.63-2.39-.94-3.89-.94s-2.76.31-3.9.94c-1.13.61-2.01,1.49-2.65,2.65-.63,1.18-.96,2.55-.96,4.11s.33,2.93.96,4.09c.64,1.16,1.53,2.05,2.65,2.67,1.14.63,2.44.94,3.9.94,1.25,0,2.37-.24,3.4-.71,1.02-.47,1.85-1.11,2.51-1.94.64-.83,1.07-1.77,1.27-2.83h-4.04c-.16.74-.54,1.33-1.11,1.77-.59.43-1.34.64-2.22.64-.99,0-1.82-.31-2.49-.94-.66-.64-1.03-1.63-1.08-2.96h11ZM364.93,148.01c.73-.78,1.68-1.16,2.88-1.16s2.1.38,2.85,1.18c.76.78,1.13,1.84,1.13,3.18s-.36,2.37-1.13,3.16c-.75.8-1.7,1.18-2.85,1.18s-2.15-.38-2.88-1.15c-.73-.78-1.07-1.84-1.07-3.19s.34-2.41,1.07-3.19M369.85,144.4c-.9-.59-1.97-.9-3.24-.9s-2.41.31-3.42.94c-1.01.61-1.81,1.49-2.38,2.65-.57,1.18-.85,2.55-.85,4.11s.28,2.95.85,4.11c.57,1.16,1.37,2.04,2.38,2.67,1,.61,2.15.92,3.41.92s2.34-.31,3.24-.9c.89-.61,1.53-1.42,1.93-2.43v3.14s3.8,0,3.8,0v-20.05s-3.79,0-3.79,0v8.15c-.4-1-1.04-1.82-1.93-2.41M341.7,147.93c.75-.74,1.65-1.13,2.71-1.13s1.98.38,2.7,1.13c.75.75,1.11,1.84,1.11,3.27s-.36,2.51-1.11,3.26c-.73.76-1.63,1.13-2.7,1.13s-1.96-.36-2.7-1.13c-.74-.75-1.11-1.84-1.11-3.26s.37-2.52,1.11-3.26M348.35,144.43c-1.16-.63-2.46-.94-3.94-.94s-2.78.31-3.94.94c-1.16.61-2.08,1.49-2.76,2.65-.66,1.18-1,2.55-1,4.11s.34,2.93,1,4.09c.68,1.16,1.6,2.05,2.76,2.67,1.16.63,2.48.94,3.94.94s2.78-.31,3.94-.94c1.18-.63,2.1-1.51,2.76-2.67.68-1.16,1-2.51,1-4.09s-.32-2.94-1-4.11c-.66-1.16-1.58-2.05-2.76-2.65M332.27,144.29c-.92.56-1.67,1.32-2.22,2.28v-2.88s-3.82,0-3.82,0v15.02s3.81,0,3.81,0v-7.23c0-2.6,1.41-3.9,4.2-3.9h1.11s0-4.09,0-4.09c-1.13,0-2.17.27-3.09.81M323.49,155.42h-1.49c-.69,0-1.18-.14-1.46-.43-.3-.3-.43-.8-.43-1.53v-6.56s3.35,0,3.35,0v-3.22s-3.34,0-3.34,0v-3.71s-3.84,0-3.84,0v3.71s-2.08,0-2.08,0v3.22s2.08,0,2.08,0v6.51c0,1.91.45,3.26,1.35,4.08.88.82,2.17,1.21,3.85,1.21h2.01s0-3.27,0-3.27ZM310.56,145.17c-1.03-1.13-2.41-1.7-4.15-1.7-1.18,0-2.24.27-3.16.85-.91.57-1.56,1.35-1.96,2.37v-3.01s-3.82,0-3.82,0v15.02s3.81,0,3.81,0v-7.96c0-1.32.33-2.34.97-3.03.66-.71,1.53-1.06,2.6-1.06s1.91.33,2.53.99c.61.66.92,1.58.92,2.78v8.29s3.8,0,3.8,0v-8.72c0-2.06-.52-3.66-1.56-4.81M289.95,147.45c.69.63,1.02,1.56.97,2.78h-7.3c.07-1.22.47-2.15,1.16-2.78.71-.64,1.58-.95,2.62-.95s1.86.31,2.55.95M294.63,151.91c.09-.48.14-.92.14-1.3,0-1.37-.31-2.58-.92-3.66-.61-1.08-1.45-1.92-2.57-2.53-1.11-.63-2.41-.94-3.88-.94s-2.78.31-3.92.94c-1.13.61-2.01,1.49-2.65,2.65-.63,1.18-.94,2.55-.94,4.11s.31,2.93.94,4.09c.64,1.16,1.52,2.05,2.65,2.67,1.14.63,2.45.94,3.92.94,1.23,0,2.38-.24,3.4-.71,1.01-.47,1.86-1.11,2.5-1.94.66-.83,1.08-1.77,1.28-2.83h-4.04c-.17.74-.54,1.33-1.13,1.77-.59.43-1.31.64-2.2.64-1,0-1.84-.31-2.5-.94-.68-.64-1.04-1.63-1.09-2.96h11.01ZM274.66,141.21c-1.58-1.23-3.55-1.84-5.93-1.84-1.84,0-3.47.41-4.86,1.23-1.39.81-2.46,1.98-3.24,3.45-.76,1.49-1.15,3.17-1.15,5.06s.38,3.58,1.14,5.05c.78,1.47,1.86,2.63,3.26,3.45,1.4.83,3.02,1.24,4.84,1.24,2.38,0,4.35-.61,5.93-1.84,1.58-1.23,2.62-2.9,3.13-5.01h-4.01c-.42,1.02-1.08,1.84-1.95,2.44-.89.59-1.93.88-3.16.88-1.02,0-1.93-.24-2.74-.76-.81-.5-1.44-1.21-1.89-2.17-.45-.94-.67-2.03-.67-3.28s.22-2.36.67-3.29c.45-.94,1.08-1.66,1.89-2.17.82-.5,1.72-.76,2.74-.76,1.23,0,2.27.29,3.16.9.87.59,1.53,1.41,1.95,2.43h4.01c-.5-2.11-1.55-3.78-3.12-5.01"/>
    <path class="cls-5" d="M868.3,26.67h-15.52s-.02,81.43-.02,81.43h15.52s.02-81.43.02-81.43ZM838.69,47.13h-15.52s-.01,60.96-.01,60.96h15.52s.01-60.96.01-60.96ZM824.06,23.52c-1.77,1.58-2.64,3.61-2.64,6.11s.87,4.42,2.64,6c1.75,1.58,4.07,2.36,6.93,2.36s5.17-.78,6.92-2.36c1.77-1.58,2.65-3.57,2.65-6s-.89-4.53-2.65-6.11c-1.75-1.58-4.06-2.38-6.92-2.38s-5.19.79-6.94,2.37M802.48,51.96c-4.48-3.75-10.41-5.62-17.83-5.63-7.11,0-12.68,1.67-16.72,4.96-4.04,3.29-6.06,7.59-6.06,12.87,0,4.11,1.01,7.34,3.01,9.69,2.03,2.34,4.44,4.04,7.27,5.12,2.83,1.06,6.52,2.1,11.07,3.14,3.29.8,5.84,1.5,7.65,2.08,1.8.59,3.29,1.44,4.51,2.53,1.22,1.11,1.82,2.54,1.82,4.3,0,2.05-.69,3.71-2.1,4.99-1.39,1.29-3.4,1.93-6.05,1.93-3.66,0-6.64-.85-8.91-2.58-2.27-1.72-3.59-4.09-3.95-7.1h-14.87c1.04,6.61,3.94,11.69,8.7,15.25,4.75,3.55,11.1,5.32,19.02,5.32,6.9,0,12.38-1.61,16.46-4.83,4.08-3.23,6.1-7.44,6.1-12.64,0-4.2-1.04-7.51-3.14-9.97-2.08-2.44-4.58-4.25-7.47-5.39-2.9-1.13-6.66-2.22-11.29-3.25-3.29-.8-5.83-1.49-7.59-2.08-1.75-.59-3.23-1.4-4.39-2.43-1.18-1.02-1.77-2.38-1.77-4.07,0-2.12.73-3.82,2.2-5.07,1.48-1.23,3.52-1.85,6.16-1.85,3.31,0,5.98.87,8.05,2.64,2.04,1.75,3.36,4.11,3.95,7.04h14.54c-1.11-6.24-3.9-11.22-8.37-14.96M706.3,64.6c2.93-3.16,6.82-4.73,11.66-4.73s8.57,1.6,11.62,4.79c3.03,3.19,4.56,7.49,4.56,12.92s-1.53,9.64-4.56,12.83c-3.05,3.19-6.92,4.79-11.62,4.78s-8.73-1.56-11.65-4.69c-2.93-3.12-4.4-7.42-4.4-12.93s1.48-9.82,4.41-12.97M726.34,49.97c-3.68-2.43-8.08-3.64-13.22-3.64s-9.75,1.25-13.86,3.74c-4.11,2.5-7.32,6.1-9.65,10.84-2.31,4.73-3.46,10.28-3.46,16.67s1.15,11.95,3.45,16.68c2.32,4.74,5.53,8.34,9.64,10.84,4.11,2.5,8.72,3.73,13.86,3.73,5.14,0,9.54-1.21,13.22-3.67,3.66-2.46,6.26-5.74,7.8-9.85v12.77s15.4,0,15.4,0v-60.96s-15.39,0-15.39,0v12.66c-1.55-4.11-4.15-7.39-7.8-9.8M668.11,49.57c-3.74,2.24-6.74,5.29-9.02,9.18v-11.66s-15.52,0-15.52,0v60.96s15.51,0,15.51,0v-29.38c0-10.56,5.7-15.85,17.06-15.85h4.51s0-16.62,0-16.62c-4.61,0-8.79,1.13-12.54,3.36M613.53,92.69c-2.2,1.8-5.36,2.68-9.47,2.68h-14.74s0-21.35,0-21.35h14.63c4.11,0,7.29.94,9.52,2.82,2.24,1.87,3.35,4.52,3.35,7.98s-1.09,6.07-3.3,7.87M589.32,62.93v-20.15s13.76,0,13.76,0c4.11,0,7.16.89,9.14,2.65,1.97,1.75,2.96,4.25,2.96,7.48s-1,5.7-3.02,7.42c-2.03,1.74-4.98,2.6-8.86,2.6h-13.98ZM628.45,74.64c-2.83-3.49-6.59-5.71-11.29-6.66,4.11-.95,7.44-2.96,9.97-6.05,2.52-3.07,3.78-7.04,3.79-11.88,0-6.22-2.1-11.08-6.31-14.52-4.23-3.45-10.27-5.19-18.11-5.19h-32.69s-.02,77.69-.02,77.69h33.35c8.29,0,14.62-1.88,18.97-5.66,4.37-3.78,6.56-8.93,6.56-15.45,0-4.7-1.4-8.79-4.23-12.28"/>
    <path class="cls-6" d="M508.15,64.29c3.03-3.19,6.9-4.79,11.61-4.79s8.74,1.58,11.67,4.74c2.93,3.16,4.4,7.47,4.4,12.97s-1.48,9.82-4.41,12.94c-2.93,3.12-6.83,4.68-11.67,4.68s-8.57-1.59-11.6-4.79c-3.05-3.19-4.58-7.48-4.58-12.84s1.53-9.73,4.58-12.92M538.46,49.71c-4.11-2.5-8.74-3.75-13.87-3.75s-9.51,1.21-13.15,3.64c-3.63,2.41-6.21,5.69-7.76,9.8v-12.66s-15.52,0-15.52,0l-.02,90.01h15.52s0-41.81,0-41.81c1.54,4.11,4.13,7.39,7.75,9.85,3.64,2.46,8.01,3.68,13.14,3.68s9.76-1.23,13.87-3.72c4.11-2.5,7.32-6.1,9.63-10.84,2.31-4.73,3.48-10.3,3.48-16.68s-1.16-11.93-3.47-16.66c-2.3-4.74-5.51-8.35-9.62-10.84M430.83,64.22c2.95-3.16,6.83-4.74,11.67-4.74s8.57,1.6,11.6,4.79c3.05,3.19,4.58,7.49,4.58,12.92s-1.53,9.64-4.58,12.83c-3.03,3.19-6.9,4.79-11.61,4.78s-8.72-1.56-11.67-4.69c-2.93-3.12-4.39-7.42-4.39-12.94s1.46-9.81,4.39-12.97M450.87,49.58c-3.66-2.43-8.07-3.64-13.2-3.64s-9.76,1.25-13.87,3.74c-4.11,2.5-7.32,6.1-9.63,10.84-2.31,4.73-3.47,10.28-3.48,16.66s1.16,11.95,3.47,16.68c2.3,4.74,5.51,8.35,9.62,10.84,4.11,2.5,8.73,3.73,13.87,3.73s9.54-1.21,13.2-3.67c3.68-2.46,6.28-5.74,7.82-9.85v12.76s15.4,0,15.4,0v-60.96s-15.38,0-15.38,0v12.66c-1.55-4.11-4.15-7.39-7.82-9.8M383.24,62c2.83,2.57,4.13,6.35,3.9,11.33h-29.59c.29-4.99,1.85-8.77,4.72-11.33,2.86-2.56,6.38-3.85,10.58-3.85s7.56,1.29,10.39,3.85M402.23,80.17c.36-1.97.54-3.75.54-5.29,0-5.57-1.21-10.55-3.67-14.91-2.46-4.35-5.95-7.79-10.46-10.29-4.51-2.5-9.78-3.75-15.78-3.75s-11.24,1.25-15.85,3.74c-4.63,2.5-8.22,6.1-10.79,10.84-2.56,4.73-3.85,10.28-3.85,16.66s1.28,11.93,3.85,16.63c2.57,4.68,6.16,8.31,10.79,10.84,4.61,2.51,9.9,3.78,15.85,3.78,5.05,0,9.66-.95,13.81-2.86,4.14-1.91,7.53-4.55,10.18-7.91,2.64-3.38,4.35-7.19,5.17-11.44h-16.39c-.66,2.99-2.18,5.39-4.58,7.14-2.38,1.77-5.38,2.64-8.97,2.64-4.04,0-7.41-1.29-10.13-3.85-2.7-2.57-4.18-6.56-4.38-11.99h44.67ZM321.13,36.67c-6.38-4.98-14.41-7.48-24.09-7.48-7.49,0-14.05,1.66-19.7,5.01-5.65,3.33-10.02,8.01-13.15,14.03-3.12,6.02-4.69,12.87-4.69,20.57s1.56,14.46,4.68,20.47c3.12,6.02,7.51,10.7,13.19,14.03,5.69,3.35,12.24,5.01,19.65,5.01,9.68,0,17.71-2.49,24.09-7.47,6.38-4.99,10.61-11.78,12.66-20.36h-16.29c-1.68,4.17-4.32,7.47-7.87,9.9-3.56,2.41-7.83,3.62-12.82,3.62-4.11,0-7.8-1.02-11.12-3.07-3.29-2.06-5.86-5-7.7-8.81-1.84-3.82-2.74-8.26-2.73-13.32s.9-9.61,2.74-13.42c1.84-3.82,4.41-6.75,7.7-8.79,3.32-2.06,7.01-3.08,11.12-3.08,4.99,0,9.26,1.22,12.82,3.63,3.55,2.43,6.19,5.72,7.87,9.9h16.29c-2.05-8.58-6.28-15.36-12.66-20.36"/>
  </g>
  <g class="cls-9">
    <rect class="cls-3" x="102.55" y="35.66" width="92.32" height="72.55" transform="translate(12.02 164.71) rotate(-59.98)"/>
  </g>
  <g class="cls-4">
    <rect class="cls-1" x="66.58" y="28.39" width="77.16" height="87.36"/>
  </g>
  <g class="cls-7">
    <rect class="cls-8" x="150.86" y="28.27" width="81.58" height="87.5"/>
  </g>
</svg>