<?xml version="1.0" encoding="UTF-8"?>
<svg id="Camada_1" data-name="Camada 1" xmlns="http://www.w3.org/2000/svg" viewBox="0 0 934.88 186.98">
  <defs>
    <style>
      .cls-1 {
        fill: #ffda12;
      }
    </style>
  </defs>
  <g>
    <path d="M427.6,155c.2,0,.41-.01.62,0h.39s.43.02.43.02h.44c.47.03.93.04,1.4.05l.94.03c.78.02,1.54.04,2.32.06l.1.24c.16.35.32.7.47,1.06l.16.37c.4.89.81,1.78,1.24,2.65q.16.39.16,1.01h.3v.61h.3l.23.57.13.32q.1.33.1.94h.3c.1.23.2.47.3.71l.16.4c.14.39.23.76.3,1.16h.3l.15.39c.48,1.27.99,2.5,1.6,3.71.32.63.59,1.28.85,1.94q.15.38.4.85t.19,1.01h.3l.3.76c.71-1.38,1.37-2.78,1.99-4.2.34-.75.68-1.5,1.04-2.24.15-.34.25-.65.32-1.01h.3v-.61h.3l.03-.45c.09-.62.37-1.06.68-1.59.37-.7.58-1.46.81-2.21h.3l.06-.23c.13-.51.32-1.01.51-1.51l.12-.32c.32-.85.68-1.66,1.07-2.47.29-.61.56-1.23.83-1.85q4.43-.18,6.38-.15l.3,1.06-.54.06-.72.08-.36.04-.35.04-.32.04q-.32.04-.75.2c-.29,1.37-.32,2.64-.25,4.04l.02.58q.02.97.23,1.92c.02.3.04.6.04.9v.56s.03.3.03.3l.02.95c.04.99.06,1.97.08,2.96.06,2.21.13,4.42.28,6.62l.04.59q.06.94.27,1.86.54.19,1.06.3v.31l.31-.02c.54.02,1,.16,1.52.32l-.16.76h-9.43v-.76q1.44-.35,2.14-.3v-.31l.3-.15c.27-.49.32-.92.34-1.47,0-.27,0-.54,0-.81v-.41c0-.65-.05-1.23-.18-1.87,0-.35,0-.68,0-1.02,0-.92-.01-1.83-.06-2.74l-.02-.36c-.03-.48-.06-.89-.22-1.35,0-.39,0-.77,0-1.15,0-.94-.01-1.87-.08-2.81-.08-1.27-.09-2.53-.07-3.8l-.46.31q-.17.39-.3.85c-.2.66-.44,1.25-.75,1.86-.35.7-.63,1.42-.93,2.15h-.3l-.04.36c-.16.73-.43,1.39-.73,2.07h-.3l-.06.32c-.1.46-.25.88-.41,1.32l-.17.44-.13.34h-.3l-.06.26c-.32,1.19-.89,2.29-1.47,3.38-.28.55-.54,1.11-.76,1.69-.18.46-.37.89-.61,1.31-.3.51-.53,1.01-.75,1.57h-.3v.61h-1.06c-.04-.09-.07-.18-.11-.28-.26-.67-.53-1.32-.86-1.95-.37-.73-.67-1.47-.97-2.23-.3-.77-.67-1.47-1.09-2.18q-.17-.35-.17-.95h-.3l-.1-.29c-.32-.94-.72-1.83-1.17-2.71-.37-.72-.68-1.45-.99-2.2-.17-.41-.37-.8-.57-1.19-.34-.66-.59-1.34-.84-2.04-.18-.5-.38-.97-.59-1.45-.11-.25-.2-.51-.3-.76h-.16v.29c-.05.98-.08,1.97-.12,2.95-.01.37-.03.74-.04,1.11-.02.53-.04,1.06-.06,1.58v.51s-.04.46-.04.46v.41s-.04.31-.04.31l-.16.15c-.02.25-.03.51-.04.77v.5s-.03.54-.03.54v.55c-.02.39-.03.78-.04,1.16-.01.6-.03,1.19-.04,1.78,0,.37-.02.75-.03,1.13v.54q-.04,1.04.23,2.04l.25.42q.32.16.61.15v.31h.26c.79-.04,1.42.05,2.17.3v.76h-8.51l-.16-.76.41-.09.54-.12.53-.12q.66-.16,1.26-.43c1.01-2.23.71-5.83.89-8.24.04-.52.08-1.04.12-1.57.14-1.95.25-3.9.31-5.86v-.47s.03-.42.03-.42l.03-.31.15-.16c.04-.54.04-1.09.04-1.63v-.46q.01-.89-.27-1.72l-.23-.29v-.3h-.46v-.31l-.56-.02-.72-.04-.37-.02c-.31-.01-.62-.04-.93-.06l-.16-.16q-.01-.38,0-.76l.16-.15ZM528.48,155h.35c1.18,0,2.36.04,3.54.16l.15.16c.23.06.46.1.69.14q2.2.43,2.96.77v.31h.61v.3l.44.14q.47.16.78.32v.3l.26.11c.45.25.75.58,1.11.96l.23.21c.56.53.95,1.07,1.29,1.76l.19.38c1.23,2.57,1.26,5,1.09,7.79-.06.51-.2.93-.37,1.4-.06.24-.13.47-.18.7-.24.82-.65,1.51-1.09,2.24-.2.32-.39.66-.55,1.01h-.3v.31h-.31l-.1.25c-.26.45-.58.75-.97,1.11l-.41.42c-.11.11-.23.23-.35.34h-.3v.3l-.76.15v.31c-2.23,1.18-4.63,2.18-7.19,2.16h-.4c-.44,0-.87,0-1.31,0h-.92c-.8,0-1.6,0-2.4,0-.82,0-1.63,0-2.45,0-1.59,0-3.19,0-4.79-.01l.15-.76.55-.05c.61-.08,1.06-.22,1.58-.56q.22-.39.3-.75h.31c-.01-2.61-.03-5.21-.05-7.81,0-1.2-.01-2.42-.01-3.63,0-1.05-.01-2.11-.02-3.16,0-.56,0-1.11,0-1.68,0-.62,0-1.24-.01-1.87v-.56c0-.17,0-.35,0-.51v-.45q-.03-.48-.35-1.16l-2.43-.31v-1.06c1.21-.01,2.43-.04,3.64-.06.57,0,1.13-.02,1.7-.03q4.32-.07,6.13-.07M525.52,156.21v.31l-.49-.03q-.56,0-.99.2l-.35.27q-.11.38-.09.82v.51s0,.56,0,.56v.59c0,.53,0,1.06,0,1.6v1.68c0,.94,0,1.88,0,2.82,0,1.09,0,2.18,0,3.26s0,2.09,0,3.13v1.34c0,.62,0,1.24,0,1.86v1.07s0,.44,0,.44q.04.4.27.74.23.27.55.42l.33.1.33.11c.99.23,1.99.27,3,.27h.38c1.43-.01,2.81-.16,4.16-.63v-.3h.61v-.31l.25-.04c.69-.22,1.13-.58,1.63-1.09.47-.52.93-1.03,1.32-1.61v-.46h.31l.13-.39.16-.51.17-.51q.15-.42.3-.56l.08-.54.08-.53.16-.16c.03-.25.06-.5.07-.75q.06-.74.23-1.08c.01-.26.01-.53.01-.79v-.98s0-.5,0-.5c0-.41,0-.82,0-1.23h-.3l.04-.3c.11-1.59-.44-2.99-1.1-4.42-.31-.54-.63-1.06-1.06-1.52h-.31l-.15-.45q-.3-.29-.67-.56l-.36-.29-.34-.21h-.46v-.3l-.46-.13c-.2-.05-.4-.11-.6-.16l-.3-.08q-.75-.21-.92-.38c-1.85-.42-3.74-.34-5.62-.31M486.9,155c.39-.01.79-.02,1.19-.02h3.38c.52,0,1.01,0,1.51.17l.15.76h.3v.3h.31q.29.32.61.73l.33.42q.27.37.42.83h.3q.25.2.46.46v.45h.3v.31h.3q.23.27.5.63c.32.42.63.82,1.01,1.18l.32.32v.3h.3q.25.25.52.57l.27.32q.51.62.73.94v.3h.3v.3h.3q.4.35.76.76v.46h.3v.3h.3l.61.91.3.16v.3h.3l.05.3.1.31.46.16c.22.24.42.49.62.74.62.78,1.27,1.5,1.96,2.22q.31.39.48.8l.13.34.46.16v.3h.3v.3h.3c.21.3.42.61.61.92,0-1.97.01-3.93.02-5.88,0-.92,0-1.83,0-2.73,0-.88.01-1.76.01-2.64v-1.01c0-.47,0-.94,0-1.41v-.42c0-.88-.14-1.53-.51-2.33-.3-.35-.51-.56-.92-.76v-.31h-.37q-1.6.04-2.37-.3v-.76c.47-.13.89-.17,1.38-.17h6.64q.35.02.8.17v.76c-.63.25-1.14.34-1.82.3v.31l-.37.36q-.39.35-.49.67c-.07.42-.08.81-.08,1.23v1.16s0,.64,0,.64c0,.46,0,.92,0,1.37,0,.73,0,1.46,0,2.18-.01,2.06-.02,4.13-.03,6.19l-.02,3.42c0,.72,0,1.44,0,2.16,0,.45,0,.89,0,1.35v.63c0,.28,0,.57,0,.85v.48q-.04.39-.35.85-.39.03-.76,0v-.3h-.3q-.25-.29-.45-.61v-.3l-.61-.3v-.46l-.27-.12c-.33-.18-.55-.35-.79-.63v-.31h-.3v-.3l-.46-.15c-.16-.25-.3-.51-.45-.76l-.34-.33-.27-.28v-.3l-.28-.1-.32-.2c-.11-.25-.2-.51-.3-.76l-.46-.15c-.2-.25-.41-.5-.61-.76l-.27-.26-.19-.2v-.3h-.3v-.46h-.3v-.3l-.46-.15v-.31h-.3v-.3h-.3l-.61-.91-.34-.35-.27-.27v-.3h-.3v-.3h-.3c-.3-.44-.54-.89-.76-1.37h-.3v-.3l-.27-.11c-.44-.25-.67-.56-.99-.97-.55-.68-1.12-1.35-1.72-2l-.22-.27v-.3h-.3q-.23-.23-.48-.51l-.25-.29-.19-.26v-.3h-.3q-.32-.36-.61-.76v-.3h-.3l-.16-.61h-.3q-.25-.23-.46-.45c0,2.16.02,4.33.04,6.49,0,1.01.01,2.02.02,3.02,0,.97,0,1.94.01,2.91,0,.37,0,.74,0,1.11,0,.51,0,1.04,0,1.56v.46c0,.65.04,1.11.29,1.71l.23.38.21.34q.23.28.56.44c.64.18,1.3.23,1.97.28v.3h.76v.76h-9.13v-.76c.74-.25,1.34-.34,2.13-.3v-.31l.29-.18q.36-.27.5-.75c.25-1.2.3-2.4.3-3.62v-.49c0-.53,0-1.06,0-1.59v-3.42c0-.99,0-1.98.01-2.97v-2.28c0-.37,0-.73,0-1.09v-1.99c0-.94-.07-1.9-.51-2.76-.35-.22-.67-.32-1.06-.45v-.31l-.41.02c-.49-.01-.81-.11-1.26-.32,0-.25,0-.51,0-.76l.16-.15ZM361.92,149.83q.43-.04.92,0c.42.57.64,1.21.88,1.87l.24.65.12.33c.13.35.25.68.39,1.02l.13.34c.08.21.16.42.25.63.16.44.27.76.27,1.23h.3l.18.54.25.7.12.35c.22.63.47,1.17.82,1.75.18.42.32.86.47,1.29l.12.35c.2.57.37,1.11.47,1.71h.3l.18.49.24.66.13.32c.19.51.39,1.03.61,1.53.22.53.3.99.36,1.56h.3v.76h.3c.13.32.25.64.38.96l.21.54q.17.47.17.93h.3l.18.56c.49,1.46,1.06,2.89,1.72,4.28.15.32.29.63.42.95q.39.94,1.06,1.67l.41.29v.31h1.22v.3h.3l-.16.76h-10.18l-.16-.31.16-.45c.37-.13.74-.23,1.12-.32q.85-.2,1.61-.6c.13-.76.09-1.52-.13-2.25-.15-.37-.31-.73-.48-1.09-.23-.53-.3-.78-.3-1.37h-.3c-.13-.31-.26-.62-.38-.94l-.22-.53c-.15-.47-.2-.79-.16-1.27h-.3l-.31-1.06h-10.34l-.15.61c-.14.39-.28.77-.43,1.16-.08.22-.16.44-.25.66l-.13.32c-.2.53-.39,1.07-.58,1.61-.13.35-.26.7-.39,1.04-.3.8-.44,1.51-.35,2.36q.13.44.45.76c.76.42,1.43.54,2.28.61v.3h.61v.76h-9.12l.15-.76q.37-.21.83-.35l.45-.15q.39-.11.7-.11v-.3h.3c.16-.4.32-.8.46-1.21h.3l.05-.24q.1-.37.33-.89c.19-.44.3-.82.38-1.3h.3l.06-.25c.29-1.11.68-2.18,1.17-3.22.24-.55.42-1.13.6-1.7h.3l.06-.31c.11-.53.26-1.04.41-1.56l.17-.58.13-.44h.3l.06-.25c.32-1.22.84-2.39,1.31-3.54.4-.99.79-1.99,1.18-2.99.13-.34.25-.67.38-1,.34-.86.66-1.72.97-2.59.25-.72.53-1.42.85-2.11.13-.3.2-.58.27-.89h.3l.07-.34c.07-.35.15-.69.23-1.03h.3l.16-1.22h.3v-.3ZM361.16,156.21l-.3.46v.61h-.3q-.24,1.06-.46,2.13h-.3c-.04.12-.07.24-.11.37-.3,1.02-.66,2-1.08,2.98-.25.6-.44,1.22-.64,1.83-.26.78-.54,1.56-.93,2.27q-.18.34-.13.91h8.97c-.26-.79-.52-1.57-.82-2.35l-.18-.47c-.22-.55-.44-1.1-.66-1.66-.16-.38-.31-.77-.46-1.15q-.63-1.61-1.34-3.19c-.42-.88-.68-1.8-.95-2.75h-.3ZM579.52,154.02h.53c1.62.02,3.08.34,4.62.82v.3h.46v.37c.03.54.05,1.07.06,1.61l.02.56.02.54v.49s.04.38.04.38l.16.16q.03.44,0,.91l-.3.31q-.48.01-.92,0l-.13-.39c-.35-.97-.73-1.83-1.33-2.67-.2-.29-.36-.58-.51-.89h-.46v-.31l-.26-.06q-.35-.09-.68-.2c-1.11-.38-2.09-.46-3.25-.28-.74.18-1.29.47-1.88.94-.46.44-.73.82-.93,1.42-.27,1.23-.16,2.3.16,3.51h.3v.61h.3v.3l.26.13c.38.2.75.39,1.11.63v.3l.25.06c.39.11.77.25,1.15.41l.42.17.31.13v.3l.32.05c.51.12.9.32,1.36.56q.73.39,1.52.61v.3l.27.05c.37.11.58.25.88.48.35.27.56.39.98.54v.3h.3v.3h.3q.25.21.46.46v.3h.3q.25.35.46.76v.61h.3l.11.94.05.28.15.16c0,.44-.02.87-.05,1.31v.37c-.09,1.35-.51,2.46-1.17,3.64-.35.5-.69.89-1.21,1.21h-.3v.3h-.3v.31h-.46v.3c-.26.13-.53.25-.79.38l-.44.21c-.44.17-.74.2-1.2.17v.3l-.3.03-.38.04-.38.04-.32.04-.15.16c-.25.01-.51.02-.77.02h-2.37q-.35-.02-.66-.18c-.2-.01-.4-.04-.61-.04-.7-.07-1.28-.28-1.92-.56q-.35-.16-.67-.25-.27-.08-.75-.36c-.68-.92-.78-2.18-.97-3.29q-.06-.49-.25-.82c-.01-.26-.01-.52,0-.78v-.75q.44-.09.92-.15.46.3.64.58.12.32.12.94h.3c.26.61.52,1.2.76,1.83h.3v.3l.46.15v.3l.32.12q.44.19.88.49c.82.53,1.64.69,2.6.76q1.55.08,3.03-.3c.25-.15.51-.3.77-.46h.46l.11-.24c.16-.3.32-.59.49-.88.53-.94.64-1.72.63-2.79l-.03-.35-.15-.16c-.04-.2-.07-.4-.1-.61-.16-.75-.49-1.25-.98-1.83-.94-.98-2.11-1.44-3.33-1.98v-.3h-.61v-.3l-.49-.06c-.48-.08-.78-.16-1.18-.4v-.3l-.23-.05c-.78-.22-1.54-.55-2.2-1.01v-.3l-.33-.11c-.51-.24-.82-.54-1.19-.96v-.3h-.3c-.74-1.38-.96-2.49-.94-4.05.04-.61.15-1.14.34-1.73h.3l.05-.34c.11-.47.28-.76.55-1.16l.24-.37.23-.27h.3v-.3h.3v-.31c.32-.23.66-.46,1-.67l.28-.18c1.55-.99,3.01-1.33,4.83-1.34M412.86,154.4l.46.15q.14.27.25.59c.04.11.08.21.12.32q.08.31.08.76h.3l.06.27c.27.96.65,1.83,1.08,2.73.28.63.49,1.27.69,1.92q.13.42.37.78c.24.41.37.79.51,1.25.23.73.53,1.42.89,2.08.22.46.37.92.52,1.4.21.63.47,1.24.71,1.86l.16.4q.67,1.66,1.37,3.3c.23.5.31.78.31,1.35h.3l.11.34c.35,1.09.77,2.14,1.26,3.16l.26.56.2.36.3.15v.31h.61v.3h.91l-.16.76h-8.66l.15-.61.16-.15c.35,0,.7,0,1.06,0v-.3h.61c.2-1.03.11-1.88-.15-2.89-.14-.36-.3-.72-.46-1.06-.13-.32-.25-.63-.37-.95l-.18-.47c-.28-.74-.55-1.49-.82-2.23h-8.82l-.15.91c-.09.36-.2.71-.3,1.06h-.31v.76h-.3l.02.33c-.02.47-.13.76-.32,1.19-.34.85-.39,1.68-.46,2.59h.3v.45h.61v.31h.76v.3h1.21v.76h-7.91l.16-.76c.5-.28.78-.3,1.37-.3v-.31l.35-.32c.47-.49.73-.97,1.02-1.57l.16-.32c.39-.82.73-1.66,1.04-2.52.14-.36.3-.71.48-1.05.25-.48.42-.97.59-1.49.18-.59.4-1.13.69-1.68.39-.74.62-1.49.84-2.3.15-.45.36-.8.61-1.21.11-.29.2-.58.28-.87.19-.58.39-1.11.7-1.63.39-.65.61-1.32.83-2.04.26-.78.59-1.54.92-2.3q.72-1.66,1.37-3.34h.3v-.61q.42-.23.91-.45M411.33,159.86l-.11.35c-.25.74-.49,1.47-.81,2.18-.22.47-.39.93-.53,1.42-.17.61-.39,1.17-.66,1.74-.29.66-.51,1.35-.74,2.04-.18.43-.36.72-.65,1.09v.3h7.3c-.13-.63-.28-1.22-.46-1.83h-.3l-.06-.33c-.27-1.31-.8-2.52-1.38-3.71-.3-.63-.54-1.24-.74-1.9-.16-.47-.35-.91-.55-1.36h-.31ZM555.93,154.42l.3.12c.21.38.39.78.56,1.18l.13.33c.09.21.18.42.26.64.1.23.2.47.3.7q.12.34.12.95h.31l.18.56c.3.9.66,1.78,1.02,2.66.13.34.27.68.41,1.01l.19.49c.2.51.4,1.02.59,1.53.32.84.68,1.66,1.04,2.49.21.5.41,1.01.6,1.52.25.66.53,1.3.83,1.94.41.87.75,1.77,1.09,2.67q.16.51.44.93c0,.25,0,.51,0,.76h.3c.1.3.2.58.3.87l.16.49c.12.36.22.7.3,1.07h.3l.16.75h.45v.31l.51-.02.56.02.46.3v.76h-8.82l.15-.76h1.37v-.3l.3-.2.31-.25c.13-.66-.06-1.36-.25-2-.47-1.42-1.04-2.8-1.71-4.13q-.16-.41-.16-1.17l-8.67.16q-.75,1.78-1.22,3.65h-.3v.75h-.3v.35q0,.41-.16.87.01.35.07.71l.04.37.04.28h.3v.3l.27.07.95.24v.3h1.06l-.16.76h-7.45v-.76c.51-.23.79-.3,1.37-.3v-.31q.21-.25.46-.45h.3l.11-.38c.17-.48.38-.92.61-1.37.29-.59.52-1.2.76-1.82.25-.64.53-1.28.82-1.92.17-.39.32-.79.47-1.2.13-.36.28-.71.42-1.06.28-.7.53-1.42.76-2.14h.3l.06-.32c.1-.46.23-.89.38-1.35l.16-.47c.17-.44.38-.8.63-1.2.1-.28.2-.56.28-.85.4-1.25.92-2.45,1.47-3.64.4-.87.7-1.75.98-2.66h.3l.06-.32c.11-.51.25-1.01.4-1.51h.3v-.61c.37-.29.6-.47,1.07-.42M554.4,159.72l-.14.37c-.3.78-.6,1.56-.91,2.33-.41,1-.75,2.03-1.11,3.05-.24.68-.48,1.35-.73,2.02-.12.35-.22.68-.3,1.04h-.3l.16.61h6.99l.16-.3c-.09-.35-.2-.71-.3-1.06h-.31v-.61h-.3l-.05-.47c-.1-.58-.26-1.03-.51-1.57-.35-.78-.68-1.58-.97-2.38-.37-1.02-.78-2.03-1.2-3.02h-.16ZM472.56,154.38h.36s.18.49.18.49l.24.65.12.31c.44,1.18.91,2.35,1.41,3.51l.22.52.47,1.06.22.51.2.47q.15.41.15,1.01h.3l.11.33c.32.99.68,1.94,1.1,2.89.17.45.25.87.32,1.34h.3v.76h.3l.3.87.16.49c.13.4.23.82.3,1.23h.3l.1.27c.7,1.97,1.46,3.91,2.3,5.83.17.39.33.8.49,1.2h.3v.31h.76v.3h.76v.76h-8.67l.16-.76h1.06v-.3h.76c.19-.82.17-1.43-.07-2.25-.37-1.16-.82-2.26-1.3-3.38l-.76-1.97h-8.66l-.61,1.83q-.31.78-.47,1.15c-.24.62-.42,1.25-.6,1.89l-.11.37c-.09.34-.16.66-.19,1q.16.54.46.92l.46.15v.31h.75v.3h1.06v.76h-7.45l-.15-.76.15-.3.49-.06q.58-.06,1.01-.37.36-.31.48-.78h.3l.06-.25c.11-.42.26-.82.41-1.23l.17-.46.13-.35h.3l.05-.23c.14-.52.33-1.02.52-1.53l.12-.33c.27-.73.6-1.41.96-2.1.27-.56.44-1.13.63-1.72.21-.64.47-1.25.74-1.87.18-.44.34-.88.48-1.33h.3l.05-.56c.04-.41.1-.64.31-.99.32-.55.51-1.11.72-1.71.08-.23.16-.45.23-.68l.11-.32c.13-.35.27-.7.41-1.05h.3l.06-.25c.11-.42.25-.84.39-1.26l.16-.47c.14-.41.3-.82.46-1.21h.31l.06-.49c.08-.5.19-.89.39-1.34h.3v-.61c.35-.35.52-.45,1.01-.47M470.94,159.86l-.11.35c-.28.87-.58,1.71-.97,2.54-.29.63-.44,1.12-.44,1.82h-.3l-.18.51c-.08.23-.16.46-.24.68l-.13.36c-.27.76-.56,1.52-.87,2.26q-.13.31-.11.74h7.15l.15-.3q-.13-.36-.34-.76c-.27-.56-.49-1.09-.66-1.69-.17-.6-.39-1.13-.66-1.7-.36-.83-.66-1.68-.97-2.53-.28-.77-.58-1.53-.87-2.29h-.46ZM388.89,155c.23,0,.47,0,.7,0l.16.15q.04.37,0,.76-.46.3-.85.37l-.43.03c-.55.04-1.08.1-1.61.22v.3h-.31c-.13.47-.17.89-.17,1.39v17.69c.02.39.08.76.17,1.14h.31v.31c.21.07.42.14.63.22l.36.12c1.04.32,2.06.3,3.13.3.32,0,.64,0,.96,0,1.09,0,2.08-.04,3.13-.34v-.3c.3-.21.61-.41.91-.61l.16-.3h.3l.13-.34c.17-.41.37-.73.62-1.1.36-.52.66-1.03.92-1.6l1.06.15c-.15,1.36-.54,2.62-1.06,3.88-.2.53-.36,1.06-.51,1.61q-.09.3-.25.45c-.23.01-.46.01-.69.01h-4.41c-.94,0-1.89,0-2.83,0h-3.23c-2.21,0-4.42,0-6.63,0v-.76l.49-.1.63-.12.32-.06c.44-.09.87-.18,1.3-.33.16-1.02.18-2.02.18-3.06v-.55c0-.5,0-.99,0-1.49,0-.31,0-.62,0-.93v-2.92c0-1.12,0-2.24,0-3.36,0-.87,0-1.73,0-2.61v-1.55c0-.58,0-1.16,0-1.73v-.51c0-.94-.04-1.88-.51-2.72l-.46-.15v-.31h-.39c-.17,0-.34.01-.51.01h-.51s-.41-.01-.41-.01l-.16-.15c0-.3,0-.61,0-.92,1.68-.03,3.37-.06,5.06-.08l2.42-.04c.61,0,1.23-.01,1.85-.03M425.26,118.53c1.16.44,2.14,1.18,2.95,2.11v.3h.3v.3h.31l.15.76h.3v.3h.3c.18.37.35.73.51,1.09l.15.31q.75,1.61.71,2.55h.3c.57,3.83.61,7.57,0,11.4l-.16.16c-.04.23-.06.46-.08.69l-.04.38-.03.3h-.3l-.16,1.83.44-.38q.25-.21.47-.38h.31v-.3h.3v-.3h.3l.15-.46h.31v-.3h.3l.12-.3.18-.31.46-.16v-.3h.3l.12-.3.18-.32.46-.15c.11-.2.2-.4.3-.61.12-.2.25-.39.38-.57l.19-.28.19-.21h.3v-.31c.2-.2.4-.4.61-.61.25-.31.51-.63.75-.95l.2-.26c.37-.49.71-.97,1.03-1.49l.3-.49h.3l.05-.25c.12-.42.3-.73.51-1.11,1.46-2.63,2.05-4.95,2.17-7.91h-.3q-.25-.36-.46-.76v-.3h-.3v-.3c-.9-.32-1.78-.41-2.73-.3-.2.09-.41.2-.61.3h-.46v.3l-.46.15-.46-.3q2.83-2.1,4.43-2.33c.52-.02.94.06,1.44.22.6.32,1.14.68,1.59,1.2q.11.33.15.61h.3c.31,1.59.34,3.41-.18,4.95-.09.23-.18.45-.27.67l-.2.51c-.5,1.31-1.09,2.53-1.78,3.75h-.3v.45h-.3l-.16.76h-.3l-.08.3c-.31.65-.76,1.18-1.28,1.68h-.3l-.04.25c-.25.78-.91,1.32-1.48,1.87l-.27.28-.29.3-.27.28-.23.2h-.3l-.13.27c-.18.33-.36.55-.63.82l-.55.55-.3.29c-.58.58-1.18,1.13-1.8,1.66-.35.3-.68.63-1,.97q-2.29,2.33-3.04,2.59v.3h-.31v.3h-.3v.3l-.61-.15c.16-.93.39-1.72.76-2.59.32-1.07.53-2.16.71-3.26l.06-.35c.09-.58.14-1.12.13-1.71l.16-.16c.01-.41.02-.82.03-1.23v-1.18c0-.4,0-.81,0-1.21,0-2.02-.11-4-.67-5.95-.04-.12-.07-.23-.1-.35-.39-1.31-.97-2.52-1.73-3.64l-.27-.42v-.3h-.31v-.3h-.3q-.39-.36-.76-.76v-.3h-.3v-.3l-.31-.05q-.45-.11-.9-.35c-.68-.3-1.37-.29-2.11-.27-.68.08-1.11.32-1.7.67h-.3v.3l-.76.3v.3l-.61.16v.3h-.3l-.14.36q-.16.4-.32.7h-.3v.61h-.3l-.06.37c-.18,1-.42,1.99-.7,2.97l-.92.15q-.1-.29-.15-.75c.11-.47.28-.92.46-1.37l.13-.38c.32-.83.66-1.66,1.23-2.35h.3v-.3h.3l.16-.46h.3v-.3h.3v-.3h.3v-.3c.28-.22.58-.42.87-.61l.49-.32q.7-.44,1.06-.59h.46v-.3c1.27-.46,2.42-.67,3.73-.29M504.08,118.2q.7.25.91.46c.01.26.01.51.01.77v.43s-.01.32-.01.32h-.3v.46l-.46.15q-.27-.11-.54-.28l-.27-.17-.25-.16c-.46-.23-.89-.22-1.4-.22-.76.11-1.34.52-1.94.98-.27.24-.51.49-.76.76h-.3v.3h-.31l-.14.36q-.16.4-.31.7h-.3v.46h-.31l-.06.26c-.09.35-.23.63-.39.95h-.3l-.06.25c-.11.44-.25.85-.39,1.28h-.3l-.05.23c-.14.51-.34.99-.54,1.47l-.12.31c-.27.66-.55,1.3-.84,1.94-.18.4-.33.81-.48,1.22-.07.2-.15.4-.23.6-.3.75-.49,1.49-.64,2.29h-.3l.03.31c-.04.47-.17.78-.36,1.19-.6,1.48-.78,3.16-1.04,4.73h-.3c.02.25.04.49.06.73.01.13.02.27.04.41q.04.42.37.84.44.08.91,0c.26-.2.51-.4.76-.61l.46.16c-.37.78-.99,1.32-1.67,1.83h-.3v.3l-.46.3h-.46v.3q-1.18.02-1.52-.15c-.33-1-.18-2.18,0-3.19.05-.2.1-.41.16-.61l.15-.76h-.3l-.11.24c-.27.51-.58,1-.96,1.44h-.3l-.12.3-.18.31-.46.16v.3h-.3v.3h-.3l-.13.3-.18.31-.46.16v.3c-.32.28-.53.44-.91.61-.51.07-1.01.08-1.52,0l-.46-.3v-.3h-.3q-.25-.29-.46-.76c-.06-.48-.05-.95-.04-1.44v-.38c0-.68.06-1.32.19-1.98h.3l.06-.35c.09-.39.2-.68.4-1.02h.3l.11-.34c.34-.75.94-1.26,1.56-1.8.39-.26.77-.49,1.18-.72q.37-.2.8-.52c.64-.39,1.23-.62,1.97-.73.82-.01,1.63.07,2.43.16l.07-.27.39-1.56h.3l.06-.34c.1-.42.23-.78.39-1.18.23-.56.44-1.11.61-1.68h.3l.06-.34c.1-.44.25-.74.48-1.12.25-.43.44-.79.53-1.28h.31l.06-.27c.16-.56.47-1.02.77-1.52l.19-.32c.16-.27.33-.52.5-.78h.31l.11-.33c.2-.44.42-.78.72-1.16l.28-.37.25-.27h.3v-.3h.3v-.3c.22-.19.44-.37.66-.56q.29-.23.66-.61.35-.35.81-.66h.46v-.3c.91-.66,1.79-.85,2.89-.61M487.54,135.39l-.45.17-.34.13v.3l-.25.11c-.81.44-1.26.97-1.73,1.73q-.18.3-.14.75h-.3c-.42.92-.5,1.93-.43,2.94.03.24.08.47.13.7h.3l.3.61c.57.04.89,0,1.42-.23l.4-.23v-.3h.3v-.3l.3-.13.31-.18.16-.46h.3v-.3h.3v-.46h.3v-.3h.31q.27-.39.54-.87l.29-.49c.19-.37.32-.66.39-1.06h.3c.26-.47.45-.82.49-1.35l-.03-.32-.46-.15v-.3c-1.05-.33-1.68-.4-2.71,0M463.49,118.06q.52.23.91.46c.04.64-.03,1.09-.3,1.67h-.3l-.15.46h-.61v-.3c-.82-.39-1.63-.48-2.52-.43-.58.14-.95.39-1.43.73h-.3v.3q-.26.25-.6.53-.45.37-.77.84h-.3l-.3.76h-.31l-.04.26c-.13.41-.32.72-.54,1.08-.37.61-.68,1.19-.93,1.85h-.3l-.04.36c-.11.49-.22.77-.45,1.2-.6,1.14-.95,2.39-1.34,3.61h-.31l-.06.46c-.08.58-.23,1.13-.39,1.71l-.18.63c-.09.32-.19.64-.28.97-.37,1.24-.68,2.45-.85,3.74-.1.67-.3,1.28-.51,1.92-.01.23-.02.45-.02.68v.35c.02.33.08.63.17.95h.31v.3l1.37-.46-.16.76h-.46v.3l-.61.16v.3q-1.07.6-1.67.65l-.3-.04v-.3h-.46c-.44-.97-.56-1.82-.46-2.89l.16-.15c.04-.23.08-.45.11-.68.29-1.67.81-3.3,1.3-4.92.07-.24.14-.47.21-.71.22-.77.48-1.51.79-2.25.2-.49.37-.99.54-1.49.3-.82.63-1.63.99-2.42l.22-.52c.3-.7.65-1.38.99-2.06.11-.2.2-.41.31-.61h.3l.05-.26c.2-.68.68-1.25,1.08-1.83l.27-.41.27-.39.24-.36.22-.25h.3l.12-.3.18-.31.46-.16c.11-.2.2-.4.3-.61q.23-.27.46-.46h.3v-.3h.3v-.3c.53-.45,1.1-.83,1.67-1.22l.31-.21c.92-.56,1.99-.53,3.04-.39"/>
    <path d="M470.63,118.06q.37.2.61.46c.08.61.03,1-.19,1.57q-.26.4-.56.57h-.32s-.23-.3-.23-.3q-.34-.35-.74-.42c-.7-.08-1.3-.11-1.97.14l-.55.26-.46.18-.3.13v.3l-.36.11-.4.19q-.16.27-.3.61c-.23.33-.49.61-.76.92h-.3v.3h-.3l-.13.32c-.19.46-.41.9-.63,1.35h-.3l-.13.33c-.18.43-.39.82-.61,1.22-.44.78-.78,1.57-1.09,2.4h-.3l-.04.36c-.18.91-.57,1.74-.95,2.59-.23.56-.38,1.1-.53,1.68-.16.61-.31,1.2-.54,1.78-.31.78-.49,1.59-.68,2.41l-.08.35c-.35,1.57-.63,3.05-.53,4.67.57.21.89.3,1.5.25l.48-.1-.16.46h-.3v.3c-.45.33-.84.58-1.37.76v.3c-.4.25-.63.3-1.11.32l-.42-.02-.3-.61h-.3c-.3-.57-.35-1.07-.34-1.71.06-.85.2-1.7.34-2.54h.3l-.03-.51c0-1.11.44-2.12.84-3.14.11-.32.17-.63.23-.96.15-.7.43-1.3.74-1.94.2-.45.35-.89.49-1.36.23-.73.53-1.37.88-2.04.32-.66.56-1.36.8-2.06h.3v-.61h.3l.16-.76h.3l.05-.26c.12-.39.29-.67.52-1.01l.26-.38.27-.39.27-.39c.47-.68.92-1.27,1.52-1.83l.41-.43.35-.33h.3l.3-.61h.3l.11-.27c.22-.39.45-.61.78-.9l.31-.27c.32-.23.54-.32.92-.38v-.3c1.12-.85,2.29-.95,3.65-.76M471.54,134.02h.61v.31h.46v.3l.45.15c-.06.37-.13.59-.37.89l-.27.28q-.99,1.06-1.64,2.33h-.31v.61h-.3v.76h-.3c.01.42.03.84.05,1.26v.36s.03.35.03.35v.32q.06.31.29.56t.58.27l.37.03.37.03.29.02q-.05.28-.16.61c-.48.37-.91.67-1.52.76v.3q-.25.16-.61.3-.46,0-.91-.15-.35-.3-.61-.76c-.24-.96-.13-1.92,0-2.89h.3v-.3l-.61.15v.46h-.3l-.11.27c-.22.39-.47.66-.8.95h-.3v.3h-.3v.3h-.3l-.16.46h-.3v.3l-.76.3v.3c-.33.2-.58.3-.97.35h-.78c-.39-.04-.64-.15-.98-.35v-.3h-.3c-.26-.63-.38-1.2-.37-1.87.16-1.09.61-2.18,1.13-3.15h.3l.3-.91h.3l.16-.61h.3v-.46c.9-.88,1.97-1.62,3.04-2.28l.29-.18c.77-.45,1.51-.53,2.39-.58.79,0,1.56.06,2.34.16v-.31ZM465.71,136.29c-.39.3-.54.46-.78.9l-.08.32h-.3l-.38.66-.21.37q-.2.35-.17.8h-.3q-.42,1.34-.46,2.73.11.46.46.76c.48.12.89.09,1.37,0,1.11-.42,1.86-1.39,2.59-2.28l.3-.46v-.45h.3c.15-.3.3-.58.45-.87l.25-.49c.17-.37.3-.68.37-1.07h.3q.21-.26.4-.58l.2-.33q.18-.29.16-.6h-.45v-.3c-1.63-.42-2.68-.03-4.02.9M506.36,134.02h.46v.31l.92.3c-.13.66-.49,1.11-.91,1.63l-.2.27c-.18.23-.37.45-.56.67h-.3l-.05.26q-.11.35-.32.7c-.25.45-.37.85-.48,1.35q-.2.86-.37,1.19c-.04.59-.02,1,.19,1.56q.23.41.56.61c.36.11.71.19,1.08.25-.31.44-.53.73-1.02.96l-.35.11v.3h-.61v.3q-.4.07-.92,0c-.39-.3-.66-.63-.91-1.06-.11-.51-.08-.99-.06-1.51v-.4c.02-.33.04-.66.06-.98l-.3.46h-.3l-.09.32c-.29.61-.71.97-1.2,1.4l-.27.25c-.23.21-.47.42-.71.61h-.3v.3c-.49.34-.86.58-1.45.66-.52,0-.97,0-1.47-.18q-.27-.18-.47-.44c-.31-.62-.5-1.14-.47-1.85.23-1.52.93-3.07,1.87-4.28h.31v-.3h.3l.11-.34c.44-.94,1.47-1.5,2.29-2.1,1.06-.73,2.12-1.13,3.42-1.25.52,0,1.02.06,1.53.13l.56.06.45-.31ZM500.28,136.3c-.33.29-.61.58-.91.91v.31h-.3v.45h-.3q-.36.65-.46,1.37h-.3v.75h-.3c-.04.32-.08.63-.11.94l-.06.53q-.02.51.21.94l.26.32q.49.18,1.06.15c.63-.16.96-.37,1.46-.8q.89-.85,1.43-1.94h.3q.27-.39.55-.88l.29-.5q.26-.43.23-.9h.3c.16-.29.3-.58.46-.87l.25-.49q.24-.47.2-1.07c-.45-.26-.82-.44-1.35-.51-1.09.13-2.03.63-2.91,1.28M516.09,134.02q.37.16.61.31c.03.42.05.8,0,1.21q-.31.46-.61.76c-.38-.17-.64-.34-.96-.62q-.4-.32-.92-.44-.56-.04-1.11.16c-.44.26-.6.37-.87.78l-.23.42c.15.35.28.59.55.86l.21.2v.3l.75.31v.3l.28.04q.33.11.56.35c.27.42.5.8.59,1.3.01.65-.12,1.21-.37,1.81h-.3l-.1.33c-.37.78-1.04,1.3-1.73,1.8h-.3v.3c-.37.23-.63.31-1.07.35h-1.03c-.48-.04-.82-.13-1.24-.35-.23-.45-.16-.87-.16-1.37h.3v-.61h.76v.3l.27.13q.33.17.79.47c.61.08,1.21.04,1.82-.09l.31-.21c.22-.45.3-.87.38-1.36q-.04-.46-.28-.75c-.16-.19-.33-.37-.51-.55l-.2-.23v-.3l-.25-.1c-.51-.29-.9-.67-1.28-1.12-.18-.55-.19-.94-.15-1.52.12-.42.28-.8.45-1.21h.3l.12-.27c.21-.38.42-.56.8-.79h.3v-.3c1.12-.67,2.21-.75,3.5-.61M445.39,133.87l.16.15c.13,1.26-.26,2.21-.76,3.35-.1.23-.2.44-.3.66-.27.61-.51,1.23-.73,1.87l-.2.56c-.15.57-.18,1.04-.14,1.62l.18.3.27.16q.36-.04.76-.16c.3-.05.61-.1.91-.16q-.04.29-.16.61-.31.19-.61.3v.3q-.27.25-.61.46h-.46v.3h-.3v.3q-.46.3-.75.36c-.32,0-.61,0-.92-.06-.37-.34-.45-.58-.61-1.06-.02-.69-.01-1.3.16-1.97h.3v-.76h.3v-.34c0-.44.09-.7.27-1.11q.7-1.66.95-3.42c-.42-.14-.66-.14-1.11-.08l-.42.08v.31h-.46l.16-.76h.3v-.3c.45-.33.84-.58,1.37-.76v-.3c.82-.42,1.51-.56,2.43-.46M447.22,127.94c.44.2.76.39,1.06.76v.3h.3c-.09.53-.29.84-.61,1.25l-.25.33-.2.24q-.36-.04-.75-.15-.2-.32-.31-.61h-.3v-1.06h.3l.13-.27c.18-.32.36-.54.63-.79"/>
  </g>
  <path class="cls-1" d="M522.51,46.19c-.47-.89-1.09-1.81-1.89-2.46l-.42-.32c-.64-.66-1.16-1.09-2.02-1.4l-.41-.13v-.3h-.46v-.3q-.81-.33-1.58-.76c-.54-.3-1.01-.57-1.61-.72l-.3-.04v-.3c-1.52-.66-3.05-1.25-4.64-1.7-.33-.09-.66-.18-.99-.27-1.01-.42-1.99-.64-3.07-.82l-.3-.05c-1.78-.29-3.52-.42-5.31-.42h-.36c-2.28,0-4.53.19-6.77.68-.5.16-.99.3-1.52.37-.83.11-1.59.23-2.37.55-.43.19-.82.35-1.28.45.13-.73.17-1.44.17-2.18v-4.02c0-.47,0-.94-.02-1.4l-.15-.16-.06-.49c-.09-.77-.25-1.52-.42-2.27l-.14-.59c-.25-1.1-.49-2.21-.92-3.26-.16-.35-.3-.69-.42-1.05-.23-.76-.53-1.4-.94-2.08h-.3c-.06-.53-.16-.92-.39-1.4l-.28-.49q-.28-.49-.54-.85h-.3v-.46l-.16-.27-.23-.3-.25-.32-.26-.34c-.3-.41-.58-.82-.93-1.19h-.3v-.3l-.16-.26-.2-.29q-.2-.3-.4-.51h-.3v-.3q-.36-.4-.76-.76h-.3v-.3h-.3v-.31l-.46-.15v-.3h-.3v-.3c-.44-.47-.92-.85-1.52-1.13l-.31-.09v-.3h-.3v-.3h-.46v-.31l-.61-.15v-.3h-.46v-.3c-.35-.2-.64-.32-1.03-.4l-.34-.06v-.3h-.61v-.3c-.47-.21-.87-.35-1.37-.46-1.4-.11-2.6-.06-3.89.54l-.32.15c-.37.18-.74.35-1.11.52v.31h-.3q-.26.15-.89.58l-.34.24-.35.23-.32.23q-.3.2-.52.39v.3h-.3l-.3.19-.33.25q-.34.25-.59.48v.3h-.3c-.66.48-1.32,1.01-1.72,1.72l-.11.25h-.3c-.37.42-.69.79-.96,1.28l-.11.25h-.3v.3h-.31q-.15.3-.31.7l-.14.36h-.3v.3h-.31q-.15.32-.39.64c-.75,1.01-1.78,2.14-2.14,3.36l-.04.25h-.31c-1.5,3.14-2.73,6.31-2.98,9.8-.01.28-.04.56-.06.85l-.16.15c0,.31-.01.61-.01.92v.39c0,.42,0,.82,0,1.23v.86c0,.66,0,1.32,0,1.99v.54l-1.21-.16v-.3c-.73-.32-1.43-.63-2.23-.72l-.51-.04v-.3h-.91v-.3c-.82-.24-1.64-.37-2.49-.47-.39-.04-.78-.09-1.16-.14q-.34-.18-1.29-.23h-.31s-.32-.04-.32-.04c-.32-.02-.65-.04-.97-.06-2.12-.19-4.26-.12-6.38.18l-.16.16-.32.03c-2,.12-3.9.73-5.75,1.48-.42.17-.83.34-1.25.49-2.3.87-4.35,1.93-6.37,3.33-.1.07-.2.13-.29.2-.32.22-.62.44-.92.69v.3h-.3v.3h-.3c-.34.35-.58.72-.84,1.13q-.4.95-.26,2.9l.04.37c.08.97.16,1.93.3,2.89l.15.16.08.27c.56,2.59,1.32,4.9,2.54,7.25l.27.54c.23.47.47.92.73,1.37l.27.44q.27.45.52.78h.3c.12.61.39.98.75,1.47l.47.63.23.3q.2.28.39.48h.3v.3l.24.27.32.31.32.31c.37.36.73.73,1.1,1.09l.76.79c.39.4.68.69,1.18.92.11.04.23.08.33.11v.3q.31.15.7.31l.36.14v.31c.35.19.64.31,1.03.39l.35.06v.3c.51.31.93.58,1.51.73l.32.04v.3h.61v.31c.5.1.9.29,1.36.53.4.22.75.37,1.2.48l.33.06v.3c.33.07.66.17.97.3.59.26,1.06.46,1.71.5l.36-.04-.15.61h-.3l-.16.46h-.3l-.2.24c-.35.51-.66.93-1.13,1.32l-.33.26q-.14.46-.4.85c-.7,1.11-1.33,2.22-1.9,3.41l-.14.3c-.49,1.03-.92,2.09-1.28,3.17l-.17.54c-1.18,3.73-1.93,7.36-1.94,11.29v.32c0,3.4.41,6.68,1.5,9.91.12.35.24.7.35,1.06.3,1.04.68,2.04,1.09,3.05h.3v.3h.3v.3c.24.29.46.46.79.64l.27.12v.3h.76v.31l.6.06c.2.02.41.05.61.08l.16.16c.32.01.65.02.97.02h1.3c.47,0,.92,0,1.39,0,1.84.01,3.65,0,5.47-.33l.3-.16c1.35-.13,2.7-.35,3.98-.84.3-.12.6-.23.92-.33,1.62-.47,3.19-1.01,4.68-1.78.32-.17.65-.34.97-.5l1.31-.66v-.3q.45,0,.76-.16l.33-.2q.32-.2.58-.4v-.3h.46v-.3h.3c.21-.13.43-.27.63-.42l.27-.19.33-.23.34-.25q.32-.23.55-.44v-.3h.3v-.3h.3c.47-.35.82-.61,1.12-1.11l.1-.25h.3l.25-.25.27-.32c.28-.32.52-.61.72-.99l.12-.26h.3v-.3h.3c.33-.36.58-.65.73-1.11l.04-.25h.3c.32-.44.58-.85.8-1.35l.11-.32.46.16.18.27c.39.78.8,1.48,1.33,2.16h.31v.46h.3v.3q.2.32.45.61h.31l.3.76h.3v.3l.46.16v.3c.24.29.45.46.79.63l.27.13v.3l.61.3v.3l.46.16v.3h.3v.3c.36.24.73.44,1.11.64l.25.12v.3h.46v.3q.3.16.7.32l.36.14v.3c.2.16.4.31.61.44l.27.18c.78.49,1.56.92,2.38,1.32l.39.18c.63.31,1.21.58,1.91.73l.37.04v.3c.54.23,1.09.42,1.64.61l.32.1c.62.21,1.18.39,1.85.39l.45-.03v.31c.37.05.75.1,1.12.16l.46.06.46.06.43.06c.25.04.49.07.73.11q.31.16.6.18h5.08c.75,0,1.47,0,2.21-.09.27-.05.56-.09.84-.13,1.45-.19,2.78-.35,4.04-1.17v-.3h.3v-.31h.3l.12-.3.16-.39c.11-.27.23-.55.33-.82.25-.54.46-1.06.62-1.62.18-.71.35-1.43.58-2.13,1.07-3.09,1.13-6.34,1.13-9.58v-.51c0-.51,0-1.01,0-1.52v-.47s0-.87,0-.87c0-.21-.01-.43-.03-.64l-.15-.16-.04-.27c-.11-1.55-.44-3.07-.86-4.57l-.1-.35c-.16-.57-.34-1.12-.6-1.66-.23-.44-.42-.88-.6-1.35l-.12-.3-.25-.62-.18-.47h-.3c-.29-1.41-1.2-2.87-2.13-3.95h-.3l-.16-.61h-.3v-.3h-.3l-.3-.76h-.3v-.3l-.19-.27-.25-.29q-.25-.29-.48-.51h-.3v-.31c.51-.16,1.03-.3,1.56-.4.81-.16,1.61-.32,2.37-.63.58-.25,1.16-.48,1.75-.7l.34-.13.64-.24.48-.18v-.3q.46,0,.73-.12l.33-.19.46-.25.49-.28q.49-.28.87-.54v-.3q.46,0,.77-.16l.32-.2q.33-.2.58-.4v-.3q.31,0,.58-.14c1.09-.7,2.33-1.66,2.97-2.8l.11-.25h.3l.25-.25.28-.32c.28-.32.51-.61.72-.99l.12-.27h.3v-.3h.3q.15-.3.31-.7l.15-.36h.3c.14-.2.28-.39.41-.6l.2-.31.27-.42.3-.44c.25-.39.47-.73.61-1.17l.05-.25h.3c.59-1.16,1.16-2.32,1.65-3.52l.18-.43c.92-2.24,1.68-4.53,1.73-6.98v-.38c0-.59,0-1.15-.18-1.72ZM453.84,36.17c0-2.15.15-4.17.73-6.26l.11-.35c.24-.85.54-1.68.89-2.49.24-.51.47-1.03.69-1.56l.13-.3.24-.56.18-.42h.3v-.61h.3v-.46q.2-.41.46-.75h.3v-.61h.3v-.3q.2-.4.46-.76h.3l.3-.76h.3v-.3h.3v-.3c.31-.4.65-.79,1-1.16,1.29-1.3,3.02-3.29,4.81-3.81l.27-.06v-.3c.6-.3,1.09-.34,1.75-.33h.35c.42.01.83.02,1.25.03v.3h.76v.3c.66,0,.95.15,1.52.46v.3h.45v.3h.46c.21.16.42.32.63.49l.24.21c.16.13.32.27.49.42.16.13.32.27.47.41l.39.32.33.28q.29.23.5.46v.3h.3v.3h.3q.16.32.31.7l.15.36h.3v.3h.3l.16.46c.7.82,1.37,1.8,1.62,2.87l.05.32h.3c.1.25.2.51.3.76.49,1.18.89,2.36,1.19,3.6l.13.57c.67,2.92.96,5.76.66,8.75q-.16.3-.21.82c-.14,1.43-.38,2.79-.77,4.18l-.19.7-.66,2.37h-.3q.05.32,0,.75c-.33.99-.86,1.94-1.52,2.74h-.3v.3c-.16.22-.31.44-.47.64l-.2.26c-.21.27-.42.54-.63.8l-.21.27c-.44.57-.88,1.15-1.37,1.68h-.3v.3q-.36.4-.76.76h-.3v.3c-.25.29-.46.46-.79.63l-.27.13v.3h-.31v.3l-.45.3-.42.29-.47.32c-.55.37-1.06.68-1.69.91q-.25-.58-.42-1.2l-.1-.36q-.74-3.5-.97-7.08c-.04-.54-.08-1.09-.12-1.62l-.08-1.04c-.05-.7-.09-1.41-.18-2.11-.06-.47-.11-.92-.13-1.39v-.51s0-.57,0-.57v-.58c0-1.21.02-2.41.14-3.61l.04-.29h-.3c-.01.32-.04.64-.05.97l-.02.39v.39s-.04.37-.04.37c0,.2-.02.41-.05.61l-.15.16-.07.35-.08.46c-.05.35-.11.68-.16,1.02l-.08.52-.08.49c-.04.27-.09.54-.15.81l-.15.15c-.04.29-.08.57-.11.86l-.04.37c-.04.4-.08.81-.12,1.21l-.04.43c-.27,2.82-.42,5.62-.46,8.46v.39c-.77-1.54-1.54-3.04-2.51-4.46-.32-.44-.63-.86-.8-1.38l-.04-.24h-.3v-.31h-.3q-.16-.31-.32-.7l-.14-.37h-.3v-.3h-.3l-.16-.46h-.3v-.3h-.3c-.35-.61-.73-1.06-1.23-1.54l-.3-.28c-.54-.56-1.08-1.01-1.71-1.45q-.48-.32-.87-.68l-.1-.33-.05-.27-.46-.16-.16-.39-.14-.51-.16-.5-.15-.56c-.35-1.21-.37-2.42-.37-3.66v-.37ZM432.78,66.21v-.3h-.46v-.3h-.3l-.27-.16-.29-.2q-.28-.19-.51-.4v-.3h-.3v-.3h-.31q-.48-.35-.91-.76v-.3h-.3l-.25-.25-.28-.32c-.28-.32-.51-.61-.72-.99l-.11-.26h-.31c-.24-.36-.44-.73-.63-1.11l-.12-.25h-.31q-.16-.32-.31-.7l-.14-.36h-.3v-.46h-.31l-.11-.21-.18-.32c-.21-.38-.42-.75-.64-1.13l-.18-.32-.37-.65c-.33-.55-.62-.99-.68-1.63l.04-.3h-.3c-.35-.87-.63-1.72-.79-2.65-.04-.28-.08-.56-.12-.85-.15-.5-.18-.97-.18-1.49v-.32c-.02-1.18.25-2.02.79-3.06h.3v-.3q.2-.25.46-.46h.3v-.3l.61-.15v-.31c.51-.31.93-.57,1.52-.72l.31-.04v-.31c.79-.37,1.57-.74,2.4-1.01.22-.06.43-.13.64-.2.54-.29,1.01-.49,1.61-.61.41-.07.8-.15,1.2-.26,3.37-.97,7.16-.87,10.54-.07l.41.1c.66.16,1.28.32,1.9.61.44.23.87.42,1.33.59l.31.13.61.24.47.18v.3h.46c.25.16.5.31.75.47l.27.2c.33.22.65.46.97.7v.3h.3c.32.25.61.49.91.76.33.33.65.66,1.01.97.22.18.44.37.66.55v.3h.3c.24.36.44.73.63,1.11l.13.26h.3q.25.54.99,1.67c.3.45.62.87.78,1.4l.06.27h.3q.05.26.15.61c.32.51.6,1.04.84,1.6l.13.31c.09.22.19.44.28.65l.27.63c.6,1.38,1.18,2.78,1.52,4.26l-1.22-.16v-.3h-.91v-.3h-.59c-.2.01-.42,0-.63,0-.33-.17-.56-.19-.93-.22-.25-.02-.49-.05-.74-.08-.83-.22-1.64-.37-2.49-.49l-.91-.11-.44-.06c-.24-.04-.48-.06-.72-.11q-.3-.16-.62-.19c-.13,0-.25-.02-.38-.03-.29-.02-.58-.04-.87-.06-.78-.06-1.46-.1-2.19-.42l-.35-.21v.3l.91.3v.3h.61v.3q.79.11,1.52.46v.3h.46v.3h.61v.3q.47-.02.93.17l.54.21c.32.13.63.25.96.38v.3q.57-.04.92.13l.35.18c.38.2.76.4,1.13.61l.58.31.3.16c.78.42,1.57.8,2.4,1.11l.25.09v.3h.76v.3h.61l-.3.31c-.43.01-.85.01-1.27,0-1.62-.06-3.13.23-4.69.66l-.48.13c-2.33.66-4.54,1.52-6.64,2.72-.67.4-1.35.75-2.06,1.04-1.01.29-2.23.32-3.27.08q-.35-.09-1.43-.22c-.54-.06-1.04-.12-1.55-.31l-.36-.16c-1.61-.58-3.07-1.31-4.56-2.14ZM465.46,78.83q-.17.34-.22,1.25v.37s-.06.72-.06.72l-.03.55h-.3c.01.51.03,1.03.05,1.54l.02.63v.62s.04.6.04.6c.01.46.02.89.12,1.35q.13.66.16,1.33l.02.39.03.39.02.38c.03.39.02.62-.14.99q-.18.33-.51,1.1l-.13.3-.25.58-.19.44h-.3v.45h-.3q-.27.88-.76,1.68h-.3v.3c-.56.92-1.23,1.72-1.98,2.48l-.26.27c-.42.42-.8.82-1.32,1.11l-.24.1v.3h-.31v.3l-.3.16c-.37.4-.75.72-1.21,1.02-.25.17-.51.33-.76.49-1.67,1.17-3.44,2.18-5.35,2.89l-.43.16c-2.54.92-4.99,1.37-7.7,1.42h-.54c-1.24.01-2.3-.08-3.47-.51v-.3h-.3v-.3h-.45l-.31-.46c-.77-.97-1.35-1.84-1.7-3.04l-.12-.45c-.25-.81-.47-1.6-.56-2.44l-.06-.6q-.19-.56-.22-1.14l-.02-.35-.04-.73c-.02-.38-.04-.75-.06-1.13-.01-.25-.03-.49-.04-.75l-.02-.35c-.02-.39-.04-.78-.04-1.18q.15-.3.2-.76c.01-.19.02-.37.04-.55l.04-.55.03-.42h.3l-.16-.31q.06-.61.16-1.21l.15-.16c.07-.28.14-.57.2-.85.21-.99.44-1.95.85-2.89l.16-.36c.25-.56.5-1.12.76-1.68h.3q-.04-.44.13-.71l.19-.28.2-.31.21-.32c.25-.38.51-.75.78-1.11h.3v-.3c.59-.79,1.28-1.54,2.16-2l.27-.13v-.3l.92-.46v-.3l.3-.19q.45-.27.75-.49c.46-.37.81-.66,1.38-.82l.3-.02v-.3l.41-.2.53-.25c.5-.23.95-.44,1.49-.57l.31-.04v-.3c.58-.18,1.16-.37,1.71-.61,1.53-.66,3.18-.98,4.82-1.25.25-.04.51-.08.77-.13q.53-.19,1.09-.23l.33-.02c1.56-.09,3.11,0,4.66.1v.3h.91l-.15.45h-.3c-.2.58-.48,1.08-.79,1.6l-.18.3c-.32.53-.64,1.06-.99,1.58-.18.27-.37.56-.55.84l-.25.4-.53.82-.27.43-.26.4q-.22.36-.44.63h-.31v.46l-.18.3c-.39.55-.76,1.1-1.09,1.68l-.25.44h-.3q-.1.72-.46,1.37h-.3v.61h-.3v.46q-.2.41-.46.76h-.3v.3h-.3v.3h-.31v.3c.85-.44,1.59-1.07,2.21-1.79.18-.21.35-.43.53-.64h.3v-.3q.19-.24.46-.46t.61-.3l.11-.32.04-.28.61-.16v-.3h.3v-.3h.3v-.3l.46-.16v-.3h.3v-.3h.3v-.3l.46-.16v-.3h.3v-.3h.3v-.3q.2-.25.46-.46h.3v-.3h.3l.16-.46.31-.18.3-.13v-.3h.3l.16-.46.31-.18.3-.13v-.3h.3v-.3l.2-.21q.26-.25.51-.56l.24-.32.24-.33.18-.25.46.16c.07,1.9-.07,3.76-.46,5.62ZM470.77,67.91l-.3.12v.31l-.45.15c-.99.34-1.84.37-2.86.26-.39-.13-.62-.3-.94-.56-.59-.56-1.08-1.13-1.36-1.9-.27-.95-.2-1.84,0-2.81h.3q-.03-.45.16-.81c.49-.66,1.11-1.1,1.85-1.49,1.24-.5,2.51-.19,3.63.47v.3q.29.11.61.31.24.27.42.63c.41.87.44,1.68.41,2.63-.08.71-.28,1.16-.68,1.75h-.3l-.15.45-.32.18ZM498.64,81.75c.63,1.05,1.04,2.14,1.43,3.29.11.32.22.63.33.94.46,1.18.76,2.4.89,3.66l.06.58q.17.43.18.78v6.16c0,.22,0,.44-.02.66l-.16.16c-.03.25-.06.51-.07.76-.02.25-.05.51-.08.76l-.16.15-.04.27q-.45,1.76-1.32,3.38h-.3q-.1.37-.3.76l-.4.2-.36.11v.3c-2.03.97-4.13.97-6.33.92h-.36c-1.61-.06-3.15-.29-4.71-.62v-.3h-1.06v-.3c-.25,0-.51,0-.76,0q-.16-.16-.42-.23-1.9-.65-3.69-1.6v-.3q-.72-.1-1.37-.46v-.3h-.3l-.37-.22-.42-.3q-.41-.27-.74-.55v-.3h-.3v-.3h-.3c-.29-.24-.46-.46-.64-.79l-.12-.27h-.3v-.3h-.3l-.16-.46h-.3c-.21-.46-.46-.82-.77-1.22-.26-.32-.43-.56-.55-.95l-.05-.26h-.3c-.51-.99-1.03-1.97-1.41-3.02-.13-.37-.25-.74-.4-1.11-.23-.55-.35-1.04-.42-1.63-.01-.2-.04-.42-.06-.63l-.16-.3c-.46-2.63-.06-5.58.3-8.21q.28-.56.59-3.69l.04-.44c.1-1.01.15-2,.14-3.01v-.31q.29.06.61.16l.26.28c.33.46.65.92,1.04,1.33.18.17.35.34.53.51v.3h.3v.46h.3c.25.3.45.6.63.94l.13.27h.3q.16.33.82,1.04c.38.4.66.72.89,1.22l.11.33h.3v.3h.3c.63.56,1.01,1.13,1.4,1.87l.13.25h.3v.3h.3v.3h.3l.3.18q.33.27.5.68l.11.35h.3l.32.38.28.38-.3-1.06h-.3q-.32-.42-.4-.87l-.06-.35h-.3v-.61h-.3c-.32-.65-.63-1.27-.73-1.99l-.04-.44h-.3c-.3-.63-.58-1.23-.73-1.91l-.04-.37h-.3c-.33-.79-.7-1.55-1.09-2.31l-.16-.32-.16-.31c-.16-.3-.27-.57-.36-.89l-.06-.27h-.3c-.35-.61-.69-1.2-.96-1.84l-.11-.3h-.3c-.3-.44-.54-.89-.76-1.37h.45v.3h.31l.26.16c.49.32.93.59,1.49.8l.38.1v.31c.37.07.75.15,1.12.24l.39.11c.31.08.61.17.92.25,1.4.46,2.76.72,4.21.92.99.13,1.97.26,2.93.54.44.13.83.22,1.29.28,1.18.05,2.66,0,3.73.54v.3h.3l.33.22.37.3q.37.27.66.55v.3c.46.16.65.31.98.66l.24.25c1.01,1.06,1.9,2.11,2.46,3.47l.13.34h.3c.07.35.16.62.33.94ZM515.64,52.98h-.31c0,.25,0,.51,0,.76q-.15.16-.3.57l-.17.51-.16.51-.13.39h-.3v.61h-.3q.04.45-.16.8l-.22.37-.38.66h-.3l-.15.76h-.31c-.15.42-.32.78-.55,1.16l-.28.4q-.27.4-.54.71h-.3v.31q-.2.32-.46.61h-.3v.3h-.3l-.16.46-.31.18-.3.13v.3h-.3v.3h-.3v.3c-.26.34-.47.47-.87.64l-.35.12v.3c-.32.3-.62.47-1.02.64l-.35.12v.3c-.44.23-.89.45-1.35.64l-.32.12v.31l-.24.11-.35.15c-.26.11-.52.23-.78.35-.78.37-1.53.75-2.38.93-.33.06-.65.13-.97.24-2.32.87-4.77.7-7.19.47l-.39-.04c-.21-.02-.42-.05-.63-.08q-.3-.16-.75-.24c-1.76-.32-3.45-.79-5.11-1.45-.32-.14-.66-.27-.99-.4-.89-.32-1.73-.7-2.59-1.11v-.3h-.76v-.3q-.32.02-.63-.16l-.37-.22c-.22-.13-.44-.25-.66-.38v-.3h-.46v-.3h-.46q-.45-.3-1.01-.4l-.5-.06v-.3c.47-.32.96-.56,1.47-.81l.39-.18c.67-.33,1.29-.64,2.02-.8l.37-.04v-.3l.78-.32.32-.13c.5-.2.99-.42,1.52-.56l.27-.06v-.3c.49-.06.8-.18,1.24-.44.49-.28.98-.5,1.5-.7l.32-.11c.54-.2,1.09-.4,1.65-.53l.31-.05v-.3c.41-.18.83-.32,1.26-.44l.54-.11.54-.12.4-.09v-.3c-.39.24-.63.3-1.1.32l-.42-.02v.3c-.31.01-.63.03-.94.05l-.38.02h-.38s-.37.04-.37.04c-.33.01-.63.04-.96.12q-.31.08-.63.12l-.36.04c-.26.03-.52.05-.78.08l-.41.04-.39.04c-.2.01-.42.04-.62.07l-.16.16-.47.06c-.51.08-1,.18-1.5.3l-.32.08c-.4.11-.81.2-1.21.32-.56.16-1.01.3-1.59.32l-.39-.02v.3l-.39.13-.54.17c-.52.16-1.03.31-1.56.41l-.39.06v.3h-.61v-.3h.3v-.3l.61-.16v-.3h.45v-.3h.3v-.3l.4-.26c.49-.31.82-.67,1.18-1.11.18-.22.35-.43.53-.64l.28-.33q.25-.31.49-.54h.31v-.46h.3v-.3l.17-.25c.49-.63.95-1.28,1.37-1.97l.21-.35c.75-1.25,1.56-2.47,2.03-3.85l.18-.58h.3v-.61h.3c0-.25,0-.51,0-.76q.17-.17.38-.92l.08-.3.17-.59.13-.46h.3v-.46c.24-.13.48-.25.72-.37l.3-.15c.51-.27,1-.51,1.56-.66l.31-.04v-.3l.82-.27c.34-.11.67-.22,1-.33.67-.25,1.27-.49,1.99-.49l.44.03v-.3c3.55-.58,7.32-.75,10.82.21q.92.26,2.96.73l.51.12v.3h.76v.3q.58-.04.97.14c.13.06.26.13.39.2l.43.2.44.22c.52.25,1.04.51,1.56.76v.3q.88.27,1.67.76v.3h.3q.32.2.61.46v.3h.46l.16.3c.3.37.57.66.72,1.11l.04.26h.3c.32,1.57.18,3.19-.3,4.71Z"/>
</svg>