<?xml version="1.0" encoding="UTF-8"?>
<svg id="Camada_1" data-name="Camada 1" xmlns="http://www.w3.org/2000/svg" xmlns:xlink="http://www.w3.org/1999/xlink" viewBox="0 0 934.88 186.98">
  <defs>
    <style>
      .cls-1 {
        fill: url(#Gradiente_sem_nome_19);
      }
    </style>
    <linearGradient id="Gradiente_sem_nome_19" data-name="Gradiente sem nome 19" x1="187.59" y1="93.49" x2="330.57" y2="93.49" gradientUnits="userSpaceOnUse">
      <stop offset="0" stop-color="#0360e0"/>
      <stop offset=".12" stop-color="#017ce8"/>
      <stop offset=".27" stop-color="#0096f0"/>
      <stop offset=".4" stop-color="#00a6f5"/>
      <stop offset=".5" stop-color="#00acf7"/>
      <stop offset=".58" stop-color="#00a8f7"/>
      <stop offset=".65" stop-color="#009cf7"/>
      <stop offset=".72" stop-color="#0088f8"/>
      <stop offset=".8" stop-color="#006df9"/>
      <stop offset=".87" stop-color="#004afa"/>
      <stop offset=".87" stop-color="#004afb"/>
    </linearGradient>
  </defs>
  <g>
    <path d="M367.43,68.63V31.44h16.41c7.28,0,11.93,5.32,11.93,12.04s-4.65,11.65-11.93,11.65h-8.62v13.5h-7.78ZM382.61,48.8c4.48,0,6.33-2.3,6.33-5.54,0-3.08-1.85-5.38-6.33-5.38h-7.39v10.92h7.39Z"/>
    <path d="M397.67,68.63V31h7.28v37.63h-7.28Z"/>
    <path d="M425.45,68.63c-.22-.67-.39-1.62-.45-2.46-1.74,1.9-4.65,3.19-8.34,3.19-6.27,0-9.18-3.08-9.18-7.56,0-7.95,5.32-8.85,12.66-9.86,3.64-.5,4.65-1.23,4.65-3.14,0-1.79-1.79-2.86-4.65-2.86-3.3,0-4.65,1.62-4.98,4.09h-6.78c.11-5.71,3.25-9.69,12.1-9.69s11.76,3.92,11.76,10.86v17.42h-6.78ZM424.94,55.13c-.73.73-2.02,1.12-4.7,1.62-4.14.78-5.49,1.96-5.49,4.31,0,2.07,1.23,3.08,3.53,3.08,3.75,0,6.55-2.74,6.61-5.99l.06-3.02Z"/>
    <path d="M451.21,50.48h6.78v7.84c0,5.82-3.36,11.03-11.14,11.03s-11.26-5.15-11.26-11.09v-24.64h7.17v7.45h15.23v5.15h-15.23v11.31c0,3.47,1.23,5.49,4.2,5.49s4.26-1.96,4.26-5.38v-7.17Z"/>
    <path d="M478.37,68.63c-.22-.67-.39-1.62-.45-2.46-1.74,1.9-4.65,3.19-8.34,3.19-6.27,0-9.18-3.08-9.18-7.56,0-7.95,5.32-8.85,12.66-9.86,3.64-.5,4.65-1.23,4.65-3.14,0-1.79-1.79-2.86-4.65-2.86-3.3,0-4.65,1.62-4.98,4.09h-6.78c.11-5.71,3.25-9.69,12.1-9.69s11.76,3.92,11.76,10.86v17.42h-6.78ZM477.86,55.13c-.73.73-2.02,1.12-4.7,1.62-4.14.78-5.49,1.96-5.49,4.31,0,2.07,1.23,3.08,3.53,3.08,3.75,0,6.55-2.74,6.61-5.99l.06-3.02Z"/>
    <path d="M489.85,68.63v-22.4h-4.09v-5.15h4.09c0-6.72,3.86-10.08,11.7-10.08v5.88c-3.7,0-4.54,1.01-4.54,4.2h4.7v5.15h-4.7v22.4h-7.17Z"/>
    <path d="M501.27,54.85c0-8.74,5.43-14.5,14.17-14.5s14,5.71,14,14.5-5.43,14.5-14,14.5-14.17-5.94-14.17-14.5ZM522.11,54.85c0-5.6-2.24-8.34-6.66-8.34s-6.66,2.74-6.66,8.34,2.24,8.4,6.66,8.4,6.66-2.8,6.66-8.4Z"/>
    <path d="M532.24,68.63v-27.55h6.83v3.3c2.41-3.7,5.21-4.03,8.18-4.03h.95v7.45c-.67-.11-1.34-.17-2.02-.17-4.48,0-6.66,2.24-6.66,6.66v14.34h-7.28Z"/>
    <path d="M582.7,68.63v-16.69c0-3.3-1.74-5.66-4.31-5.66s-4.65,2.52-4.65,5.88v16.46h-7.28v-16.58c0-4.42-1.18-5.54-4.37-5.54-2.91,0-4.42,1.79-4.42,5.38v16.74h-7.28v-27.55h6.83v4.03c1.85-3.64,4.42-4.76,8.06-4.76s5.54,1.18,7.67,4.37c1.51-3.02,3.98-4.37,7.45-4.37,5.54,0,9.41,4.03,9.41,9.18v19.1h-7.11Z"/>
    <path d="M610.03,68.63c-.22-.67-.39-1.62-.45-2.46-1.74,1.9-4.65,3.19-8.34,3.19-6.27,0-9.18-3.08-9.18-7.56,0-7.95,5.32-8.85,12.66-9.86,3.64-.5,4.65-1.23,4.65-3.14,0-1.79-1.79-2.86-4.65-2.86-3.3,0-4.65,1.62-4.98,4.09h-6.78c.11-5.71,3.25-9.69,12.1-9.69s11.76,3.92,11.76,10.86v17.42h-6.78ZM609.53,55.13c-.73.73-2.02,1.12-4.7,1.62-4.14.78-5.49,1.96-5.49,4.31,0,2.07,1.23,3.08,3.53,3.08,3.75,0,6.55-2.74,6.61-5.99l.06-3.02Z"/>
    <path d="M368.05,137.18v-55.07h11.53v45.03h27.28v10.03h-38.81Z"/>
    <path d="M417.81,119.6c.33,6.14,3.82,10.12,9.12,10.12,3.48,0,6.55-1.74,7.3-4.56h11.11c-2.49,8.38-9.21,13.1-17.91,13.1-13.6,0-20.4-7.46-20.4-22.23,0-12.61,7.21-20.73,19.74-20.73s19.16,8.13,19.16,24.3h-28.11ZM434.81,112.8c-.17-6.05-4.15-8.96-8.38-8.96s-7.88,3.32-8.29,8.96h16.67Z"/>
    <path d="M478.35,131.71c-1.49,3.65-5.89,5.81-11.2,5.81-13.43,0-18.08-10.28-18.08-20.98,0-12.69,7.96-21.23,17.83-21.23,5.14,0,8.87,1.99,11.44,6.14v-5.06h10.78v41.22c0,12.27-8.96,18.91-20.32,18.91s-19.74-6.55-19.74-17.08h10.03c0,4.89,3.57,7.8,8.96,7.8,5.72,0,10.28-3.4,10.28-8.79v-6.72ZM478.68,117.77c0-8.87-3.07-13.1-9.21-13.1s-9.21,4.06-9.21,12.44c0,7.3,3.9,11.94,9.21,11.94s9.21-4.4,9.21-11.28Z"/>
    <path d="M494.35,91.48v-10.03h10.78v10.03h-10.78ZM494.35,137.18v-40.8h10.78v40.8h-10.78Z"/>
    <path d="M534.82,108.73c-.58-3.98-2.74-5.39-7.63-5.39-4.06,0-6.39,1-6.39,3.4s2.24,3.4,6.63,4.64c4.64,1.33,9.04,2.24,12.19,3.48,4.31,1.74,6.72,4.56,6.72,9.87,0,8.46-6.22,13.52-17.83,13.52-12.52,0-19.49-5.89-19.65-14.18h11.11c0,3.81,3.23,6.05,8.46,6.05,3.81,0,7.21-1.16,7.21-4.23,0-2.9-3.07-3.81-6.55-4.64-6.88-1.66-10.7-2.82-13.6-4.64-3.82-2.4-5.14-5.56-5.14-9.21,0-6.88,4.73-12.11,17.17-12.11,11.78,0,17.08,4.64,17.66,13.43h-10.37Z"/>
    <path d="M587.65,137.18l-3.48-11.36h-20.32l-3.9,11.36h-12.19l19.65-55.07h13.35l19.41,55.07h-12.52ZM573.97,94.47h-.08l-7.05,21.89h14.02l-6.88-21.89Z"/>
    <path d="M603.99,137.18v-45.45h-16.59v-9.62h44.78v9.62h-16.67v45.45h-11.53Z"/>
    <path d="M635.17,137.18v-55.07h11.53v55.07h-11.53Z"/>
    <path d="M667.93,137.18l-18.66-55.07h12.27l12.02,38.65,11.94-38.65h11.94l-18.66,55.07h-10.86Z"/>
    <path d="M694.55,110.14c0-18.66,9.54-29.86,26.46-29.86s26.29,11.2,26.29,30.1-9.37,28.69-26.29,28.69-26.46-10.37-26.46-28.94ZM735.93,110.39c0-13.02-5.31-19.9-14.93-19.9s-15.09,6.88-15.09,19.9,5.56,18.83,15.09,18.83c8.29,0,14.93-5.81,14.93-18.83Z"/>
  </g>
  <path class="cls-1" d="M324.35,48.62l-59.06-34.1c-3.85-2.22-8.59-2.22-12.44,0l-59.05,34.1c-3.85,2.22-6.22,6.33-6.22,10.77v68.19c0,4.44,2.37,8.55,6.22,10.77l7.89,4.55,1.11-77.58c0-3.88,2.06-7.46,5.41-9.42l50.39-29.4c.21-.12.48.03.48.27v16.55c0,.11-.06.21-.15.27l-36.94,22.25c-3.18,1.91-5.12,5.35-5.12,9.06l-1.28,76.03,11.25,6.5,1.02-72.36c0-3.88,2.06-7.46,5.41-9.42l50.39-29.4c.21-.12.48.03.48.27v16.55c0,.11-.06.21-.15.27l-36.94,22.25c-3.18,1.91-5.12,5.35-5.12,9.06l-1.19,70.8,12.11,6.99c3.85,2.22,8.59,2.22,12.44,0l59.06-34.1c3.85-2.22,6.22-6.33,6.22-10.77V59.39c0-4.44-2.37-8.55-6.22-10.77ZM317.5,127.23l-50.47,28.87c-2.22,1.27-4.99-.33-4.99-2.89v-55.35h13.37v36.78l42.09-23.7v16.29Z"/>
</svg>