<?xml version="1.0" encoding="UTF-8"?>
<svg id="Camada_1" data-name="Camada 1" xmlns="http://www.w3.org/2000/svg" viewBox="0 0 810.45 186.98">
  <defs>
    <style>
      .cls-1 {
        fill: #ffda12;
      }
    </style>
  </defs>
  <path class="cls-1" d="M190.43,75.15c-.66-1.25-1.53-2.53-2.64-3.44l-.59-.45c-.9-.92-1.63-1.52-2.83-1.95l-.57-.18v-.42h-.64v-.42q-1.13-.46-2.21-1.07c-.75-.41-1.42-.8-2.26-1.01l-.42-.06v-.42c-2.12-.92-4.27-1.76-6.49-2.38-.46-.13-.93-.26-1.39-.38-1.41-.58-2.78-.9-4.29-1.14l-.42-.07c-2.49-.4-4.92-.58-7.44-.59h-.5c-3.2,0-6.34.27-9.48.95-.7.22-1.38.41-2.12.52-1.16.15-2.22.33-3.31.77-.6.27-1.15.48-1.79.63.18-1.03.24-2.01.24-3.06v-5.62c0-.65,0-1.31-.03-1.96l-.21-.22-.08-.68c-.13-1.07-.36-2.12-.58-3.18l-.2-.83c-.35-1.54-.69-3.09-1.28-4.56-.22-.49-.41-.97-.58-1.47-.33-1.07-.74-1.95-1.32-2.91h-.42c-.09-.74-.22-1.28-.55-1.95l-.39-.68q-.39-.68-.76-1.19h-.42v-.64l-.23-.38-.32-.42-.35-.45-.36-.47c-.41-.57-.82-1.15-1.3-1.67h-.42v-.42l-.22-.36-.29-.4q-.29-.41-.56-.72h-.42v-.42q-.5-.56-1.07-1.07h-.42v-.42h-.42v-.43l-.64-.21v-.42h-.42v-.42c-.62-.66-1.29-1.19-2.12-1.58l-.43-.13v-.42h-.42v-.42h-.64v-.43l-.85-.21v-.42h-.64v-.42c-.48-.28-.9-.44-1.44-.56l-.47-.08v-.42h-.86v-.42c-.65-.3-1.21-.49-1.91-.64-1.96-.16-3.64-.09-5.44.76l-.44.21c-.52.25-1.04.49-1.56.73v.43h-.42q-.36.21-1.25.81l-.47.34-.49.33-.45.32q-.42.29-.73.55v.42h-.42l-.41.27-.46.35q-.47.35-.83.67v.42h-.42c-.92.67-1.84,1.41-2.41,2.41l-.15.35h-.42c-.52.58-.97,1.1-1.34,1.78l-.15.35h-.42v.42h-.43q-.21.42-.43.99l-.2.5h-.42v.42h-.43q-.21.45-.55.9c-1.06,1.42-2.49,2.99-3,4.7l-.06.35h-.43c-2.1,4.39-3.83,8.83-4.17,13.72-.02.39-.05.79-.08,1.18l-.22.21c0,.43-.02.86-.02,1.29v.54c0,.58,0,1.15,0,1.73v1.2c0,.93,0,1.85,0,2.78v.76l-1.7-.22v-.42c-1.03-.45-2-.88-3.12-1.01l-.72-.06v-.42h-1.27v-.42c-1.15-.34-2.3-.51-3.48-.65-.54-.06-1.08-.13-1.63-.2q-.47-.25-1.8-.33l-.43-.02-.45-.03c-.45-.03-.91-.05-1.36-.09-2.97-.27-5.97-.17-8.92.25l-.22.22-.44.04c-2.8.17-5.45,1.03-8.05,2.07-.58.24-1.16.47-1.75.69-3.21,1.21-6.09,2.7-8.91,4.66-.14.1-.28.19-.4.29-.44.31-.87.62-1.29.97v.42h-.42v.42h-.42c-.47.49-.82,1.01-1.17,1.59q-.56,1.33-.36,4.06l.05.52c.11,1.35.23,2.7.42,4.04l.21.22.11.37c.78,3.63,1.84,6.85,3.55,10.15l.38.75c.33.65.65,1.29,1.02,1.91l.38.61q.38.63.73,1.09h.42c.17.85.54,1.37,1.05,2.06l.65.89.32.42q.29.39.54.67h.42v.42l.34.37.45.43.44.43c.51.5,1.03,1.02,1.54,1.53l1.07,1.1c.54.56.95.97,1.66,1.29.16.06.32.11.46.16v.42q.43.21.99.43l.5.2v.43c.48.27.9.43,1.44.55l.48.08v.42c.71.43,1.3.81,2.11,1.02l.44.05v.42h.85v.43c.7.14,1.26.4,1.9.74.56.31,1.05.52,1.68.67l.46.08v.42c.46.1.92.24,1.35.41.83.36,1.49.64,2.4.7l.5-.05-.21.85h-.42l-.22.64h-.42l-.29.34c-.49.71-.92,1.3-1.59,1.85l-.46.36q-.2.64-.56,1.19c-.99,1.55-1.86,3.11-2.65,4.77l-.2.41c-.69,1.44-1.29,2.92-1.78,4.44l-.24.75c-1.66,5.22-2.7,10.31-2.71,15.8v.45c0,4.76.57,9.35,2.1,13.87.17.49.34.99.48,1.48.41,1.46.96,2.86,1.52,4.27h.42v.42h.42v.42c.34.4.64.64,1.1.9l.38.17v.42h1.07v.43l.84.09c.29.03.57.07.86.12l.22.22c.45.02.91.03,1.36.03h1.81c.65,0,1.29,0,1.94,0,2.57.02,5.11,0,7.65-.46l.42-.22c1.89-.19,3.78-.48,5.57-1.17.42-.17.84-.33,1.28-.46,2.27-.65,4.46-1.41,6.55-2.49.45-.24.91-.47,1.36-.7l1.83-.92v-.42q.63,0,1.07-.22l.46-.29q.45-.29.81-.56v-.42h.64v-.42h.42c.3-.19.6-.37.89-.58l.38-.27.46-.33.47-.35q.44-.32.77-.61v-.42h.42v-.42h.42c.65-.48,1.15-.86,1.57-1.56l.14-.36h.42l.36-.35.38-.45c.39-.45.73-.86,1.01-1.39l.17-.36h.42v-.42h.42c.46-.5.81-.91,1.02-1.56l.05-.35h.42c.45-.61.82-1.19,1.12-1.89l.16-.45.64.22.26.38c.54,1.08,1.11,2.07,1.86,3.02h.43v.64h.42v.42q.29.45.63.85h.43l.42,1.07h.42v.42l.64.22v.42c.34.4.63.64,1.1.89l.38.18v.42l.85.42v.42l.64.22v.42h.42v.42c.5.34,1.02.62,1.56.9l.35.17v.42h.64v.42q.42.22.99.44l.5.2v.42c.28.22.56.43.85.62l.38.25c1.08.69,2.19,1.29,3.33,1.85l.54.26c.89.43,1.7.81,2.67,1.02l.51.05v.42c.76.32,1.52.59,2.3.85l.44.14c.87.3,1.66.54,2.58.54l.63-.04v.43c.52.07,1.05.14,1.57.22l.64.09.64.08.6.09c.35.05.68.1,1.02.16q.43.22.84.25h7.11c1.05,0,2.06,0,3.1-.13.38-.07.78-.13,1.17-.18,2.03-.27,3.9-.49,5.66-1.64v-.42h.42v-.43h.42l.17-.41.22-.55c.16-.38.32-.77.46-1.15.35-.76.64-1.48.87-2.27.26-1,.49-2,.81-2.98,1.5-4.32,1.58-8.88,1.58-13.4v-.72c0-.71,0-1.41,0-2.12v-.66s0-1.21,0-1.21c0-.3-.02-.6-.04-.9l-.21-.22-.05-.37c-.15-2.17-.61-4.3-1.2-6.39l-.14-.48c-.23-.8-.47-1.57-.84-2.33-.32-.61-.58-1.23-.84-1.88l-.17-.42-.35-.87-.26-.65h-.42c-.4-1.97-1.68-4.01-2.98-5.53h-.42l-.22-.85h-.42v-.42h-.42l-.42-1.07h-.42v-.42l-.27-.37-.35-.4q-.35-.4-.67-.71h-.42v-.43c.72-.22,1.44-.41,2.18-.56,1.13-.23,2.25-.44,3.32-.89.81-.35,1.63-.67,2.46-.98l.47-.18.9-.34.67-.25v-.42q.64,0,1.03-.17l.46-.27.64-.35.69-.39q.69-.39,1.22-.75v-.42q.64,0,1.07-.22l.45-.29q.46-.29.81-.56v-.42q.43,0,.81-.2c1.53-.98,3.25-2.32,4.15-3.92l.15-.35h.42l.36-.35.39-.45c.39-.44.72-.86,1.01-1.38l.17-.37h.42v-.42h.42q.21-.42.43-.99l.21-.5h.42c.2-.28.39-.55.57-.84l.28-.43.37-.58.41-.62c.36-.54.66-1.02.85-1.64l.07-.36h.42c.83-1.63,1.63-3.24,2.31-4.93l.25-.6c1.28-3.14,2.36-6.34,2.42-9.76v-.53c0-.83,0-1.61-.25-2.41ZM94.33,61.14c0-3.01.21-5.84,1.02-8.76l.15-.48c.34-1.19.75-2.36,1.24-3.49.34-.72.66-1.44.97-2.18l.18-.41.34-.78.26-.58h.42v-.86h.42v-.64q.28-.57.64-1.06h.42v-.86h.42v-.42q.28-.56.64-1.07h.42l.42-1.07h.42v-.42h.42v-.42c.43-.56.91-1.1,1.4-1.62,1.8-1.82,4.22-4.61,6.74-5.33l.37-.08v-.42c.84-.42,1.53-.47,2.45-.46h.49c.58.02,1.16.03,1.75.04v.42h1.07v.42c.92,0,1.33.21,2.13.64v.42h.63v.42h.64c.3.22.59.44.88.68l.34.3c.23.19.45.38.68.58.22.19.44.38.66.57l.54.45.46.39q.4.33.7.64v.42h.42v.42h.42q.23.44.43.99l.21.5h.42v.42h.42l.22.64c.98,1.15,1.91,2.52,2.27,4.01l.07.45h.42c.14.36.29.71.42,1.07.68,1.66,1.24,3.3,1.67,5.04l.19.8c.94,4.09,1.34,8.06.92,12.25q-.22.42-.3,1.14c-.2,2-.53,3.91-1.07,5.85l-.27.98-.92,3.31h-.42q.07.44,0,1.06c-.46,1.38-1.2,2.71-2.13,3.84h-.42v.42c-.22.31-.43.61-.66.9l-.29.36c-.3.37-.59.75-.89,1.12l-.3.37c-.62.8-1.23,1.61-1.91,2.35h-.42v.42q-.5.56-1.07,1.07h-.42v.42c-.35.4-.64.64-1.1.89l-.38.18v.42h-.43v.42l-.63.42-.59.4-.66.45c-.77.52-1.49.96-2.37,1.27q-.35-.82-.59-1.68l-.14-.5q-1.04-4.9-1.36-9.91c-.05-.76-.11-1.52-.17-2.27l-.11-1.46c-.07-.99-.13-1.97-.25-2.96-.09-.65-.16-1.29-.18-1.94v-.71s0-.8,0-.8v-.82c0-1.7.03-3.37.2-5.06l.05-.4h-.42c-.02.45-.05.9-.07,1.35l-.03.55-.02.54-.03.52c0,.29-.03.57-.07.86l-.21.22-.1.48-.11.64c-.07.48-.15.96-.23,1.43l-.11.73-.11.69c-.06.37-.13.76-.21,1.13l-.21.21c-.06.4-.11.8-.15,1.2l-.06.51c-.05.56-.11,1.13-.17,1.7l-.05.6c-.38,3.94-.58,7.87-.64,11.83v.54c-1.07-2.15-2.15-4.26-3.51-6.24-.44-.62-.89-1.2-1.12-1.93l-.05-.34h-.42v-.43h-.42q-.23-.43-.44-.98l-.2-.51h-.42v-.42h-.42l-.22-.64h-.42v-.42h-.42c-.49-.85-1.02-1.48-1.72-2.16l-.41-.39c-.75-.78-1.51-1.41-2.4-2.03q-.67-.45-1.22-.95l-.14-.46-.07-.38-.64-.22-.23-.55-.2-.72-.22-.7-.21-.79c-.48-1.7-.51-3.38-.52-5.13v-.52ZM64.85,103.17v-.42h-.64v-.42h-.42l-.37-.22-.4-.29q-.39-.27-.71-.56v-.42h-.42v-.42h-.43q-.67-.49-1.27-1.07v-.42h-.42l-.36-.35-.39-.45c-.39-.45-.72-.86-1.01-1.39l-.16-.36h-.43c-.34-.5-.61-1.02-.89-1.56l-.17-.36h-.43q-.23-.44-.43-.99l-.2-.5h-.42v-.64h-.43l-.16-.3-.25-.44c-.3-.53-.59-1.06-.9-1.58l-.26-.44-.52-.91c-.46-.77-.87-1.38-.95-2.29l.05-.42h-.42c-.49-1.22-.89-2.41-1.1-3.71-.05-.39-.11-.79-.17-1.18-.21-.7-.25-1.35-.26-2.08v-.45c-.03-1.65.35-2.82,1.1-4.28h.42v-.42q.29-.36.64-.64h.42v-.42l.85-.21v-.43c.72-.43,1.3-.8,2.12-1.01l.43-.05v-.43c1.1-.52,2.2-1.04,3.36-1.41.31-.09.6-.19.9-.29.76-.4,1.41-.69,2.26-.86.57-.1,1.12-.21,1.69-.36,4.71-1.35,10.02-1.22,14.75-.1l.57.14c.93.23,1.79.44,2.66.86.61.32,1.22.58,1.86.83l.43.18.86.34.65.26v.42h.64c.35.22.7.43,1.05.66l.37.28c.46.31.91.64,1.35.99v.42h.42c.44.35.86.68,1.27,1.07.46.46.91.93,1.42,1.35.31.25.62.51.93.77v.42h.42c.34.5.61,1.03.89,1.56l.18.36h.42q.35.75,1.39,2.34c.42.63.87,1.22,1.08,1.96l.08.37h.42q.07.36.21.86c.44.71.84,1.46,1.17,2.24l.19.43c.13.31.27.61.39.91l.37.89c.84,1.93,1.65,3.9,2.13,5.96l-1.71-.22v-.42h-1.27v-.42h-.83c-.29.02-.58,0-.88,0-.46-.24-.78-.27-1.3-.31-.35-.03-.69-.07-1.04-.12-1.16-.31-2.3-.52-3.49-.68l-1.27-.16-.61-.08c-.34-.05-.67-.09-1.01-.15q-.42-.22-.87-.27c-.18,0-.35-.03-.53-.04-.4-.03-.81-.06-1.21-.09-1.09-.08-2.04-.14-3.07-.58l-.49-.3v.42l1.27.42v.42h.86v.42q1.1.15,2.12.64v.42h.64v.42h.86v.42q.65-.03,1.3.24l.76.3c.44.18.89.35,1.34.53v.42q.8-.05,1.28.18l.48.25c.53.28,1.07.56,1.59.85l.81.43.41.23c1.09.59,2.2,1.11,3.36,1.56l.35.13v.42h1.07v.42h.85l-.42.43c-.6.02-1.18.02-1.78,0-2.27-.08-4.38.33-6.56.93l-.67.19c-3.25.92-6.35,2.12-9.29,3.81-.94.56-1.88,1.05-2.88,1.46-1.42.4-3.13.44-4.58.11q-.48-.13-2-.31c-.76-.09-1.45-.17-2.17-.43l-.5-.22c-2.25-.81-4.3-1.83-6.38-2.99ZM110.59,120.83q-.24.47-.31,1.76l-.02.51-.06,1.01-.04.77h-.42c.02.72.04,1.44.07,2.15l.03.89.02.87.03.84c.02.64.03,1.25.17,1.88q.18.93.23,1.86l.03.55.04.55.03.53c.04.55.03.87-.2,1.38q-.26.46-.72,1.54l-.18.41-.35.82-.27.62h-.42v.63h-.42q-.37,1.23-1.07,2.35h-.42v.42c-.78,1.28-1.73,2.41-2.77,3.47l-.36.37c-.58.58-1.12,1.14-1.84,1.55l-.34.14v.42h-.43v.42l-.42.22c-.52.56-1.06,1.01-1.7,1.43-.35.24-.71.46-1.07.69-2.34,1.64-4.81,3.05-7.48,4.04l-.6.22c-3.56,1.28-6.98,1.92-10.77,1.99h-.76c-1.74.02-3.22-.11-4.86-.72v-.42h-.42v-.42h-.63l-.43-.64c-1.07-1.36-1.88-2.57-2.38-4.26l-.17-.63c-.35-1.13-.65-2.24-.78-3.41l-.08-.84q-.27-.78-.31-1.6l-.03-.48-.06-1.02c-.03-.53-.06-1.06-.09-1.59-.02-.35-.04-.69-.06-1.05l-.03-.49c-.03-.55-.06-1.09-.06-1.66q.21-.42.28-1.07c.02-.27.03-.51.05-.77l.06-.77.04-.58h.42l-.22-.43q.08-.85.22-1.7l.21-.22c.1-.39.2-.8.29-1.19.3-1.39.62-2.73,1.19-4.04l.23-.5c.35-.79.7-1.57,1.07-2.35h.42q-.05-.61.19-1l.27-.39.29-.43.3-.44c.35-.53.71-1.06,1.09-1.56h.42v-.42c.83-1.1,1.79-2.15,3.03-2.8l.37-.18v-.42l1.28-.64v-.42l.42-.27q.63-.37,1.05-.69c.64-.51,1.13-.92,1.93-1.14l.42-.03v-.42l.57-.28.74-.35c.7-.33,1.33-.62,2.08-.8l.43-.06v-.42c.81-.26,1.62-.51,2.4-.85,2.14-.93,4.45-1.37,6.75-1.75.36-.06.72-.11,1.07-.18q.74-.27,1.52-.32l.46-.03c2.18-.13,4.35,0,6.53.14v.42h1.27l-.21.63h-.42c-.29.81-.67,1.51-1.1,2.24l-.26.41c-.44.74-.9,1.48-1.38,2.21-.26.38-.52.78-.77,1.17l-.36.56-.74,1.14-.37.6-.36.56q-.31.5-.61.89h-.43v.64l-.25.42c-.54.77-1.07,1.54-1.53,2.36l-.35.62h-.42q-.14,1.01-.64,1.91h-.42v.85h-.42v.64q-.29.57-.64,1.07h-.42v.42h-.42v.42h-.43v.42c1.18-.62,2.23-1.5,3.1-2.5.25-.3.49-.6.74-.9h.42v-.42q.27-.34.64-.64t.85-.42l.16-.45.05-.39.86-.22v-.42h.42v-.42h.42v-.42l.64-.22v-.42h.42v-.42h.42v-.42l.64-.22v-.42h.42v-.42h.42v-.42q.29-.35.64-.64h.42v-.42h.42l.22-.64.43-.25.41-.18v-.42h.42l.22-.64.43-.25.41-.18v-.42h.42v-.42l.28-.3q.36-.35.71-.78l.34-.45.34-.46.26-.35.64.22c.1,2.65-.1,5.27-.64,7.87ZM118.03,105.55l-.41.17v.43l-.63.21c-1.38.47-2.57.52-4,.36-.55-.18-.87-.42-1.32-.79-.83-.79-1.51-1.58-1.9-2.66-.37-1.33-.28-2.57,0-3.93h.42q-.04-.63.22-1.13c.69-.93,1.55-1.54,2.58-2.08,1.74-.7,3.51-.27,5.08.66v.42q.4.16.85.43.34.38.58.89c.57,1.22.62,2.35.57,3.68-.12,1-.39,1.62-.95,2.46h-.42l-.21.63-.44.26ZM157.02,124.92c.89,1.47,1.46,2.99,2,4.61.15.44.31.89.46,1.32.64,1.65,1.07,3.35,1.24,5.12l.08.82q.24.6.25,1.09v8.62c0,.31,0,.62-.03.93l-.22.22c-.04.36-.08.71-.1,1.07-.03.35-.07.71-.11,1.07l-.22.21-.06.38q-.63,2.47-1.85,4.72h-.42q-.14.52-.42,1.07l-.56.28-.5.15v.42c-2.84,1.35-5.78,1.36-8.86,1.29h-.5c-2.26-.08-4.41-.4-6.6-.87v-.42h-1.49v-.42c-.35,0-.71,0-1.07,0q-.22-.22-.58-.32-2.66-.91-5.17-2.24v-.42q-1.01-.14-1.91-.64v-.42h-.42l-.51-.31-.58-.41q-.57-.38-1.04-.77v-.42h-.42v-.42h-.42c-.4-.34-.64-.64-.9-1.1l-.17-.38h-.42v-.42h-.42l-.22-.64h-.42c-.3-.64-.64-1.15-1.07-1.71-.36-.44-.6-.78-.77-1.33l-.07-.36h-.42c-.72-1.39-1.44-2.76-1.97-4.23-.18-.52-.35-1.04-.56-1.55-.32-.77-.49-1.45-.58-2.29-.02-.29-.05-.58-.08-.88l-.22-.42c-.64-3.68-.09-7.81.42-11.49q.39-.79.83-5.17l.05-.61c.14-1.41.21-2.8.2-4.21v-.43q.4.08.85.22l.36.39c.46.64.91,1.29,1.45,1.86.25.24.49.47.74.72v.42h.42v.64h.42c.35.41.63.84.89,1.32l.18.37h.42q.23.46,1.15,1.45c.53.56.93,1.01,1.24,1.71l.16.46h.42v.42h.42c.88.79,1.42,1.59,1.95,2.62l.18.36h.42v.42h.42v.42h.42l.42.26q.46.37.7.96l.16.49h.42l.45.53.39.53-.42-1.49h-.42q-.45-.59-.56-1.21l-.08-.49h-.42v-.85h-.42c-.44-.91-.88-1.78-1.02-2.78l-.05-.62h-.42c-.42-.89-.81-1.72-1.02-2.67l-.05-.52h-.42c-.46-1.1-.98-2.17-1.52-3.23l-.23-.44-.23-.43c-.22-.42-.37-.8-.5-1.25l-.08-.37h-.42c-.48-.85-.97-1.68-1.34-2.57l-.15-.41h-.42c-.41-.61-.75-1.25-1.07-1.91h.63v.42h.43l.36.23c.69.45,1.3.83,2.08,1.12l.53.14v.43c.52.1,1.05.21,1.57.34l.54.16c.43.11.86.24,1.29.35,1.95.64,3.86,1.01,5.89,1.29,1.39.18,2.75.36,4.1.75.61.18,1.16.31,1.8.39,1.65.07,3.73,0,5.23.76v.42h.42l.46.31.52.41q.51.38.93.77v.42c.64.22.91.43,1.37.92l.34.36c1.41,1.48,2.65,2.95,3.44,4.85l.18.47h.42c.1.49.23.87.46,1.32ZM180.81,84.66h-.43c0,.36,0,.71,0,1.07q-.21.22-.41.8l-.24.71-.23.71-.19.55h-.42v.85h-.42q.05.63-.23,1.12l-.31.51-.53.92h-.42l-.21,1.07h-.43c-.21.59-.44,1.09-.77,1.63l-.39.56q-.37.56-.75,1h-.42v.43q-.28.45-.64.85h-.42v.42h-.42l-.22.64-.43.25-.41.18v.42h-.42v.42h-.42v.42c-.36.47-.66.65-1.21.9l-.49.17v.42c-.45.41-.87.65-1.43.9l-.48.17v.42c-.62.33-1.24.63-1.88.9l-.45.17v.43l-.34.15-.48.21c-.36.16-.73.33-1.09.49-1.09.52-2.14,1.06-3.33,1.3-.46.09-.91.18-1.36.34-3.24,1.22-6.68.99-10.06.66l-.54-.06c-.3-.03-.59-.07-.88-.11q-.42-.22-1.05-.34c-2.47-.45-4.82-1.1-7.15-2.03-.45-.2-.92-.38-1.38-.56-1.24-.44-2.43-.99-3.62-1.55v-.42h-1.07v-.42q-.44.03-.89-.23l-.52-.31c-.31-.18-.62-.35-.93-.53v-.42h-.64v-.42h-.64q-.63-.42-1.42-.56l-.7-.08v-.42c.66-.44,1.34-.78,2.06-1.13l.55-.26c.94-.46,1.8-.9,2.83-1.11l.51-.05v-.42l1.09-.44.44-.18c.7-.29,1.39-.58,2.13-.78l.37-.09v-.42c.69-.09,1.12-.25,1.74-.61.68-.39,1.37-.7,2.1-.98l.44-.16c.76-.29,1.52-.56,2.31-.74l.43-.07v-.42c.57-.26,1.16-.45,1.77-.61l.75-.16.75-.17.56-.13v-.42c-.55.34-.88.42-1.54.45l-.59-.03v.42c-.43.02-.88.04-1.32.07l-.53.03-.53.02-.52.03c-.46.02-.89.06-1.34.17q-.43.12-.89.17l-.5.05c-.36.04-.73.07-1.09.11l-.57.05-.54.06c-.29.02-.58.06-.87.1l-.22.22-.65.09c-.72.11-1.4.25-2.1.42l-.44.11c-.56.15-1.13.29-1.7.44-.78.23-1.41.42-2.22.45l-.55-.03v.42l-.55.18-.75.24c-.73.23-1.44.43-2.19.57l-.55.08v.42h-.85v-.42h.42v-.42l.86-.22v-.42h.63v-.42h.42v-.42l.56-.36c.68-.43,1.14-.94,1.66-1.56.25-.31.49-.6.74-.9l.39-.46q.36-.43.69-.76h.43v-.64h.42v-.42l.24-.35c.69-.88,1.33-1.79,1.91-2.75l.3-.48c1.06-1.75,2.19-3.45,2.84-5.39l.25-.81h.42v-.86h.42c0-.36,0-.71,0-1.07q.24-.24.53-1.29l.12-.42.24-.83.18-.64h.42v-.64c.34-.18.67-.35,1.01-.52l.41-.21c.72-.37,1.4-.72,2.19-.92l.43-.06v-.42l1.15-.38c.47-.16.94-.31,1.4-.46.94-.35,1.78-.68,2.78-.68l.62.04v-.42c4.97-.81,10.25-1.05,15.15.3q1.28.36,4.14,1.03l.71.17v.42h1.07v.42q.81-.05,1.36.2c.19.09.36.19.55.28l.6.29.62.31c.73.35,1.46.71,2.19,1.07v.42q1.23.37,2.34,1.07v.42h.42q.45.29.85.64v.42h.64l.22.42c.42.51.8.92,1.01,1.56l.06.36h.42c.44,2.2.25,4.46-.42,6.59Z"/>
  <g>
    <g>
      <path d="M302.39,39.23h.71c.6-1.56,1.31-2.93,2.19-4.36.53-.85.98-1.57,1.28-2.54l.1-.61h.73l.71-1.79h.71q.75-1.11,1.81-1.97.8-.65,1.41-1.24v-.71h.71c1.13-.81,1.99-1.39,3.36-1.72,2.11-.12,3.99.1,5.93,1.01v.71h1.44l.35-1.08h.71c.65-1.38.8-2.42.71-3.93q-.91-.53-2.14-1.08c-2.45-.32-4.99-.38-7.14.93l-.73.5c-1.34.91-2.69,1.81-3.93,2.87v.71h-.71v.71h-.71q-.55.45-1.08,1.08c-.23.48-.46.96-.71,1.43l-1.08.36-.43.73-.28.7h-.71l-.51.6-.56.85-.63.91-.65.96c-.94,1.36-2.07,2.69-2.54,4.29l-.12.61h-.71c-.25.48-.48.96-.73,1.44-.81,1.59-1.62,3.2-2.34,4.84l-.51,1.23c-.86,1.87-1.64,3.76-2.34,5.7-.4,1.18-.81,2.35-1.28,3.51-.73,1.74-1.34,3.48-1.86,5.29-.17.56-.33,1.11-.5,1.67-1.16,3.8-2.39,7.64-3.07,11.57-.08.53-.17,1.06-.27,1.59l-.36.35c-.23,2.52.03,4.51,1.08,6.8h1.08v.71l.71.1q1.41-.12,3.93-1.52v-.71l1.43-.36v-.71h1.08l.36-1.79-3.22,1.08v-.71h-.73c-.22-.76-.35-1.46-.4-2.24v-.83c0-.53.02-1.06.05-1.59.5-1.51.98-2.95,1.21-4.52.4-3.03,1.13-5.88,1.99-8.8.22-.76.45-1.51.66-2.27l.43-1.47c.38-1.34.75-2.64.93-4.01l.13-1.08h.73c.91-2.88,1.74-5.82,3.15-8.5.55-1.01.81-1.67,1.06-2.82l.08-.85Z"/>
      <path d="M270.91,49.96h.71v-1.06h.71c1.64-2.87,3.02-5.73,4.19-8.82l.46-1.21c.22-.51.43-1.04.65-1.57,1.21-3.63,1.14-7.92.41-11.65h-.71q-.1-.65-.35-1.43c-1.06-1.21-2.34-2.06-3.75-2.82-1.16-.36-2.15-.56-3.38-.51q-3.76.53-10.41,5.47l1.08.71,1.08-.35v-.71h1.08c.46-.25.94-.5,1.43-.71,2.25-.25,4.31-.05,6.43.71v.71h.71v.71q.5.94,1.08,1.79h.71c-.28,6.98-1.67,12.43-5.11,18.61-.51.88-.93,1.62-1.21,2.6l-.12.6h-.71l-.71,1.14c-.75,1.23-1.54,2.37-2.42,3.51l-.46.61c-.58.76-1.18,1.51-1.77,2.24-.48.48-.96.94-1.43,1.43v.73h-.71l-.45.5-.45.66c-.31.43-.61.88-.89,1.34-.23.48-.46.96-.71,1.43l-1.08.35-.43.75-.28.7h-.71v.71l-1.08.36-.43.73-.28.7h-.71v.71h-.73l-.35,1.08h-.71v.71h-.71v.71h-.73q-.53.4-1.11.89l-1.03.89.36-4.29h.71l.07-.7.08-.89c.05-.55.12-1.09.2-1.62l.36-.36c1.44-9.02,1.34-17.8,0-26.82h-.71q.1-2.22-1.67-6l-.35-.73c-.4-.86-.8-1.71-1.21-2.57h-.71v-.71h-.71l-.35-1.79h-.73v-.71h-.71v-.71c-1.92-2.19-4.21-3.93-6.95-4.97-3.1-.89-5.8-.4-8.78.68v.71h-1.08q-.85.35-2.5,1.39l-1.16.75c-.7.46-1.39.93-2.06,1.44v.71h-.71v.71h-.71v.71h-.71l-.36,1.08h-.71v.71h-.71c-1.34,1.62-2.15,3.58-2.9,5.54l-.31.89c-.41,1.08-.83,2.12-1.08,3.23q.12,1.09.35,1.77l2.15-.35c.68-2.3,1.24-4.64,1.66-6.99l.13-.88h.71v-1.43h.71q.36-.71.75-1.66l.33-.85h.71v-.71l1.43-.36v-.71l1.79-.71v-.71h.71c1.38-.83,2.4-1.38,3.99-1.57,1.74-.03,3.35-.05,4.96.65q1.06.56,2.12.81l.73.12v.71h.71v.71q.86.94,1.79,1.79h.71v.71h.73v.71l.63.98c1.81,2.65,3.17,5.49,4.08,8.57.07.27.15.53.23.81,1.31,4.59,1.59,9.25,1.57,14.01-.02.94-.02,1.91-.02,2.85v2.78c-.02.98-.03,1.94-.07,2.9l-.36.36c.02,1.38-.1,2.65-.31,4.01l-.15.83c-.43,2.59-.91,5.15-1.67,7.67-.88,2.04-1.41,3.9-1.79,6.08l1.43.35v-.71h.71v-.71h.73v-.71q1.76-.6,7.14-6.08c.76-.78,1.52-1.56,2.35-2.27,1.48-1.26,2.87-2.55,4.24-3.91l.7-.68,1.29-1.29c.65-.63,1.08-1.14,1.49-1.92l.3-.65h.71l.55-.48.63-.66.68-.7.65-.66c1.34-1.31,2.9-2.59,3.48-4.41l.1-.6h.71c1.23-1.18,2.29-2.42,3.02-3.94l.2-.71h.71l.36-1.79Z"/>
      <path d="M399.3,39.23h.71c.33-.99.66-1.97.93-3l.15-.58h.71c.4-.75.71-1.43.93-2.24l.13-.61h.73v-1.08h.71q.35-.71.73-1.66l.33-.85h.73v-.71h.71c.58-.63,1.16-1.23,1.79-1.79,1.43-1.08,2.78-2.04,4.57-2.3,1.19,0,2.2-.03,3.28.51l.58.36.65.4q.65.4,1.28.66l1.08-.35v-1.08h.71l.02-.76.02-1.01c0-.6,0-1.19-.03-1.81q-.5-.5-2.14-1.08c-2.59-.56-4.66-.12-6.8,1.44v.71h-1.08q-1.08.71-1.91,1.54t-1.54,1.44c-.53.43-1.04.86-1.56,1.31v.71h-.71v.71h-.71l-.6.65-.66.86c-.7.89-1.23,1.67-1.69,2.72l-.27.78h-.73c-.4.61-.81,1.21-1.18,1.84l-.45.76c-.7,1.16-1.44,2.25-1.81,3.56l-.13.63h-.73c-.22,1.16-.65,2.01-1.24,3.02-.55.9-.89,1.61-1.13,2.64l-.13.8h-.71c-.41,1.34-.91,2.64-1.44,3.94-.4.93-.7,1.79-.93,2.77l-.13.8h-.71l-.91,3.66-.17.63c-1.89-.2-3.8-.4-5.72-.36-1.76.27-3.13.81-4.64,1.72q-1.01.76-1.89,1.23c-.96.53-1.86,1.08-2.77,1.69-1.44,1.26-2.87,2.45-3.66,4.23l-.27.8h-.71c-.46.81-.73,1.49-.94,2.4l-.13.81h-.71c-.31,1.56-.43,3.07-.45,4.66v.9c-.03,1.14-.05,2.25.08,3.38q.5,1.11,1.08,1.79h.71v.71l1.08.71c1.21.18,2.37.17,3.58,0,.9-.38,1.39-.76,2.14-1.43v-.71l1.08-.36.41-.73.3-.7h.71v-.71h.71v-.71l1.08-.36.43-.73.28-.7h.71c.89-1.03,1.62-2.19,2.25-3.38l.25-.56h.71c-.12.6-.23,1.19-.35,1.79-.13.48-.25.96-.36,1.44-.43,2.39-.78,5.16,0,7.51q.81.4,3.58.35v-.71h1.08l1.08-.71v-.71h.71c1.61-1.19,3.05-2.47,3.93-4.29l-1.08-.36c-.58.5-1.18.98-1.79,1.44q-1.11.2-2.14,0-.76-.99-.86-1.97c-.03-.31-.05-.65-.08-.96-.05-.58-.08-1.14-.13-1.72h.71c.63-3.7,1.04-7.64,2.45-11.12.45-.98.76-1.71.85-2.8l-.07-.73h.71c.36-1.87.81-3.63,1.51-5.39.18-.46.36-.93.53-1.41.35-.96.71-1.92,1.13-2.87.68-1.51,1.34-3.03,1.97-4.57l.28-.73c.46-1.13.93-2.25,1.26-3.45l.12-.55ZM386.06,65.7h-.71c-.17.94-.46,1.62-.91,2.5l-.68,1.16q-.63,1.13-1.26,2.06h-.73v.71h-.71v1.08h-.71v.71h-.71l-.36,1.08-.73.41-.7.3v.71h-.71v.71l-.94.53c-1.24.56-2.01.65-3.35.55l-.71-1.44h-.71c-.12-.55-.23-1.09-.3-1.66-.17-2.37.03-4.74,1.01-6.91h.71q-.08-1.04.33-1.76c1.11-1.79,2.17-3.03,4.08-4.06l.6-.27v-.71l.8-.31,1.06-.4c2.42-.94,3.9-.78,6.36,0v.71l1.08.35.07.76c-.08,1.26-.53,2.09-1.14,3.18Z"/>
      <path d="M288.06,45.66h-.71v-.71c-.71-.86-1.48-1.33-2.5-1.79-.65.6-1.08,1.09-1.49,1.86l-.3.65h-.71v2.5h.71q.25.7.73,1.44.93.27,1.77.35l.46-.56.6-.78c.76-.98,1.23-1.71,1.44-2.95Z"/>
      <path d="M276.71,71.29c.51-1.49,1.06-2.95,1.71-4.39.23-.51.48-1.03.71-1.56,1.18-2.69,2.09-4.91,1.79-7.87l-.36-.35c-2.17-.25-3.78.08-5.72,1.08v.71c-1.24.41-2.15,1.01-3.22,1.79v.71h-.71l-.36,1.79h1.08v-.73l.98-.2c1.06-.13,1.62-.13,2.6.2q-.58,4.14-2.24,8.06c-.41.94-.63,1.56-.66,2.6l.03.8h-.71v1.79h-.71c-.4,1.57-.41,3.02-.36,4.64.38,1.13.58,1.71,1.44,2.5.73.13,1.41.13,2.15.13q.7-.13,1.77-.85v-.71h.71v-.71h1.08q.78-.5,1.43-1.08v-.71q.7-.27,1.43-.71.28-.76.36-1.44c-.71.13-1.43.25-2.14.36q-.94.28-1.79.36l-.65-.36-.43-.71c-.1-1.38-.02-2.47.33-3.81l.46-1.33Z"/>
      <path d="M344.59,58.19h-1.08v-.73h-1.44v.73c-1.82-.22-3.65-.36-5.5-.36-2.07.12-3.81.3-5.62,1.36l-.68.43c-2.52,1.54-5.02,3.28-7.14,5.35v1.08h-.71l-.36,1.44h-.71l-.71,2.14h-.71c-1.21,2.29-2.27,4.84-2.65,7.41-.03,1.57.25,2.92.86,4.39h.71v.71c.8.46,1.38.71,2.3.81h1.84c.91-.1,1.51-.35,2.29-.81v-.71l1.79-.71v-.71h.71l.36-1.08h.71v-.71h.71v-.71h.71c.8-.7,1.38-1.33,1.89-2.24l.27-.63h.71v-1.08l1.43-.35v.71h-.71c-.3,2.27-.56,4.54,0,6.8q.61,1.08,1.44,1.79,1.06.33,2.14.35.85-.33,1.43-.71v-.71c1.44-.22,2.45-.91,3.58-1.79q.25-.76.36-1.43l-.68-.05-.86-.07-.88-.07q-.81-.12-1.38-.63t-.66-1.31l-.02-.75-.05-.83-.02-.85c-.05-.99-.08-1.99-.12-2.97h.71v-1.79h.71v-1.43h.73q1.54-2.98,3.86-5.47l.63-.66c.55-.71.71-1.23.86-2.1l-1.06-.35v-.71ZM338.49,62.82l-.48.78q-.45.76-.94,1.38h-.71c-.17.93-.46,1.66-.86,2.52l-.58,1.16c-.35.68-.71,1.36-1.06,2.06h-.71v1.06l-.71,1.08c-1.71,2.11-3.48,4.38-6.08,5.37-1.13.22-2.09.28-3.22,0q-.81-.71-1.08-1.79.08-3.28,1.08-6.43h.71q-.08-1.08.4-1.89l.5-.86c.3-.51.6-1.03.9-1.54h.71l.18-.76c.55-1.04.91-1.43,1.82-2.12,3.15-2.19,5.62-3.12,9.45-2.12v.71h1.06q.07.73-.36,1.41Z"/>
      <path d="M448.3,58.19q-.58-.36-1.44-.73c-3.02-.32-5.59-.13-8.22,1.44v.71h-.71c-.88.55-1.38.96-1.87,1.86l-.28.65h-.71c-.4.96-.78,1.87-1.06,2.85-.1,1.38-.08,2.29.35,3.58.88,1.06,1.81,1.96,3,2.64l.58.23v.71l.46.55c.41.41.81.85,1.19,1.29q.56.68.66,1.76c-.2,1.16-.38,2.14-.9,3.2l-.73.5c-1.43.3-2.83.4-4.28.22q-1.08-.71-1.86-1.11l-.65-.31v-.71h-1.79v1.43h-.71c-.02,1.16-.17,2.15.36,3.22.99.51,1.79.71,2.92.81h2.42c1.04-.08,1.64-.27,2.52-.81v-.71h.71c1.61-1.18,3.2-2.4,4.06-4.23l.23-.78h.71c.58-1.41.89-2.73.86-4.26-.22-1.18-.76-2.06-1.39-3.05q-.53-.56-1.31-.81l-.66-.1v-.71l-1.77-.73v-.71l-.5-.48c-.63-.63-.94-1.21-1.29-2.02l.55-.99c.65-.96,1.01-1.23,2.06-1.84q1.31-.45,2.62-.36,1.23.27,2.17,1.03c.75.66,1.36,1.06,2.25,1.46q.71-.71,1.44-1.79c.12-.98.07-1.86,0-2.85Z"/>
      <path d="M320.32,36.43l.3-.78h.71c.53-1.04,1.04-2.09,1.49-3.17l.3-.76h.71v-.71h.71c.65-.71,1.24-1.38,1.79-2.15q.33-.78.71-1.43l.94-.45.85-.27v-.71l.71-.3,1.08-.41,1.29-.61c1.57-.58,2.98-.51,4.64-.33q.94.17,1.74.98l.55.68.75.03q.7-.4,1.31-1.34c.51-1.34.65-2.27.45-3.7q-.56-.61-1.43-1.08c-3.2-.45-5.95-.22-8.59,1.79v.71c-.9.15-1.43.35-2.17.9l-.73.65c-.78.68-1.33,1.21-1.84,2.12l-.27.63h-.71l-.71,1.43h-.71l-.83.78-.96,1.01c-1.41,1.31-2.49,2.7-3.58,4.29l-.63.91-.63.93-.61.89c-.55.8-.94,1.44-1.23,2.37l-.12.61h-.71l-.36,1.79h-.71v1.43h-.71c-.56,1.64-1.11,3.28-1.87,4.84-.83,1.57-1.52,3.1-2.07,4.81-.33,1.09-.7,2.14-1.16,3.2-.73,1.51-1.39,2.92-1.74,4.57-.15.78-.3,1.51-.55,2.25-.94,2.39-1.97,4.77-1.97,7.38l.07,1.21h-.71c-.31,1.99-.65,3.98-.8,5.98-.03,1.51.1,2.69.8,4.03h.71l.71,1.43.98.05c1.13-.05,1.66-.18,2.6-.76v-.71c1.24-.41,2.15-1.01,3.22-1.79v-.71h.71l.36-1.08-1.13.23c-1.44.13-2.19-.08-3.53-.58-.25-3.81.41-7.29,1.24-10.99l.18-.81c.45-1.92.86-3.83,1.59-5.67.55-1.36.91-2.77,1.28-4.19.35-1.38.71-2.65,1.24-3.96.89-1.99,1.81-3.95,2.24-6.08l.1-.85h.71c.73-1.96,1.52-3.81,2.55-5.65.53-.94,1.03-1.86,1.44-2.87Z"/>
      <path d="M425.04,57.47h-1.08l-1.06.73-1.33-.15c-1.19-.17-2.37-.31-3.6-.3-3.05.28-5.54,1.21-8.04,2.93-1.92,1.41-4.36,2.74-5.39,4.94l-.25.8h-.71v.71h-.73c-2.22,2.83-3.86,6.5-4.41,10.06-.08,1.67.36,2.9,1.09,4.36q.46.6,1.11,1.03c1.18.43,2.22.43,3.45.41,1.39-.2,2.25-.76,3.41-1.56v-.71h.71c.56-.46,1.13-.94,1.67-1.44l.65-.6c1.16-1.03,2.15-1.87,2.83-3.3l.22-.75h.71l.71-1.08c-.05.76-.08,1.53-.1,2.3l-.03.94c-.07,1.21-.12,2.35.13,3.55.58,1.01,1.23,1.81,2.14,2.5q1.21.17,2.15,0v-.71h1.43v-.71l.81-.25c1.16-.55,1.67-1.21,2.4-2.25-.86-.15-1.69-.33-2.54-.6q-.76-.48-1.31-1.44c-.5-1.33-.55-2.29-.45-3.68q.4-.78.86-2.8c.27-1.19.53-2.12,1.13-3.18q.51-.81.76-1.64l.12-.61h.71c.45-.51.9-1.03,1.33-1.57l.48-.65c.98-1.24,1.82-2.29,2.14-3.85l-2.15-.71v-.73ZM419.21,63.56l-.6,1.14c-.36.7-.71,1.38-1.08,2.06h-.71q.08,1.11-.53,2.12l-.68,1.18q-.65,1.14-1.29,2.07h-.71q-1.28,2.55-3.36,4.56c-1.18,1.01-1.94,1.51-3.43,1.87q-1.34.07-2.5-.35l-.61-.76q-.55-1.03-.5-2.22l.15-1.24c.07-.75.15-1.48.25-2.22h.71v-1.77h.71q.23-1.71,1.08-3.23h.71v-1.06h.71v-.73c.7-.78,1.36-1.46,2.14-2.14,2.07-1.52,4.28-2.69,6.85-3,1.23.17,2.11.6,3.17,1.21q.1,1.41-.46,2.52Z"/>
    </g>
    <path d="M396.43,106.83c.48-.02.96-.03,1.46-.02l.93.03,1.01.02,1.03.03c1.09.03,2.19.05,3.28.08l2.22.07c1.82.05,3.63.08,5.45.13l.23.56c.38.83.75,1.66,1.11,2.5l.38.86c.94,2.09,1.91,4.18,2.92,6.23q.36.93.36,2.37h.71v1.43h.71l.55,1.34.3.75q.23.78.23,2.2h.71c.23.55.46,1.11.7,1.67l.38.94c.33.91.55,1.79.71,2.73h.71l.35.91c1.13,2.98,2.32,5.88,3.76,8.74.76,1.49,1.39,3.02,2.01,4.57q.35.9.94,2.01.45.94.45,2.37h.71l.71,1.79c1.67-3.25,3.22-6.53,4.67-9.88.8-1.77,1.61-3.53,2.44-5.27.35-.8.6-1.52.76-2.37h.71v-1.43h.71l.07-1.06c.22-1.46.86-2.49,1.61-3.75.86-1.66,1.38-3.43,1.91-5.2h.71l.13-.55c.31-1.21.75-2.39,1.19-3.55l.28-.76c.76-1.99,1.61-3.91,2.52-5.82.68-1.44,1.31-2.9,1.96-4.36q10.43-.41,15.02-.35l.71,2.5-1.28.15-1.69.18-.85.1-.83.1-.75.08q-.76.1-1.76.46c-.68,3.22-.76,6.22-.6,9.5l.05,1.36q.05,2.29.55,4.51c.05.71.08,1.41.1,2.12l.03,1.33.03.7.05,2.24c.08,2.32.13,4.64.2,6.96.13,5.2.31,10.39.66,15.58l.08,1.39q.13,2.22.63,4.38,1.26.45,2.5.71v.73l.73-.05c1.28.05,2.35.38,3.56.76l-.36,1.79h-22.18v-1.79q3.38-.83,5.02-.71v-.73l.71-.35c.65-1.14.76-2.17.8-3.46,0-.63-.02-1.28-.02-1.91v-.96c-.02-1.52-.12-2.9-.43-4.39-.02-.81-.02-1.61,0-2.4.02-2.15-.03-4.29-.15-6.45l-.05-.85c-.07-1.13-.15-2.11-.51-3.18-.02-.91-.02-1.81,0-2.7.02-2.22-.03-4.41-.18-6.61-.18-2.98-.22-5.95-.17-8.93l-1.08.73q-.4.93-.7,2.01c-.48,1.54-1.03,2.93-1.77,4.38-.83,1.64-1.49,3.35-2.19,5.06h-.71l-.08.85c-.36,1.72-1.01,3.27-1.71,4.87h-.71l-.13.76c-.23,1.08-.58,2.07-.96,3.12l-.4,1.04-.3.8h-.71l-.13.61c-.75,2.8-2.11,5.39-3.45,7.96-.66,1.29-1.26,2.62-1.79,3.98-.41,1.08-.86,2.09-1.44,3.08-.71,1.21-1.24,2.39-1.77,3.7h-.71v1.43h-2.5c-.08-.22-.17-.43-.25-.66-.61-1.57-1.24-3.1-2.02-4.59-.88-1.71-1.57-3.46-2.27-5.25-.7-1.81-1.57-3.46-2.57-5.14q-.4-.81-.4-2.24h-.71l-.23-.68c-.76-2.22-1.69-4.29-2.75-6.38-.88-1.69-1.61-3.41-2.32-5.17-.4-.96-.86-1.87-1.34-2.8-.8-1.56-1.39-3.15-1.97-4.79-.41-1.18-.9-2.29-1.39-3.41-.25-.6-.48-1.19-.71-1.79h-.36l-.02.68c-.1,2.3-.18,4.62-.27,6.93-.03.88-.07,1.74-.1,2.6-.05,1.24-.1,2.49-.15,3.71l-.03,1.19-.05,1.08-.03.96-.07.73-.36.35c-.05.6-.07,1.21-.08,1.81l-.03,1.18-.03,1.28-.03,1.29-.05,2.73c-.03,1.41-.07,2.8-.1,4.19-.02.88-.05,1.77-.07,2.65l-.03,1.26q-.05,2.45.56,4.79l.58.99q.75.36,1.44.35v.73l.61-.03c1.86-.05,3.35.15,5.11.75v1.79h-20.02l-.36-1.79.96-.22,1.26-.28,1.24-.28q1.54-.38,2.97-1.01c2.37-5.24,1.67-13.72,2.09-19.38.08-1.23.18-2.45.28-3.7.33-4.59.6-9.18.73-13.79l.03-1.11.03-.99.07-.73.35-.36c.1-1.28.08-2.55.1-3.85l.02-1.08q.02-2.09-.65-4.04l-.53-.68v-.71h-1.08v-.73l-1.33-.05-1.69-.1-.88-.05c-.73-.03-1.46-.08-2.19-.15l-.36-.36q-.03-.9,0-1.79l.36-.35Z"/>
    <path d="M535.91,106.83c.93-.03,1.86-.05,2.8-.05h7.96c1.23,0,2.37.02,3.55.4l.35,1.79h.71v.71h.73q.68.75,1.44,1.72l.78.98q.63.88.99,1.96h.71q.58.46,1.08,1.08v1.06h.71v.73h.71q.55.63,1.18,1.49c.75.99,1.48,1.92,2.37,2.77l.75.75v.71h.71q.58.58,1.23,1.34l.65.75q1.19,1.46,1.71,2.2v.71h.71v.71h.71q.94.83,1.79,1.79v1.08h.71v.71h.71l1.44,2.14.71.36v.71h.71l.12.7.23.73,1.08.36c.51.56.99,1.14,1.46,1.74,1.46,1.84,2.98,3.53,4.61,5.22q.73.91,1.13,1.89l.31.8,1.08.36v.71h.71v.71h.71c.5.71.98,1.43,1.44,2.15.02-4.62.03-9.23.05-13.84,0-2.15.02-4.29.02-6.43.02-2.07.03-4.14.03-6.2v-2.37c.02-1.11.02-2.2.02-3.32l.02-.98c-.02-2.07-.35-3.6-1.21-5.49-.7-.83-1.19-1.33-2.15-1.79v-.73l-.86.03q-3.76.07-5.57-.75v-1.79c1.11-.31,2.11-.4,3.25-.4h15.61q.81.05,1.87.4v1.79c-1.49.58-2.69.8-4.28.71v.73l-.88.85q-.93.81-1.14,1.57c-.17.98-.18,1.91-.18,2.9v1.31l-.02,1.43v1.51c0,1.08-.02,2.15-.02,3.23,0,1.71-.02,3.43-.02,5.14-.03,4.86-.05,9.71-.07,14.57-.02,2.69-.03,5.37-.05,8.06,0,1.69,0,3.4-.02,5.09,0,1.06,0,2.11-.02,3.17v1.48c0,.66,0,1.34-.02,2.01v1.13q-.08.93-.81,2.01-.93.07-1.79,0v-.71h-.71q-.58-.68-1.06-1.44v-.71l-1.44-.71v-1.08l-.65-.28c-.78-.43-1.29-.81-1.86-1.49v-.73h-.71v-.71l-1.08-.35c-.36-.6-.71-1.19-1.06-1.79l-.8-.78-.65-.66v-.71l-.66-.23-.76-.48c-.25-.6-.48-1.19-.71-1.79l-1.08-.35c-.48-.6-.96-1.18-1.43-1.79l-.63-.61-.45-.46v-.71h-.71v-1.08h-.71v-.71l-1.08-.35v-.73h-.71v-.71h-.71c-.48-.71-.96-1.43-1.44-2.14l-.8-.81-.63-.63v-.71h-.71v-.71h-.71c-.7-1.03-1.26-2.11-1.79-3.22h-.71v-.71l-.63-.25c-1.03-.6-1.57-1.33-2.32-2.29-1.29-1.61-2.64-3.18-4.04-4.71l-.51-.63v-.71h-.71q-.55-.53-1.13-1.21l-.58-.68-.45-.61v-.71h-.71q-.76-.85-1.43-1.79v-.71h-.71l-.36-1.44h-.71q-.58-.53-1.08-1.06c.02,5.09.05,10.18.08,15.27.02,2.37.03,4.74.05,7.09,0,2.29.02,4.57.03,6.85,0,.88.02,1.74.02,2.62,0,1.21.02,2.44.02,3.66v1.08c.02,1.52.1,2.6.68,4.03l.55.9.5.8q.55.66,1.33,1.04c1.51.43,3.05.55,4.62.66v.71h1.79v1.79h-21.46v-1.79c1.74-.58,3.15-.8,5.01-.71v-.73l.68-.41q.85-.63,1.18-1.77c.6-2.83.7-5.64.71-8.52v-1.14c0-1.24,0-2.49.02-3.73v-8.06c0-2.34.02-4.66.03-6.98v-5.37c0-.86,0-1.72.02-2.57v-4.67c0-2.2-.17-4.48-1.21-6.48-.81-.51-1.57-.76-2.5-1.06v-.73l-.96.05c-1.16-.03-1.91-.27-2.97-.76-.02-.6-.02-1.19,0-1.79l.36-.35Z"/>
    <path d="M753.76,104.52h1.24c3.81.05,7.24.8,10.86,1.94v.71h1.08l.02.86c.05,1.26.1,2.52.13,3.78l.05,1.33.05,1.28.03,1.16.07.9.36.36q.07,1.04,0,2.14l-.71.73q-1.13.03-2.15,0l-.31-.91c-.83-2.29-1.71-4.31-3.13-6.28-.48-.68-.85-1.36-1.19-2.11h-1.08v-.73l-.61-.13q-.81-.22-1.61-.48c-2.6-.9-4.92-1.08-7.64-.66-1.74.41-3.03,1.09-4.43,2.2-1.08,1.04-1.71,1.92-2.19,3.35-.65,2.88-.36,5.42.38,8.25h.71v1.43h.71v.71l.61.3c.9.46,1.77.93,2.62,1.49v.71l.6.13c.93.25,1.81.6,2.7.96l.98.4.73.3v.71l.75.12c1.19.28,2.12.75,3.2,1.31q1.72.91,3.56,1.44v.71l.63.12c.86.27,1.36.6,2.07,1.13.81.63,1.31.93,2.3,1.26v.71h.71v.71h.71q.58.5,1.08,1.08v.71h.71q.58.81,1.08,1.79v1.43h.71l.25,2.2.12.66.35.36c-.02,1.03-.05,2.04-.12,3.08l-.03.86c-.18,3.18-1.16,5.78-2.72,8.57-.83,1.18-1.62,2.09-2.85,2.85h-.71v.71h-.71v.73h-1.08v.71c-.61.3-1.24.6-1.86.9l-1.04.5c-1.03.4-1.74.46-2.82.4v.71l-.7.07-.9.08-.9.1-.75.1-.35.36c-.6.03-1.21.05-1.81.05h-5.59q-.83-.05-1.56-.41c-.46-.03-.94-.08-1.43-.1-1.64-.17-3-.66-4.53-1.33q-.81-.36-1.57-.58t-1.77-.85c-1.61-2.17-1.84-5.14-2.27-7.74q-.15-1.16-.58-1.92c-.03-.61-.03-1.23-.02-1.82v-.99l.02-.76q1.01-.22,2.14-.35,1.08.71,1.51,1.38.28.76.28,2.2h.71c.61,1.43,1.23,2.83,1.79,4.29h.71v.71l1.08.35v.71l.76.28q1.03.45,2.07,1.16c1.92,1.24,3.86,1.62,6.12,1.79q3.65.2,7.13-.71c.6-.35,1.21-.71,1.81-1.08h1.08l.27-.56c.36-.71.76-1.39,1.16-2.07,1.24-2.22,1.51-4.04,1.49-6.56l-.07-.81-.35-.36c-.08-.48-.17-.94-.23-1.43-.38-1.77-1.14-2.93-2.3-4.29-2.2-2.3-4.97-3.4-7.84-4.66v-.71h-1.43v-.71l-1.16-.13c-1.13-.18-1.82-.36-2.78-.94v-.71l-.55-.12c-1.84-.51-3.61-1.29-5.17-2.39v-.71l-.78-.25c-1.21-.56-1.92-1.26-2.8-2.25v-.71h-.71c-1.74-3.25-2.25-5.85-2.22-9.53.1-1.44.35-2.69.8-4.06h.71l.12-.8c.27-1.09.66-1.79,1.29-2.72l.56-.86.53-.63h.71v-.71h.71v-.73c.76-.55,1.56-1.08,2.35-1.57l.66-.43c3.65-2.32,7.08-3.13,11.35-3.15"/>
    <path d="M305.37,106.81c.55-.02,1.11,0,1.66.02l.36.35q.08.88,0,1.79-1.08.71-1.99.86l-1.01.07c-1.29.08-2.54.23-3.8.51v.71h-.73c-.31,1.11-.4,2.11-.4,3.27v41.6c.05.93.2,1.79.4,2.69h.73v.73c.5.17.99.33,1.49.51l.85.28c2.44.75,4.84.7,7.36.7.75,0,1.51,0,2.25.02,2.55,0,4.89-.1,7.36-.8v-.71c.71-.5,1.43-.96,2.14-1.44l.36-.71h.71l.3-.8c.4-.96.86-1.72,1.46-2.59.85-1.23,1.56-2.42,2.17-3.76l2.5.35c-.35,3.2-1.28,6.17-2.5,9.12-.48,1.24-.85,2.5-1.21,3.78q-.22.7-.58,1.06c-.53.03-1.08.03-1.62.03h-10.38c-2.22,0-4.44-.02-6.65-.02h-7.59c-5.2-.02-10.39-.02-15.6-.02v-1.79l1.14-.23,1.48-.28.75-.15c1.04-.22,2.06-.43,3.07-.78.36-2.4.41-4.76.41-7.19l.02-1.29v-3.51c0-.73,0-1.46.02-2.19v-6.86c0-2.64.02-5.27.02-7.91.02-2.04.02-4.08.02-6.13v-3.65c.02-1.36.02-2.72.02-4.08v-1.21c0-2.2-.08-4.43-1.21-6.4l-1.08-.35v-.73l-.91.02c-.4,0-.8.02-1.21.02l-1.19.02-.96-.05-.36-.35c-.02-.71-.02-1.43,0-2.15,3.96-.07,7.92-.13,11.9-.2l5.7-.1c1.44-.02,2.9-.03,4.34-.07"/>
    <path d="M663.31,120.95l-.45-.89c-.8-1.62-1.72-2.9-3.03-4.14l-.55-.5c-.85-.9-1.54-1.66-2.6-2.25l-.61-.25v-.71q-.71-.36-1.82-.75l-1.03-.33v-.71h-1.44v-.73q-1.79-.8-6.96-1.81c-.55-.1-1.08-.2-1.62-.33l-.35-.36c-2.77-.27-5.55-.36-8.32-.38l-.81.02q-4.26,0-14.42.17c-1.33.02-2.65.05-3.99.07-2.85.05-5.72.1-8.57.13v2.5l5.72.73q.75,1.61.81,2.73v1.06c0,.4.02.81.02,1.21v1.31c.02,1.48.02,2.93.03,4.39,0,1.33,0,2.64.02,3.94.02,2.47.03,4.96.05,7.43,0,2.85.02,5.7.03,8.54.05,6.13.08,12.25.12,18.38h-.73q-.2.86-.71,1.77c-1.21.81-2.29,1.14-3.71,1.33l-1.29.12-.35,1.79c3.76.02,7.53.02,11.27.03,1.92,0,3.85,0,5.77.02,1.87,0,3.76,0,5.64.02h2.15c1.03,0,2.06.02,3.08.02h.94c6.02.05,11.67-2.32,16.91-5.09v-.73l1.79-.35v-.71h.71c.28-.27.56-.53.83-.8l.96-.99c.89-.85,1.66-1.56,2.27-2.62l.23-.6h.73v-.73h.71c.38-.81.81-1.61,1.29-2.37,1.04-1.72,2.01-3.33,2.57-5.27.13-.55.28-1.09.43-1.66.4-1.11.71-2.11.86-3.3.4-6.56.31-12.3-2.57-18.33ZM656.47,137.51c0,.61,0,1.24-.03,1.86q-.4.8-.55,2.54c-.03.58-.1,1.18-.17,1.76l-.36.36-.18,1.24-.18,1.26q-.35.35-.7,1.33l-.4,1.19-.38,1.19-.3.93h-.73v1.08c-.91,1.38-1.99,2.57-3.1,3.8-1.16,1.19-2.2,2.04-3.83,2.55l-.58.08v.73h-1.43v.71c-3.18,1.13-6.43,1.46-9.8,1.49h-.9c-2.39,0-4.72-.1-7.06-.65l-.78-.25-.78-.23q-.75-.33-1.29-.98t-.63-1.74v-1.04l-.02-1.19v-1.33c-.02-1.46-.02-2.92-.02-4.38v-3.15c-.02-2.45-.02-4.91-.02-7.36s0-5.12-.02-7.67c0-2.2-.02-4.41-.02-6.63v-3.95c-.02-1.26-.02-2.52-.02-3.76l.02-1.39-.02-1.33.02-1.19q-.05-1.03.22-1.92l.83-.65q.99-.5,2.32-.48l1.14.07v-.73c4.43-.07,8.88-.27,13.23.73q.4.4,2.17.89l.71.2c.46.13.93.27,1.41.38l1.08.31v.71h1.08l.8.5.85.68q.86.65,1.57,1.33l.35,1.06h.73c1.03,1.08,1.77,2.3,2.5,3.58,1.56,3.35,2.83,6.65,2.59,10.39l-.08.7h.71c0,.96.02,1.92.02,2.88v1.18l.02,1.18v1.13Z"/>
    <path d="M275.91,162.62v-.71h-2.87v-.73l-.96-.68q-1.59-1.72-2.5-3.93c-.31-.75-.65-1.49-.99-2.24-1.56-3.27-2.9-6.63-4.04-10.06l-.43-1.33h-.71q0-1.08-.4-2.19l-.5-1.28c-.3-.75-.6-1.51-.9-2.25h-.71v-1.79h-.71c-.15-1.33-.33-2.42-.85-3.66-.53-1.18-.99-2.39-1.44-3.6l-.3-.76-.56-1.54-.43-1.16h-.71c-.23-1.41-.65-2.69-1.11-4.03l-.28-.81c-.35-1.01-.7-2.04-1.11-3.03-.83-1.36-1.43-2.62-1.94-4.11l-.28-.83-.58-1.66-.43-1.28h-.71c0-1.11-.27-1.87-.65-2.9-.2-.5-.38-.99-.58-1.49l-.3-.8c-.31-.8-.61-1.59-.91-2.4l-.28-.78-.56-1.53c-.56-1.56-1.09-3.07-2.07-4.41q-1.14-.1-2.15,0v.71h-.71l-.36,2.87h-.71c-.2.8-.38,1.61-.55,2.42l-.17.8h-.71c-.17.73-.35,1.41-.65,2.1-.76,1.62-1.41,3.27-2.01,4.96-.73,2.06-1.48,4.08-2.27,6.1-.3.78-.6,1.56-.9,2.35-.91,2.34-1.82,4.69-2.77,7.03-1.11,2.72-2.32,5.47-3.08,8.34l-.13.6h-.71l-.3,1.03-.4,1.36c-.35,1.23-.7,2.44-.96,3.68l-.13.73h-.71c-.43,1.34-.85,2.7-1.41,3.99-1.14,2.45-2.07,4.96-2.75,7.57l-.13.58h-.71c-.18,1.13-.45,2.02-.89,3.07q-.55,1.23-.78,2.11l-.12.56h-.71c-.33.96-.7,1.91-1.08,2.85h-.71v.71q-.71,0-1.64.27l-1.06.35q-1.08.33-1.96.83l-.35,1.79h21.45v-1.79h-1.43v-.71c-2.01-.18-3.58-.46-5.37-1.44q-.75-.75-1.06-1.79c-.22-2.01.13-3.68.83-5.55.3-.81.61-1.64.91-2.45.45-1.26.91-2.54,1.38-3.78l.3-.76c.2-.51.38-1.03.58-1.54.35-.91.68-1.81,1.01-2.72l.35-1.43h24.32l.73,2.5h.71c-.08,1.13.03,1.89.38,2.98l.51,1.24c.28.75.58,1.48.89,2.2h.71c0,1.39.17,1.99.71,3.23.4.85.78,1.69,1.13,2.55.51,1.74.61,3.51.3,5.3q-1.81.94-3.8,1.41c-.89.2-1.77.45-2.64.75l-.36,1.06.36.73h23.95l.36-1.79h-.71ZM230.13,136.86q-.1-1.34.31-2.14c.93-1.67,1.57-3.51,2.19-5.34.46-1.44.93-2.9,1.51-4.31.99-2.3,1.82-4.61,2.54-7.01.08-.3.17-.58.25-.86h.71q.51-2.52,1.08-5.01h.71v-1.44l.71-1.08h.71c.63,2.22,1.26,4.39,2.24,6.46q1.66,3.71,3.15,7.51c.35.89.71,1.81,1.08,2.7.51,1.31,1.03,2.6,1.54,3.9l.43,1.09c.71,1.82,1.33,3.66,1.94,5.52h-21.1Z"/>
    <path d="M387.5,162.62v-.71h-1.44v-.73l-.71-.35-.46-.85-.61-1.31c-1.16-2.4-2.14-4.87-2.97-7.43l-.25-.8h-.71c0-1.34-.18-1.99-.73-3.17q-1.66-3.86-3.23-7.76l-.38-.94c-.58-1.46-1.18-2.9-1.67-4.38-.36-1.13-.71-2.22-1.23-3.3-.86-1.56-1.56-3.18-2.11-4.89-.31-1.08-.63-1.97-1.19-2.93q-.56-.86-.88-1.84c-.48-1.54-.96-3.05-1.62-4.53-1.01-2.12-1.91-4.16-2.54-6.41l-.15-.63h-.71q0-1.06-.2-1.79c-.1-.25-.18-.5-.28-.75q-.27-.76-.6-1.39l-1.08-.35q-1.14.51-2.14,1.06v1.44h-.71q-1.54,3.96-3.23,7.86c-.76,1.79-1.54,3.56-2.15,5.4-.53,1.69-1.04,3.27-1.96,4.79-.73,1.24-1.21,2.47-1.66,3.85-.2.7-.41,1.38-.66,2.06-.58.96-1.08,1.79-1.43,2.85-.51,1.89-1.06,3.66-1.97,5.4-.68,1.29-1.19,2.55-1.62,3.95-.4,1.23-.8,2.39-1.39,3.51-.43.8-.8,1.62-1.13,2.47-.75,2.01-1.52,3.98-2.45,5.92l-.38.76c-.68,1.43-1.29,2.54-2.4,3.7l-.81.76v.73c-1.38,0-2.04.05-3.22.71l-.36,1.79h18.6v-1.79h-2.85v-.71h-1.79v-.73h-1.44v-1.06h-.71c.15-2.12.28-4.09,1.08-6.08.45-1.01.71-1.69.76-2.8l-.05-.78h.71v-1.79h.73c.25-.83.5-1.66.71-2.5l.35-2.14h20.75c.63,1.74,1.26,3.5,1.92,5.24l.41,1.11c.3.75.58,1.49.88,2.24.38.81.75,1.66,1.08,2.5.6,2.37.81,4.38.35,6.8h-1.43v.71c-.85-.02-1.67-.02-2.5,0l-.36.35-.35,1.44h20.37l.36-1.79h-2.14ZM349.94,139.73v-.71c.68-.86,1.11-1.54,1.52-2.55.53-1.62,1.06-3.25,1.74-4.81.63-1.34,1.16-2.65,1.56-4.09.33-1.16.73-2.24,1.24-3.35.76-1.66,1.33-3.38,1.91-5.12l.25-.83h.73c.46,1.06.93,2.11,1.29,3.2.46,1.54,1.04,2.98,1.74,4.46,1.36,2.82,2.6,5.65,3.25,8.74l.15.78h.71c.41,1.43.78,2.82,1.08,4.29h-17.17Z"/>
    <path d="M725.09,161.91l-1.31-.05-1.19.05v-.73h-1.06l-.36-1.77h-.71c-.2-.86-.43-1.67-.71-2.52l-.38-1.16c-.23-.68-.46-1.36-.7-2.06h-.71c.02-.6.02-1.19,0-1.79q-.68-.99-1.04-2.19c-.78-2.12-1.59-4.23-2.55-6.28-.71-1.49-1.36-3-1.96-4.56-.45-1.21-.91-2.4-1.41-3.58-.85-1.94-1.67-3.88-2.44-5.85-.45-1.19-.91-2.4-1.39-3.6l-.45-1.14c-.33-.8-.65-1.59-.96-2.39-.85-2.07-1.69-4.14-2.4-6.27l-.41-1.33h-.73q0-1.44-.28-2.24c-.23-.55-.46-1.11-.7-1.66-.2-.51-.4-1.01-.61-1.51l-.31-.78c-.38-.94-.81-1.87-1.31-2.77l-.7-.28c-1.11-.12-1.66.31-2.52.99v1.44h-.71c-.35,1.18-.68,2.34-.94,3.55l-.13.75h-.71c-.66,2.12-1.36,4.21-2.3,6.25-1.31,2.8-2.52,5.62-3.46,8.57-.2.66-.43,1.33-.66,1.99-.58.94-1.08,1.79-1.48,2.83l-.36,1.09c-.35,1.06-.66,2.09-.9,3.17l-.13.76h-.71c-.55,1.71-1.13,3.38-1.79,5.04-.33.83-.68,1.66-.99,2.5-.35.96-.7,1.89-1.09,2.82-.68,1.49-1.33,3-1.92,4.51-.56,1.44-1.11,2.88-1.79,4.28-.55,1.06-1.04,2.09-1.44,3.22l-.27.9h-.71q-.58.48-1.08,1.06v.73c-1.36,0-2.01.17-3.22.71v1.79h17.52l.36-1.79h-2.5v-.71l-2.24-.56-.63-.17v-.71h-.71l-.1-.66-.1-.88q-.13-.85-.17-1.67.36-1.08.38-2.04l-.02-.83h.71v-1.77h.71q1.11-4.39,2.87-8.59l20.39-.36q0,1.79.38,2.75c1.59,3.13,2.92,6.36,4.03,9.71.45,1.51.91,3.15.6,4.71l-.73.6-.71.48v.71h-3.22l-.35,1.79h20.74v-1.79l-1.08-.71ZM703.27,140.08h-16.44l-.36-1.43h.71c.2-.85.43-1.64.71-2.45.58-1.57,1.14-3.17,1.71-4.76.85-2.4,1.66-4.82,2.62-7.18.73-1.81,1.44-3.63,2.14-5.47l.33-.88h.36c1.01,2.34,1.96,4.71,2.83,7.11.7,1.89,1.46,3.76,2.29,5.6.58,1.28.96,2.32,1.19,3.7l.12,1.11h.71v1.43h.73c.25.83.5,1.67.71,2.5l-.36.71Z"/>
    <path d="M528.04,162.62v-.71h-1.79v-.73h-.71c-.38-.94-.76-1.89-1.16-2.82-1.97-4.51-3.75-9.08-5.4-13.71l-.23-.63h-.71c-.18-.98-.41-1.96-.71-2.9l-.38-1.14c-.23-.68-.46-1.36-.7-2.04h-.71v-1.79h-.71c-.15-1.11-.35-2.09-.75-3.15-.99-2.22-1.84-4.46-2.59-6.8l-.25-.78h-.71q0-1.43-.35-2.39l-.46-1.09-.51-1.21c-.36-.83-.73-1.66-1.09-2.49l-.51-1.23c-1.18-2.72-2.29-5.47-3.31-8.25l-.28-.73-.56-1.52-.41-1.11-.85-.03c-1.16.03-1.57.27-2.39,1.09v1.44h-.71c-.48,1.06-.75,1.97-.93,3.15l-.13,1.14h-.73c-.38.93-.75,1.89-1.08,2.85l-.36,1.09c-.33.99-.66,1.97-.91,2.97l-.15.6h-.71c-.33.81-.66,1.64-.96,2.47l-.25.75c-.18.55-.36,1.08-.55,1.61-.48,1.41-.93,2.73-1.69,4.03-.5.83-.65,1.38-.73,2.34l-.12,1.33h-.71c-.33,1.06-.7,2.11-1.13,3.13-.63,1.46-1.24,2.9-1.74,4.41-.45,1.38-.85,2.74-1.48,4.04-.85,1.62-1.61,3.23-2.25,4.94l-.28.78c-.45,1.19-.89,2.37-1.23,3.6l-.12.55h-.71l-.3.81-.4,1.08c-.35.96-.7,1.91-.96,2.9l-.13.58h-.71q-.28,1.11-1.13,1.84-1.01.75-2.37.88l-1.16.15-.35.71.35,1.79h17.52v-1.79h-2.5v-.71h-1.77v-.73l-1.08-.35q-.71-.9-1.08-2.15c.07-.81.23-1.56.45-2.35l.27-.86c.41-1.51.85-2.98,1.41-4.44q.36-.88,1.09-2.7l1.44-4.29h20.37l1.79,4.64c1.13,2.64,2.19,5.24,3.07,7.96.56,1.92.61,3.35.17,5.29h-1.79v.71h-2.5l-.36,1.79h20.39v-1.79h-1.79ZM507.31,140.08h-16.82q-.05-1.01.25-1.74c.75-1.76,1.43-3.53,2.06-5.32l.3-.85c.18-.53.38-1.08.56-1.61l.41-1.21h.71c0-1.64.36-2.78,1.04-4.28.89-1.96,1.61-3.93,2.27-5.98l.27-.83h1.08c.7,1.79,1.39,3.58,2.06,5.39.75,1.99,1.44,3.99,2.29,5.95.61,1.33,1.14,2.59,1.54,3.99.38,1.41.91,2.67,1.54,3.98q.48.94.8,1.79l-.35.71Z"/>
  </g>
</svg>