<?xml version="1.0" encoding="UTF-8"?>
<svg id="Camada_1" data-name="Camada 1" xmlns="http://www.w3.org/2000/svg" xmlns:xlink="http://www.w3.org/1999/xlink" viewBox="0 0 934.88 186.98">
  <defs>
    <style>
      .cls-1 {
        fill: #182840;
      }

      .cls-2 {
        fill: url(#Gradiente_sem_nome_379);
      }

      .cls-3 {
        fill: url(#Gradiente_sem_nome_379-2);
      }
    </style>
    <linearGradient id="Gradiente_sem_nome_379" data-name="Gradiente sem nome 379" x1="53.57" y1="76.57" x2="213.96" y2="76.57" gradientUnits="userSpaceOnUse">
      <stop offset="0" stop-color="#05b7fe"/>
      <stop offset=".19" stop-color="#18ced4"/>
      <stop offset=".39" stop-color="#28e3b0"/>
      <stop offset=".57" stop-color="#35f296"/>
      <stop offset=".74" stop-color="#3cfb86"/>
      <stop offset=".87" stop-color="#3fff81"/>
    </linearGradient>
    <linearGradient id="Gradiente_sem_nome_379-2" data-name="Gradiente sem nome 379" x1="566.15" y1="129.2" x2="591.93" y2="129.2" xlink:href="#Gradiente_sem_nome_379"/>
  </defs>
  <path class="cls-2" d="M200.2,136.55s0,0,0,0c8.89-13.1,13.76-28.66,13.76-44.95,0-11.59-2.42-22.78-7.2-33.26-.71-1.56-2.55-2.25-4.12-1.54-1.56.71-2.25,2.55-1.54,4.12,2.67,5.85,4.54,11.94,5.6,18.21-32.38-6.69-56.75-2.87-71.72,1.66-15.3,4.63-23.98,10.8-25.93,12.28-5.28,2.03-10.36,4.71-15.13,8.02-10.03,6.96-18.32,16.41-24.24,27.53-.58-1-1.13-2.01-1.66-3.03.47-4.03,3.19-22.32,15.16-42.18,7.89-13.09,18.21-24.31,30.67-33.34,15.35-11.12,34.05-18.95,55.57-23.29,10.01,5.51,18.77,13.35,25.43,23.07.6.88,1.58,1.35,2.57,1.35.6,0,1.22-.18,1.75-.54,1.42-.97,1.78-2.9.81-4.32-14.98-21.89-39.74-34.95-66.22-34.95h-.1c-1.72,0-3.11,1.39-3.11,3.11s1.39,3.11,3.11,3.11h.1c9.17,0,18.11,1.7,26.44,4.88-11.38,2.83-21.94,6.66-31.61,11.47-20.62-1.82-35.09.22-44.37,2.69,10.3-9.28,23.05-15.55,36.75-17.94,1.69-.29,2.82-1.9,2.53-3.59-.29-1.69-1.9-2.82-3.59-2.53-18.37,3.2-35.16,12.84-47.29,27.13-12.27,14.46-19.03,32.88-19.03,51.87,0,17.09,5.37,33.4,15.13,46.9l2.26,3.23c9.12-24.85,34.83-45.25,62.81-45.25s53.95,19.75,62.86,45l.65-.9c1.02-1.31,1.99-2.65,2.92-4.02v-.02ZM137.14,86.64h0c14.53-4.35,38.43-7.97,70.38-.98.16,1.97.23,3.95.23,5.94,0,13.23-3.48,25.93-9.91,37.03-5.92-11.11-14.21-20.56-24.24-27.53-11.88-8.25-25.66-12.61-39.84-12.61-.79,0-1.57.02-2.35.04,1.79-.65,3.69-1.29,5.73-1.9ZM59.78,91.6c0-16.2,5.33-31.94,15.08-44.77,2.41-1.36,15.86-8.14,43.59-7.26-2.89,1.77-5.7,3.63-8.4,5.59-13.15,9.56-24.03,21.44-32.34,35.3-8.09,13.51-12.12,26.14-14.11,34.65-2.5-7.48-3.82-15.41-3.82-23.53Z"/>
  <g>
    <path class="cls-1" d="M249.09,142.08V39.79h19.79v102.3h-19.79Z"/>
    <path class="cls-1" d="M278.16,58.21v-18.42h19.79v18.42h-19.79ZM278.16,142.08v-74.9h19.79v74.9h-19.79Z"/>
    <path class="cls-1" d="M374.83,113.01c-2.13,17.35-16.29,29.08-34.4,29.08-20.4,0-34.4-13.55-34.4-40.34s14.01-38.51,35.01-38.51c19.49,0,32.73,11.11,33.95,28.77h-19.94c-1.07-7.76-6.7-12.33-14.16-12.33-8.37,0-15.22,5.33-15.22,21.62s6.85,24.2,14.61,24.2,13.85-4.42,14.61-12.48h19.94Z"/>
    <path class="cls-1" d="M381.52,58.21v-18.42h19.79v18.42h-19.79ZM381.52,142.08v-74.9h19.79v74.9h-19.79Z"/>
    <path class="cls-1" d="M453.22,90.78h18.42v21.31c0,15.83-9.13,29.99-30.29,29.99s-30.6-14.01-30.6-30.14V44.96h19.49v20.25h41.41v14.01h-41.41v30.75c0,9.44,3.35,14.92,11.42,14.92s11.57-5.33,11.57-14.61v-19.49Z"/>
    <path class="cls-1" d="M478.49,102.66c0-23.75,14.77-39.43,38.51-39.43s38.06,15.53,38.06,39.43-14.77,39.43-38.06,39.43-38.51-16.14-38.51-39.43ZM535.12,102.66c0-15.22-6.09-22.68-18.11-22.68s-18.12,7.46-18.12,22.68,6.09,22.83,18.12,22.83,18.11-7.61,18.11-22.83Z"/>
    <path class="cls-1" d="M659.06,130.06c-2.74,6.7-10.81,10.66-20.55,10.66-24.66,0-33.18-18.88-33.18-38.51,0-23.29,14.61-38.97,32.73-38.97,9.44,0,16.29,3.65,21.01,11.26v-9.29h19.79v75.66c0,22.53-16.44,34.71-37.3,34.71s-36.23-12.03-36.23-31.36h18.42c0,8.98,6.55,14.31,16.44,14.31,10.5,0,18.88-6.24,18.88-16.14v-12.33ZM659.67,104.48c0-16.29-5.63-24.05-16.9-24.05s-16.9,7.46-16.9,22.83c0,13.4,7.15,21.92,16.9,21.92s16.9-8.07,16.9-20.7Z"/>
    <path class="cls-1" d="M736.7,140.1v-10.5c-5.18,8.52-12.94,12.48-23.29,12.48-14.92,0-25.42-11.11-25.42-27.55v-49.32h19.79v46.28c0,9.44,4.26,14.01,12.63,14.01,10.05,0,15.38-7.16,15.38-17.05v-43.23h19.64v74.9h-18.72Z"/>
    <path class="cls-1" d="M764.55,140.1v-74.9h18.57v8.98c6.55-10.05,14.16-10.96,22.23-10.96h2.59v20.25c-1.83-.3-3.65-.46-5.48-.46-12.18,0-18.11,6.09-18.11,18.12v38.97h-19.79Z"/>
    <path class="cls-1" d="M862.59,140.1v-10.5c-5.18,8.52-12.94,12.48-23.29,12.48-14.92,0-25.42-11.11-25.42-27.55v-49.32h19.79v46.28c0,9.44,4.26,14.01,12.63,14.01,10.05,0,15.38-7.16,15.38-17.05v-43.23h19.64v74.9h-18.72Z"/>
    <circle class="cls-3" cx="579.04" cy="129.2" r="12.89"/>
  </g>
</svg>