<?xml version="1.0" encoding="UTF-8"?>
<svg id="Camada_1" xmlns="http://www.w3.org/2000/svg" version="1.1" viewBox="0 0 32 32">
  <!-- Generator: Adobe Illustrator 30.0.0, SVG Export Plug-In . SVG Version: 2.1.1 Build 123)  -->
  <defs>
    <style>
      .st0 {
        fill: #4b1902;
      }

      .st1 {
        fill: #faa920;
      }

      .st2 {
        fill: gold;
      }

      .st3 {
        fill: #f1870e;
      }

      .st4 {
        fill: #dc6104;
      }

      .st5 {
        fill: #fcdd6a;
      }
    </style>
  </defs>
  <rect class="st2" x=".7" y=".7" width="30.5" height="30.5" rx="8" ry="8"/>
  <g>
    <path class="st0" d="M5.3,7.7h0v.7h0c.5,0,1,0,1.4,0h0v-.7h0s.7,0,.7,0c0,0,0,0,0,0,0,.1,0,.5,0,.6h0c.5,0,.9,0,1.4,0h0v-.7h0s.7,0,.7,0h0v.7h0c.2,0,.5,0,.7,0h0v-.7h0s.7,0,.7,0v.7c1.4,0,2.9,0,4.3,0v-.7h.8v.7h0c.2,0,.5,0,.7,0,0,0,0,0,0,0,0,0,0-.6,0-.6s0,0,0,0h.8v.7h0c.5,0,.9,0,1.4,0h0v-.7h0s1.4,0,1.4,0v.7c1.4,0,2.9,0,4.3,0v-.7h.8v.7h0c.5,0,.9,0,1.4,0h0v-.7h0s2.9,0,2.9,0v.7c.2,0,.5,0,.7,0v3.6c-.2,0-.5,0-.7,0,0,2.6,0,5.2,0,7.9.2,0,.5,0,.7,0v3.6c-.2,0-.5,0-.7,0-.1-1.2-.1-2.4,0-3.6-.2,0-.5.1-.7,0h0v-7.8h0c.2-.1.5-.1.7,0h0v-.7h0c0-1,0-2,0-2.9-.2,0-.5,0-.7,0-.7,0-1.5,0-2.2,0,0,0,0,.2,0,.2,0,.2,0,.5,0,.5,0,0-.9,0-1.2,0s-.2,0-.3,0c0,0,0,0,0,0,0-.1,0-.5,0-.6h0c-.2,0-.5,0-.7,0h0v.7h0c-1.4.1-2.9.1-4.3,0,0,0,0,0,0,0,0-.1,0-.5,0-.6h0c-.5,0-1,0-1.4,0,0,.2,0,.5,0,.7-.5,0-.9,0-1.4,0,0,0,0,0,0,0,0-.1,0-.5,0-.6h0c-.2,0-.5,0-.7,0h0v.7h0c-.2.1-.5.1-.7,0,0,0,0,0,0,0,0-.1,0-.5,0-.6h0s0,0,0,0c-.1,0-.5,0-.6,0h0c0,0,0,0,0,0v.6h0c-1.4.1-2.9.1-4.3,0,0,0,0,0,0,0,0-.1,0-.5,0-.6h0c-.2,0-.5,0-.7,0,0,.2,0,.5,0,.7-.2,0-.5,0-.7,0,0,0,0,0,0,0,0-.1,0-.5,0-.6h0c-.2,0-.5,0-.7,0h0v.7h0c-.5.1-.9.1-1.4,0,0,0,0,0,0,0,0,0,0-.6,0-.6s0,0,0,0c-.2,0-.5,0-.7,0h0v.7h0c-.5.1-1,.1-1.4,0,0,0,0,0,0,0,0-.1,0-.5,0-.6h0c-.5,0-.9,0-1.4,0-.2,0-.5,0-.7,0-.2,0-.5,0-.7,0,0,1,0,1.9,0,2.9,0,0,0,0,0,0,0,0,0,.6,0,.7s0,0,0,0c.2,0,.5,0,.7,0h0v7.8h0c-.2.1-.5.1-.7,0,.1,1,0,1.9,0,2.9,0,.2,0,.5,0,.7,1,0,1.9-.1,2.9,0,0-.2,0-.5,0-.7,0,0,0,0,0,0,.3,0,1.1,0,1.4,0h0c0,.3,0,.6,0,.8.2,0,.5,0,.7,0,0-.2,0-.5,0-.7,0,0,0,0,0,0,.3,0,1,0,1.4,0h0c0,.3,0,.6,0,.8.2,0,.5,0,.7,0,0-.2,0-.5,0-.7,0-.1.4,0,.5,0,.1,0,.2,0,.2,0,0,.2,0,.5,0,.7.2,0,.5,0,.7,0,0-.2,0-.5,0-.7h0c1.4,0,2.8,0,4.2,0h0c0,.3,0,.6,0,.8h0c.2,0,.4,0,.6,0h0c0-.2,0-.4,0-.7,0-.1.4,0,.5,0,.1,0,.2,0,.2,0,0,.2,0,.5,0,.7.2,0,.5,0,.7,0,0-.2,0-.5,0-.7.5,0,.9,0,1.4,0,0,.2,0,.5,0,.7.5,0,1,0,1.4,0,0-.2,0-.5,0-.7,1.4,0,2.9,0,4.3,0,0,.2,0,.5,0,.7.2,0,.5,0,.7,0,0-.2,0-.5,0-.7.5,0,.9,0,1.4,0,0,.2,0,.5,0,.7,1-.1,1.9,0,2.9,0,0,.2,0,.5,0,.7h-2.9c0-.2,0-.5,0-.7-.5,0-.9,0-1.4,0,0,.2,0,.5,0,.7h-.7c0-.2,0-.5,0-.7-1.4,0-2.9,0-4.3,0,0,.2,0,.5,0,.7h-1.4c0-.2,0-.5,0-.7-.5,0-.9,0-1.4,0,0,.2,0,.5,0,.7h-.7c0-.2,0-.5,0-.7-.2,0-.5,0-.7,0,0,.2,0,.5,0,.7h-.7c0-.2,0-.5,0-.7-1.4,0-2.9,0-4.3,0,0,.2,0,.5,0,.7h-.7c0-.2,0-.5,0-.7-.2,0-.5,0-.7,0,0,.2,0,.5,0,.7h-.7c0-.2,0-.5,0-.7-.5,0-.9,0-1.4,0,0,.2,0,.5,0,.7h-.7c0-.2,0-.5,0-.7-.5,0-1,0-1.4,0,0,.2,0,.5,0,.7h-2.9c0-.2,0-.5,0-.7-.2,0-.5,0-.7,0v-3.6c.2,0,.5,0,.7,0,0-2.6,0-5.2,0-7.9-.2,0-.5,0-.7,0v-3.6c.2,0,.5,0,.7,0v-.7h2.9Z"/>
    <path class="st1" d="M3.9,8.4h0s0,.7,0,.7c.5,0,.9,0,1.3,0,.5,0,1,0,1.4,0,.2,0,.5,0,.7,0,.5,0,.9,0,1.4,0,.2,0,.5,0,.7,0,.2,0,.5,0,.7,0,.2,0,.5,0,.7,0,1.4,0,2.9,0,4.3,0,.2,0,.5,0,.7,0,.2,0,.5,0,.7,0,.2,0,.5,0,.7,0,.5,0,.9,0,1.4,0,.5,0,1,0,1.4,0,1.4,0,2.9,0,4.3,0,.2,0,.5,0,.7,0,.5,0,.9,0,1.4,0,0-.2,0-.5,0-.7.7,0,1.5,0,2.2,0h0v2.8h0c-.2.1-.5.1-.7,0,0,2.6,0,5.3,0,7.9v.7s0,0,0,0h-2.8c0,0,0,0,0-.1,0-.1,0-.5,0-.6h0s0,0,0,0c-.3,0-1,0-1.4,0h0c0,0,0,0,0,0,0,0,0,.6,0,.6s0,0,0,0c0,0,0,0,0,0-.2,0-1.3,0-1.4,0h0c0,0,0,0,0,0v.6h0c0,0,0,.1,0,.1,0,0-.6,0-.7,0s0,0,0,0h0v-.7h0s0,0,0,0h-4.3c-.1-.1,0-.4,0-.6,0-.1,0-.2,0-.2h0c-.7,0-1.4,0-2.1,0h0c0,0,0-.1,0-.1v-.6h0s0,0,0,0c-.3,0-1,0-1.4,0h0c0,0,0,0,0,0v.6h0c0,0,0,.1,0,.1-.3,0-1,0-1.4,0h0c0,0,0,0,0-.1,0,0,0-.6,0-.6s0,0,0,0h0c-.7,0-1.4,0-2.1,0h0c0,0,0,0,0,0,0,0,0,.6,0,.7s0,0,0,0h0c-.2,0-.4,0-.6,0h0c0,0,0,0,0,0v.6h0s0,.1,0,.1h-2.1c0,0,0,0,0-.1,0,0,0-.6,0-.6s0,0,0,0c0,0,0,0,0,0-.3,0-1,0-1.4,0h0c0,0,0,0,0,0,0,.3,0,1,0,1.4h0c0,0,0,.1,0,.1-.3,0-1,0-1.4,0h0c0,0,0,0,0,0,0,.3,0,1,0,1.4h0s0,.1,0,.1h-.7c-.1-.8-.1-1.5,0-2.2,0,0,0,0,0,0,.1,0,.5,0,.6,0h0c0,0,0,0,0,0,0-.1,0-.5,0-.6h0s0,0,0,0h-.7c0,0,0,0,0,0,0-.3,0-1.1,0-1.4h0c0,0,0-.1,0-.1.1,0,.5,0,.6,0h0c0,0,0,0,0,0,0-.1,0-.5,0-.6h0s0,0,0,0c0,0-.6,0-.7,0s0,0,0,0c0,0,0,0,0,0,0-.4,0-.9,0-1.2,0-.1,0-.2,0-.2,0,0,0,0,0,0,.1,0,.5,0,.6,0h0c0,0,0,0,0,0v-.6h0s0,0,0,0c0,0-.6,0-.6,0s0,0,0,0c0,0,0,0,0,0,0-.4,0-.9,0-1.2,0-.1,0-.2,0-.2,0,0,0,0,0,0,.1,0,.5,0,.6,0h0c0,0,0,0,0,0,0-.2,0-1.3,0-1.4h0s0,0,0,0c0,0-.6,0-.6,0s0,0,0,0c0,0,0,0,0,0,0,0,0-.6,0-.6s0,0,0,0c-.2,0-.5,0-.7,0,0,0,0,0,0,0,0-.8,0-1.8,0-2.6,0-.1,0-.2,0-.2.2,0,.5,0,.7,0Z"/>
    <path class="st3" d="M3.1,8.4v2.9c-.2,0-.5,0-.7,0v-2.9c.2,0,.5,0,.7,0Z"/>
    <path class="st3" d="M5.3,8.4v.7c-.5,0-.9,0-1.4,0v-.7c.5,0,.9,0,1.4,0Z"/>
    <path class="st3" d="M29.6,8.4v2.9s0,0,0,0c0,0-.6,0-.6,0s0,0,0,0v-2.9c.2,0,.5,0,.7,0Z"/>
    <path class="st3" d="M20.3,8.4v.7c-.5,0-1,0-1.4,0v-.7c.5,0,1,0,1.4,0Z"/>
    <path class="st3" d="M17.5,8.4v.7c-.2,0-.5,0-.7,0v-.7c.2,0,.5,0,.7,0Z"/>
    <path class="st3" d="M25.3,8.4v.7c-.2,0-.5,0-.7,0v-.7c.2,0,.5,0,.7,0Z"/>
    <path class="st3" d="M7.5,8.4v.7c-.2,0-.5,0-.7,0v-.7c.2,0,.5,0,.7,0Z"/>
    <path class="st3" d="M9.6,8.4v.7c-.2,0-.5,0-.7,0v-.7c.2,0,.5,0,.7,0Z"/>
    <path class="st3" d="M16,8.4v.7c-.2,0-.5,0-.7,0v-.7h.7Z"/>
    <path class="st3" d="M11,8.4v.7c-.2,0-.5,0-.7,0v-.7c.2,0,.5,0,.7,0Z"/>
    <path class="st4" d="M3.1,11.3c.2,0,.5,0,.7,0v.7h.7v1.4h-.7v1.4h.7v.7h-.7v1.4h.7v.7h-.7v1.4h.7v.7h-.7c0,.7,0,1.4,0,2.1,0,.2.2.7,0,.8s-1.2,0-1.4,0h0c0-1,0-2,0-2.9.2,0,.5,0,.7,0v-7.9c-.2,0-.5,0-.7,0v-.7c.2,0,.5,0,.7,0Z"/>
    <path class="st4" d="M28.9,11.3h.7v.7c-.2,0-.5,0-.7,0v7.9c.2,0,.5,0,.7,0,0,1.2,0,2.4,0,3.6-1,0-1.9,0-2.9,0,0-.2,0-.5,0-.7.7,0,1.5,0,2.2,0h0v-2.1h0s0,0,0,0c0,0-.6,0-.7,0s0,0,0,0c0-.2,0-.5,0-.7,0-2.9,0-5.7,0-8.6.2,0,.5,0,.7,0Z"/>
    <path class="st4" d="M5.3,22.8c0-.2,0-.5,0-.7h0c7,0,14.3,0,21.4,0h0c0,.3,0,.6,0,.8-.5,0-.9,0-1.4,0-.2,0-.5,0-.7,0-1.4,0-2.9,0-4.3,0-.5,0-1,0-1.4,0-.5,0-.9,0-1.4,0-.2,0-.5,0-.7,0h-.7s0,0,0,0c0,0-.6,0-.6,0s0,0,0,0h-4.3s0,0,0,0c0,0-.6,0-.6,0s0,0,0,0h-.7s0,0,0,0c0,0-.6,0-.6,0s0,0,0,0h-1.4s0,0,0,0c0,0-.6,0-.6,0s0,0,0,0h-1.4Z"/>
    <path class="st3" d="M11,22.8c0,.2,0,.5,0,.7-.2,0-.5,0-.7,0,0-.2,0-.5,0-.7h.7Z"/>
    <path class="st3" d="M16,22.8c0,.2,0,.5,0,.7h-.7c0-.2,0-.5,0-.7h.7Z"/>
    <path class="st3" d="M20.3,22.8c0,.2,0,.5,0,.7-.5,0-1,0-1.4,0,0-.2,0-.5,0-.7.5,0,1,0,1.4,0Z"/>
    <path class="st3" d="M25.3,22.8c0,.2,0,.5,0,.7-.2,0-.5,0-.7,0,0-.2,0-.5,0-.7.2,0,.5,0,.7,0Z"/>
    <path class="st3" d="M3.9,22h.7v-1.4h1.4v-1.4h1.4v.7h2.1v-.7h.7v-.7h2.1v.7h1.4v-.7h1.4v.7h2.1v.7h4.3v.7h.7v-.7h1.4v-.7h1.4v.7h2.9c0,.2,0,.5,0,.7h.7v2.1c-.7,0-1.5,0-2.2,0,0-.2,0-.5,0-.7H5.3c0,.2,0,.5,0,.7s0,.5,0,.7c-1,0-1.9,0-2.9,0,0-.2,0-.5,0-.7h1.4c0-.2,0-.5,0-.7Z"/>
    <path class="st3" d="M7.5,22.8c0,.2,0,.5,0,.7-.2,0-.5,0-.7,0,0-.2,0-.5,0-.7h.7Z"/>
    <path class="st3" d="M9.6,22.8c0,.2,0,.5,0,.7-.2,0-.5,0-.7,0,0-.2,0-.5,0-.7h.7Z"/>
    <path class="st3" d="M17.5,22.8c0,.2,0,.5,0,.7-.2,0-.5,0-.7,0,0-.2,0-.5,0-.7.2,0,.5,0,.7,0Z"/>
    <path class="st3" d="M18.9,10.6h1.4v2.9h-2.9v-1.4h0c.4,0,.9,0,1.3,0v-1.3s0,0,0,0Z"/>
    <rect class="st3" x="18.2" y="14.9" width="2.1" height="2.1"/>
    <path class="st3" d="M16,15.6h.7v2.2h-2.1v-1.4h0c0,0,1.3,0,1.3,0,0-.2,0-.4,0-.6h0Z"/>
    <path class="st3" d="M10.3,12.8h.7v2.1h-2.1v-1.4h0c0,0,1.3,0,1.3,0,0-.2,0-.4,0-.6h0Z"/>
    <path class="st3" d="M26.1,13.4h.7v2.1h-2.1v-1.4h0c0,0,1.3,0,1.3,0,0-.2,0-.4,0-.6h0Z"/>
    <rect class="st5" x="17.5" y="10.6" width="1.4" height="1.4"/>
    <rect class="st3" x="6" y="14.2" width="1.4" height="1.4"/>
    <rect class="st5" x="23.2" y="10.6" width="1.4" height="1.4"/>
    <rect class="st5" x="21.1" y="13.4" width="1.4" height="1.4"/>
    <rect class="st3" x="21.7" y="17" width="1.4" height="1.4"/>
    <rect class="st5" x="7.5" y="17" width="1.4" height="1.4"/>
    <rect class="st3" x="12.5" y="12.8" width="1.4" height="1.4"/>
    <rect class="st3" x="25.3" y="17" width="1.4" height="1.4"/>
    <rect class="st5" x="6" y="12" width="1.4" height=".7"/>
    <rect class="st5" x="24.6" y="13.4" width="1.5" height=".7"/>
    <rect class="st5" x="8.1" y="11.3" width="1.4" height=".7"/>
    <rect class="st5" x="14.6" y="15.6" width="1.4" height=".7"/>
    <rect class="st5" x="8.9" y="12.8" width="1.5" height=".7"/>
    <rect class="st5" x="26.1" y="9.9" width=".7" height=".7"/>
    <rect class="st1" x="10.3" y="19.9" width="1.4" height="1.4"/>
    <rect class="st1" x="15.3" y="19.9" width="1.4" height="1.4"/>
  </g>
</svg>