<?xml version="1.0" encoding="UTF-8"?>
<svg id="Camada_1" xmlns="http://www.w3.org/2000/svg" version="1.1" viewBox="0 0 32 32">
  <!-- Generator: Adobe Illustrator 30.0.0, SVG Export Plug-In . SVG Version: 2.1.1 Build 123)  -->
  <defs>
    <style>
      .st0 {
        fill: #4b1902;
      }

      .st1 {
        fill: #faa920;
      }

      .st2 {
        fill: #f1870e;
      }

      .st3 {
        fill: #dc6104;
      }

      .st4 {
        fill: #fcdd6a;
      }
    </style>
  </defs>
  <path class="st0" d="M5.8,8.1h0v.6h0c.5,0,.9,0,1.4,0h0v-.6h0s.7,0,.7,0c0,0,0,0,0,0,0,.1,0,.5,0,.6h0c.4,0,.9,0,1.4,0h0v-.6h0s.7,0,.7,0h0v.6h0c.2,0,.5,0,.7,0h0v-.6h0s.7,0,.7,0v.7c1.4,0,2.7,0,4.1,0v-.7h.7v.6h0c.2,0,.5,0,.7,0,0,0,0,0,0,0,0,0,0-.6,0-.6s0,0,0,0h.8v.6h0c.4,0,.9,0,1.4,0h0v-.6h0s1.4,0,1.4,0v.7c1.4,0,2.7,0,4.1,0v-.7h.8v.6h0c.4,0,.9,0,1.4,0h0v-.6h0s2.7,0,2.7,0v.7c.2,0,.4,0,.7,0v3.4c-.2,0-.4,0-.7,0,0,2.5,0,5,0,7.5.2,0,.4,0,.7,0v3.4c-.2,0-.4,0-.7,0,0-1.1-.1-2.3,0-3.4-.2,0-.4,0-.7,0h0v-7.5h0c.2-.1.4-.1.7,0h0v-.6h0c0-1,0-1.9,0-2.8-.2,0-.4,0-.7,0-.7,0-1.4,0-2.1,0,0,0,0,.2,0,.2,0,.2,0,.4,0,.5,0,0-.9,0-1.1,0s-.2,0-.3,0c0,0,0,0,0,0,0-.1,0-.5,0-.6h0c-.2,0-.5,0-.7,0h0v.6h0c-1.4.1-2.7.1-4.1,0,0,0,0,0,0,0,0-.1,0-.5,0-.6h0c-.5,0-.9,0-1.4,0,0,.2,0,.5,0,.7-.4,0-.9,0-1.4,0,0,0,0,0,0,0,0-.1,0-.5,0-.6h0c-.2,0-.5,0-.7,0h0v.6h0c-.2.1-.5.1-.7,0,0,0,0,0,0,0,0-.1,0-.5,0-.6h0s0,0,0,0c-.1,0-.4,0-.6,0h0c0,0,0,0,0,0v.6h0c-1.4.1-2.7.1-4.1,0,0,0,0,0,0,0,0-.1,0-.5,0-.6h0c-.2,0-.4,0-.7,0,0,.2,0,.5,0,.7-.2,0-.5,0-.7,0,0,0,0,0,0,0,0-.1,0-.5,0-.6h0c-.2,0-.5,0-.7,0h0v.6h0c-.4.1-.9.1-1.4,0,0,0,0,0,0,0,0,0,0-.6,0-.6s0,0,0,0c-.2,0-.5,0-.7,0h0v.6h0c-.5.1-.9.1-1.4,0,0,0,0,0,0,0,0-.1,0-.5,0-.6h0c-.4,0-.9,0-1.4,0-.2,0-.5,0-.7,0-.2,0-.5,0-.7,0,0,.9,0,1.8,0,2.7,0,0,0,0,0,0,0,0,0,.6,0,.6s0,0,0,0c.2,0,.5,0,.7,0h0v7.5h0c-.2.1-.5.1-.7,0,0,.9,0,1.8,0,2.7,0,.2,0,.5,0,.7.9,0,1.8,0,2.7,0,0-.2,0-.5,0-.7,0,0,0,0,0,0,.3,0,1,0,1.3,0h0c0,.3,0,.5,0,.8.2,0,.5,0,.7,0,0-.2,0-.5,0-.7,0,0,0,0,0,0,.3,0,1,0,1.3,0h0c0,.3,0,.5,0,.8.2,0,.5,0,.7,0,0-.2,0-.5,0-.7,0,0,.4,0,.5,0,.1,0,.2,0,.2,0,0,.2,0,.5,0,.7.2,0,.4,0,.7,0,0-.2,0-.5,0-.7h0c1.4,0,2.7,0,4.1,0h0c0,.3,0,.5,0,.8h0c.2,0,.4,0,.6,0h0c0-.2,0-.4,0-.6,0,0,.4,0,.5,0,.1,0,.2,0,.2,0,0,.2,0,.5,0,.7.2,0,.5,0,.7,0,0-.2,0-.5,0-.7.4,0,.9,0,1.4,0,0,.2,0,.5,0,.7.5,0,.9,0,1.4,0,0-.2,0-.5,0-.7,1.4,0,2.7,0,4.1,0,0,.2,0,.5,0,.7.2,0,.5,0,.7,0,0-.2,0-.5,0-.7.4,0,.9,0,1.4,0,0,.2,0,.5,0,.7.9,0,1.8,0,2.7,0,0,.2,0,.4,0,.7h-2.7c0-.2,0-.4,0-.7-.4,0-.9,0-1.4,0,0,.2,0,.4,0,.7h-.7c0-.2,0-.4,0-.7-1.4,0-2.7,0-4.1,0,0,.2,0,.4,0,.7h-1.4c0-.2,0-.4,0-.7-.4,0-.9,0-1.4,0,0,.2,0,.4,0,.7h-.7c0-.2,0-.4,0-.7-.2,0-.5,0-.7,0,0,.2,0,.4,0,.7h-.7c0-.2,0-.4,0-.7-1.4,0-2.7,0-4.1,0,0,.2,0,.4,0,.7h-.7c0-.2,0-.4,0-.7-.2,0-.5,0-.7,0,0,.2,0,.4,0,.7h-.7c0-.2,0-.4,0-.7-.4,0-.9,0-1.4,0,0,.2,0,.4,0,.7h-.7c0-.2,0-.4,0-.7-.5,0-.9,0-1.4,0,0,.2,0,.4,0,.7h-2.7c0-.2,0-.4,0-.7-.2,0-.4,0-.7,0v-3.4c.2,0,.4,0,.7,0,0-2.5,0-5,0-7.5-.2,0-.4,0-.7,0v-3.4c.2,0,.4,0,.7,0v-.7h2.7Z"/>
  <path class="st1" d="M4.4,8.8h0s0,.6,0,.6c.4,0,.9,0,1.3,0,.5,0,.9,0,1.4,0,.2,0,.5,0,.7,0,.4,0,.9,0,1.4,0,.2,0,.5,0,.7,0,.2,0,.5,0,.7,0,.2,0,.4,0,.7,0,1.4,0,2.7,0,4.1,0,.2,0,.4,0,.7,0,.2,0,.5,0,.7,0,.2,0,.5,0,.7,0,.4,0,.9,0,1.4,0,.5,0,.9,0,1.4,0,1.4,0,2.7,0,4.1,0,.2,0,.5,0,.7,0,.4,0,.9,0,1.4,0,0-.2,0-.5,0-.7.7,0,1.4,0,2.1,0h0v2.7h0c-.2,0-.4.1-.6,0,0,2.5,0,5,0,7.5v.6s0,0,0,0h-2.7c0,0,0,0,0-.1,0-.1,0-.5,0-.6h0s0,0,0,0c-.3,0-1,0-1.3,0h0c0,0,0,0,0,0,0,0,0,.6,0,.6s0,0,0,0c0,0,0,0,0,0-.2,0-1.3,0-1.3,0h0c0,0,0,0,0,0v.6h0c0,0,0,.1,0,.1,0,0-.6,0-.6,0s0,0,0,0h0v-.6h0s0,0,0,0h-4.1c0-.1,0-.4,0-.5,0-.1,0-.2,0-.2h0c-.7,0-1.3,0-2,0h0c0,0,0-.1,0-.1v-.6h0s0,0,0,0c-.3,0-1,0-1.3,0h0c0,0,0,0,0,0v.6h0c0,0,0,.1,0,.1-.3,0-1,0-1.3,0h0c0,0,0,0,0-.1,0,0,0-.6,0-.6s0,0,0,0h0c-.7,0-1.3,0-2,0h0c0,0,0,0,0,0,0,0,0,.6,0,.6s0,0,0,0h0c-.2,0-.4,0-.6,0h0c0,0,0,0,0,0v.6h0s0,.1,0,.1h-2c0,0,0,0,0-.1,0,0,0-.6,0-.6s0,0,0,0c0,0,0,0,0,0-.3,0-1,0-1.3,0h0c0,0,0,0,0,0,0,.3,0,1,0,1.3h0c0,0,0,.1,0,.1-.3,0-1,0-1.3,0h0c0,0,0,0,0,0,0,.3,0,1,0,1.3h0s0,.1,0,.1h-.7c0-.7-.1-1.4,0-2.1,0,0,0,0,0,0,.1,0,.5,0,.6,0h0c0,0,0,0,0,0,0-.1,0-.5,0-.6h0s0,0,0,0h-.7c0,0,0,0,0,0,0-.3,0-1.1,0-1.3h0c0,0,0-.1,0-.1.1,0,.5,0,.6,0h0c0,0,0,0,0,0,0-.1,0-.5,0-.6h0s0,0,0,0c0,0-.6,0-.6,0s0,0,0,0c0,0,0,0,0,0,0-.3,0-.8,0-1.2,0-.1,0-.2,0-.2,0,0,0,0,0,0,.1,0,.5,0,.6,0h0c0,0,0,0,0,0v-.6h0s0,0,0,0c0,0-.6,0-.6,0s0,0,0,0c0,0,0,0,0,0,0-.3,0-.8,0-1.2,0-.1,0-.2,0-.2,0,0,0,0,0,0,.1,0,.5,0,.6,0h0c0,0,0,0,0,0,0-.2,0-1.2,0-1.3h0s0,0,0,0c0,0-.6,0-.6,0s0,0,0,0c0,0,0,0,0,0,0,0,0-.6,0-.6s0,0,0,0c-.2,0-.5,0-.7,0,0,0,0,0,0,0,0-.8,0-1.7,0-2.5,0-.1,0-.2,0-.2.2,0,.5,0,.7,0Z"/>
  <path class="st2" d="M3.7,8.8v2.7c-.2,0-.5,0-.7,0v-2.7c.2,0,.5,0,.7,0Z"/>
  <path class="st2" d="M5.8,8.8v.7c-.4,0-.9,0-1.4,0v-.7c.4,0,.9,0,1.4,0Z"/>
  <path class="st2" d="M29,8.8v2.7s0,0,0,0c0,0-.6,0-.6,0s0,0,0,0v-2.7c.2,0,.4,0,.7,0Z"/>
  <path class="st2" d="M20.1,8.8v.7c-.5,0-.9,0-1.4,0v-.7c.5,0,.9,0,1.4,0Z"/>
  <path class="st2" d="M17.4,8.8v.7c-.2,0-.5,0-.7,0v-.7c.2,0,.5,0,.7,0Z"/>
  <path class="st2" d="M24.9,8.8v.7c-.2,0-.5,0-.7,0v-.7c.2,0,.5,0,.7,0Z"/>
  <path class="st2" d="M7.9,8.8v.7c-.2,0-.5,0-.7,0v-.7c.2,0,.5,0,.7,0Z"/>
  <path class="st2" d="M9.9,8.8v.7c-.2,0-.5,0-.7,0v-.7c.2,0,.5,0,.7,0Z"/>
  <path class="st2" d="M16,8.8v.7c-.2,0-.4,0-.7,0v-.7h.7Z"/>
  <path class="st2" d="M11.2,8.8v.7c-.2,0-.4,0-.7,0v-.7c.2,0,.4,0,.7,0Z"/>
  <path class="st3" d="M3.7,11.5c.2,0,.5,0,.7,0v.7h.7v1.3h-.7v1.4h.7v.7h-.7v1.4h.7v.7h-.7v1.3h.7v.7h-.7c0,.7,0,1.4,0,2,0,.2.1.7,0,.8s-1.2,0-1.3,0h0c0-1,0-1.9,0-2.8.2,0,.5,0,.7,0v-7.5c-.2,0-.5,0-.7,0v-.7c.2,0,.5,0,.7,0Z"/>
  <path class="st3" d="M28.3,11.5h.7v.7c-.2,0-.4,0-.7,0v7.5c.2,0,.4,0,.7,0,0,1.1,0,2.3,0,3.4-.9,0-1.8,0-2.7,0,0-.2,0-.5,0-.7.7,0,1.4,0,2.1,0h0v-2h0s0,0,0,0c0,0-.6,0-.6,0s0,0,0,0c0-.2,0-.5,0-.7,0-2.7,0-5.5,0-8.2.2,0,.5,0,.7,0Z"/>
  <path class="st3" d="M5.8,22.4c0-.2,0-.5,0-.7h0c6.7,0,13.7,0,20.4,0h0c0,.3,0,.5,0,.8-.4,0-.9,0-1.4,0-.2,0-.5,0-.7,0-1.4,0-2.7,0-4.1,0-.5,0-.9,0-1.4,0-.4,0-.9,0-1.4,0-.2,0-.5,0-.7,0h-.7s0,0,0,0c0,0-.6,0-.6,0s0,0,0,0h-4.1s0,0,0,0c0,0-.6,0-.6,0s0,0,0,0h-.7s0,0,0,0c0,0-.6,0-.6,0s0,0,0,0h-1.4s0,0,0,0c0,0-.6,0-.6,0s0,0,0,0h-1.4Z"/>
  <path class="st2" d="M11.2,22.4c0,.2,0,.5,0,.7-.2,0-.4,0-.7,0,0-.2,0-.5,0-.7h.7Z"/>
  <path class="st2" d="M16,22.4c0,.2,0,.5,0,.7h-.7c0-.2,0-.5,0-.7h.7Z"/>
  <path class="st2" d="M20.1,22.4c0,.2,0,.5,0,.7-.5,0-.9,0-1.4,0,0-.2,0-.5,0-.7.5,0,.9,0,1.4,0Z"/>
  <path class="st2" d="M24.9,22.4c0,.2,0,.5,0,.7-.2,0-.5,0-.7,0,0-.2,0-.5,0-.7.2,0,.5,0,.7,0Z"/>
  <path class="st2" d="M4.4,21.8h.7v-1.3h1.4v-1.4h1.4v.7h2v-.7h.7v-.7h2v.7h1.4v-.7h1.4v.7h2v.7h4.1v.7h.7v-.7h1.4v-.7h1.4v.7h2.7c0,.2,0,.5,0,.7h.7v2c-.7,0-1.4,0-2.1,0,0-.2,0-.5,0-.7H5.8c0,.2,0,.5,0,.7s0,.5,0,.7c-.9,0-1.8,0-2.7,0,0-.2,0-.5,0-.7h1.4c0-.2,0-.5,0-.7Z"/>
  <path class="st2" d="M7.9,22.4c0,.2,0,.5,0,.7-.2,0-.5,0-.7,0,0-.2,0-.5,0-.7h.7Z"/>
  <path class="st2" d="M9.9,22.4c0,.2,0,.5,0,.7-.2,0-.5,0-.7,0,0-.2,0-.5,0-.7h.7Z"/>
  <path class="st2" d="M17.4,22.4c0,.2,0,.5,0,.7-.2,0-.5,0-.7,0,0-.2,0-.5,0-.7.2,0,.5,0,.7,0Z"/>
  <path class="st2" d="M18.7,10.8h1.4v2.7h-2.7v-1.3h0c.4,0,.8,0,1.3,0v-1.3s0,0,0,0Z"/>
  <rect class="st2" x="18.1" y="14.9" width="2" height="2"/>
  <path class="st2" d="M16,15.6h.7v2.1h-2v-1.4h0c0,0,1.2,0,1.2,0,0-.2,0-.4,0-.6h0Z"/>
  <path class="st2" d="M10.6,12.9h.7v2h-2v-1.4h0c0,0,1.3,0,1.3,0,0-.2,0-.4,0-.5h0Z"/>
  <path class="st2" d="M25.6,13.6h.7v2h-2v-1.3h0c0,0,1.3,0,1.3,0,0-.2,0-.4,0-.6h0Z"/>
  <rect class="st4" x="17.4" y="10.8" width="1.4" height="1.4"/>
  <rect class="st2" x="6.5" y="14.3" width="1.4" height="1.3"/>
  <rect class="st4" x="22.9" y="10.8" width="1.4" height="1.4"/>
  <rect class="st4" x="20.8" y="13.6" width="1.4" height="1.4"/>
  <rect class="st2" x="21.5" y="17" width="1.4" height="1.3"/>
  <rect class="st4" x="7.9" y="17" width="1.4" height="1.3"/>
  <rect class="st2" x="12.6" y="12.9" width="1.4" height="1.3"/>
  <rect class="st2" x="24.9" y="17" width="1.4" height="1.3"/>
  <rect class="st4" x="6.5" y="12.2" width="1.4" height=".7"/>
  <rect class="st4" x="24.2" y="13.6" width="1.4" height=".7"/>
  <rect class="st4" x="8.5" y="11.5" width="1.4" height=".7"/>
  <rect class="st4" x="14.7" y="15.6" width="1.4" height=".7"/>
  <rect class="st4" x="9.2" y="12.9" width="1.4" height=".7"/>
  <rect class="st4" x="25.6" y="10.2" width=".7" height=".7"/>
  <rect class="st1" x="10.6" y="19.7" width="1.4" height="1.3"/>
  <rect class="st1" x="15.4" y="19.7" width="1.4" height="1.3"/>
</svg>